<svg id="Layer_1" data-name="Layer 1" xmlns="http://www.w3.org/2000/svg" xmlns:xlink="http://www.w3.org/1999/xlink" viewBox="0 0 343 125"><defs><style>.cls-1,.cls-2,.cls-76,.cls-77,.cls-78,.cls-82{fill:none;}.cls-2{clip-rule:evenodd;}.cls-3{fill:#152935;}.cls-4{fill:#4178be;}.cls-5{clip-path:url(#clip-path);}.cls-6{clip-path:url(#clip-path-2);}.cls-7{clip-path:url(#clip-path-3);}.cls-8{clip-path:url(#clip-path-4);}.cls-9{clip-path:url(#clip-path-5);}.cls-10{clip-path:url(#clip-path-6);}.cls-11{clip-path:url(#clip-path-7);}.cls-12{clip-path:url(#clip-path-8);}.cls-13{clip-path:url(#clip-path-9);}.cls-14{clip-path:url(#clip-path-10);}.cls-15{clip-path:url(#clip-path-11);}.cls-16{clip-path:url(#clip-path-12);}.cls-17{clip-path:url(#clip-path-13);}.cls-18{clip-path:url(#clip-path-14);}.cls-19{clip-path:url(#clip-path-15);}.cls-20{clip-path:url(#clip-path-16);}.cls-21{clip-path:url(#clip-path-17);}.cls-22{clip-path:url(#clip-path-18);}.cls-23{clip-path:url(#clip-path-19);}.cls-24{clip-path:url(#clip-path-20);}.cls-25{clip-path:url(#clip-path-21);}.cls-26{clip-path:url(#clip-path-22);}.cls-27{clip-path:url(#clip-path-23);}.cls-28{clip-path:url(#clip-path-24);}.cls-29{clip-path:url(#clip-path-25);}.cls-30{clip-path:url(#clip-path-26);}.cls-31{clip-path:url(#clip-path-27);}.cls-32{clip-path:url(#clip-path-28);}.cls-33{clip-path:url(#clip-path-29);}.cls-34{clip-path:url(#clip-path-30);}.cls-35{clip-path:url(#clip-path-31);}.cls-36{clip-path:url(#clip-path-32);}.cls-37{clip-path:url(#clip-path-33);}.cls-38{clip-path:url(#clip-path-34);}.cls-39{clip-path:url(#clip-path-35);}.cls-40{clip-path:url(#clip-path-36);}.cls-41{clip-path:url(#clip-path-37);}.cls-42{clip-path:url(#clip-path-38);}.cls-43{clip-path:url(#clip-path-39);}.cls-44{clip-path:url(#clip-path-40);}.cls-45{clip-path:url(#clip-path-41);}.cls-46{clip-path:url(#clip-path-42);}.cls-47{clip-path:url(#clip-path-43);}.cls-48{clip-path:url(#clip-path-44);}.cls-49{fill:#264a60;}.cls-50{clip-path:url(#clip-path-45);}.cls-51{clip-path:url(#clip-path-46);}.cls-52{clip-path:url(#clip-path-47);}.cls-53{clip-path:url(#clip-path-48);}.cls-54{clip-path:url(#clip-path-49);}.cls-55{clip-path:url(#clip-path-50);}.cls-56{clip-path:url(#clip-path-51);}.cls-57{clip-path:url(#clip-path-52);}.cls-58{clip-path:url(#clip-path-53);}.cls-59{clip-path:url(#clip-path-54);}.cls-60{clip-path:url(#clip-path-55);}.cls-61{clip-path:url(#clip-path-56);}.cls-62{clip-path:url(#clip-path-57);}.cls-63{clip-path:url(#clip-path-58);}.cls-64{clip-path:url(#clip-path-59);}.cls-65{clip-path:url(#clip-path-60);}.cls-66{clip-path:url(#clip-path-61);}.cls-67{clip-path:url(#clip-path-62);}.cls-68{clip-path:url(#clip-path-63);}.cls-69{clip-path:url(#clip-path-64);}.cls-70{clip-path:url(#clip-path-65);}.cls-71{clip-path:url(#clip-path-66);}.cls-72{clip-path:url(#clip-path-67);}.cls-73{clip-path:url(#clip-path-68);}.cls-74{clip-path:url(#clip-path-69);}.cls-75,.cls-87{fill:#fff;}.cls-76,.cls-77,.cls-78{stroke:#4178be;}.cls-76,.cls-78,.cls-82,.cls-87{stroke-miterlimit:10;}.cls-76{stroke-width:6px;}.cls-77{stroke-linejoin:round;stroke-width:5px;}.cls-78{stroke-linecap:square;stroke-width:2px;}.cls-79{clip-path:url(#clip-path-70);}.cls-80{clip-path:url(#clip-path-71);}.cls-81{clip-path:url(#clip-path-72);}.cls-82{stroke:#41d6c3;}.cls-83{fill:#41d6c3;}.cls-84{clip-path:url(#clip-path-73);}.cls-85{clip-path:url(#clip-path-74);}.cls-86{clip-path:url(#clip-path-75);}.cls-87{stroke:#fff;}</style><clipPath id="clip-path"><rect class="cls-1" x="1.43" y="157.78" width="344.19" height="126.25"/></clipPath><clipPath id="clip-path-2"><rect class="cls-1" x="125.43" y="184.28" width="94" height="75"/></clipPath><clipPath id="clip-path-3"><rect class="cls-1" x="125.43" y="184.28" width="94" height="15.52"/></clipPath><clipPath id="clip-path-4"><path class="cls-2" d="M137.18,192a3.92,3.92,0,1,1-3.92-3.88,3.9,3.9,0,0,1,3.92,3.88"/></clipPath><clipPath id="clip-path-5"><path class="cls-2" d="M148.93,192a3.92,3.92,0,1,1-3.92-3.88,3.9,3.9,0,0,1,3.92,3.88"/></clipPath><clipPath id="clip-path-6"><path class="cls-2" d="M160.68,192a3.92,3.92,0,1,1-3.92-3.88,3.9,3.9,0,0,1,3.92,3.88"/></clipPath><clipPath id="clip-path-7"><rect class="cls-1" x="125.43" y="199.79" width="9.14" height="59.48"/></clipPath><clipPath id="clip-path-8"><path class="cls-2" d="M130.65,207.55a1.29,1.29,0,1,0,0-2.59h-1.31a1.29,1.29,0,1,0,0,2.59Z"/></clipPath><clipPath id="clip-path-9"><path class="cls-2" d="M130.65,210.14h-1.31a1.29,1.29,0,1,0,0,2.59h1.31a1.29,1.29,0,1,0,0-2.59"/></clipPath><clipPath id="clip-path-10"><path class="cls-2" d="M130.65,215.31h-1.31a1.29,1.29,0,1,0,0,2.59h1.31a1.29,1.29,0,1,0,0-2.59"/></clipPath><clipPath id="clip-path-11"><path class="cls-2" d="M130.65,220.48h-1.31a1.29,1.29,0,1,0,0,2.59h1.31a1.29,1.29,0,1,0,0-2.59"/></clipPath><clipPath id="clip-path-12"><path class="cls-2" d="M130.65,225.66h-1.31a1.29,1.29,0,1,0,0,2.59h1.31a1.29,1.29,0,1,0,0-2.59"/></clipPath><clipPath id="clip-path-13"><path class="cls-2" d="M130.65,230.83h-1.31a1.29,1.29,0,1,0,0,2.59h1.31a1.29,1.29,0,1,0,0-2.59"/></clipPath><clipPath id="clip-path-14"><path class="cls-2" d="M130.65,236h-1.31a1.29,1.29,0,1,0,0,2.59h1.31a1.29,1.29,0,1,0,0-2.59"/></clipPath><clipPath id="clip-path-15"><path class="cls-2" d="M130.65,241.17h-1.31a1.29,1.29,0,1,0,0,2.59h1.31a1.29,1.29,0,1,0,0-2.59"/></clipPath><clipPath id="clip-path-16"><path class="cls-2" d="M130.65,246.35h-1.31a1.29,1.29,0,1,0,0,2.59h1.31a1.29,1.29,0,1,0,0-2.59"/></clipPath><clipPath id="clip-path-17"><path class="cls-2" d="M130.65,251.52h-1.31a1.29,1.29,0,1,0,0,2.59h1.31a1.29,1.29,0,1,0,0-2.59"/></clipPath><clipPath id="clip-path-18"><path class="cls-2" d="M167.95,233h-.38c-6.48,0-11.73-5-11.73-11.1s5.25-11.1,11.73-11.1,11.73,5,11.73,11.1a10.77,10.77,0,0,1-3.4,7.81l-8,9.42Z"/></clipPath><clipPath id="clip-path-19"><path class="cls-2" d="M186,243.94h.48c8.32,0,15.07-6.38,15.07-14.25s-6.75-14.25-15.07-14.25-15.07,6.38-15.07,14.25a13.83,13.83,0,0,0,4.36,10L186,251.82Z"/></clipPath><clipPath id="clip-path-20"><ellipse class="cls-1" cx="181.12" cy="230.16" rx="1.94" ry="1.84"/></clipPath><clipPath id="clip-path-21"><ellipse class="cls-1" cx="186.95" cy="230.16" rx="1.94" ry="1.84"/></clipPath><clipPath id="clip-path-22"><ellipse class="cls-1" cx="192.79" cy="230.16" rx="1.94" ry="1.84"/></clipPath><clipPath id="clip-path-23"><rect class="cls-1" x="766.58" y="155.08" width="343.66" height="125.76"/></clipPath><clipPath id="clip-path-24"><rect class="cls-1" x="887.58" y="182.08" width="94" height="75"/></clipPath><clipPath id="clip-path-25"><rect class="cls-1" x="887.58" y="182.08" width="94" height="15.52"/></clipPath><clipPath id="clip-path-26"><path class="cls-2" d="M899.33,189.84a3.92,3.92,0,1,1-3.92-3.88,3.9,3.9,0,0,1,3.92,3.88"/></clipPath><clipPath id="clip-path-27"><path class="cls-2" d="M911.08,189.84a3.92,3.92,0,1,1-3.92-3.88,3.9,3.9,0,0,1,3.92,3.88"/></clipPath><clipPath id="clip-path-28"><path class="cls-2" d="M922.83,189.84a3.92,3.92,0,1,1-3.92-3.88,3.9,3.9,0,0,1,3.92,3.88"/></clipPath><clipPath id="clip-path-29"><rect class="cls-1" x="887.58" y="197.6" width="9.14" height="59.48"/></clipPath><clipPath id="clip-path-30"><path class="cls-2" d="M892.81,205.36a1.29,1.29,0,1,0,0-2.59H891.5a1.29,1.29,0,1,0,0,2.59Z"/></clipPath><clipPath id="clip-path-31"><path class="cls-2" d="M892.81,207.94H891.5a1.29,1.29,0,1,0,0,2.59h1.31a1.29,1.29,0,1,0,0-2.59"/></clipPath><clipPath id="clip-path-32"><path class="cls-2" d="M892.81,213.11H891.5a1.29,1.29,0,1,0,0,2.59h1.31a1.29,1.29,0,1,0,0-2.59"/></clipPath><clipPath id="clip-path-33"><path class="cls-2" d="M892.81,218.29H891.5a1.29,1.29,0,1,0,0,2.59h1.31a1.29,1.29,0,1,0,0-2.59"/></clipPath><clipPath id="clip-path-34"><path class="cls-2" d="M892.81,223.46H891.5a1.29,1.29,0,1,0,0,2.59h1.31a1.29,1.29,0,1,0,0-2.59"/></clipPath><clipPath id="clip-path-35"><path class="cls-2" d="M892.81,228.63H891.5a1.29,1.29,0,1,0,0,2.59h1.31a1.29,1.29,0,1,0,0-2.59"/></clipPath><clipPath id="clip-path-36"><path class="cls-2" d="M892.81,233.8H891.5a1.29,1.29,0,1,0,0,2.59h1.31a1.29,1.29,0,1,0,0-2.59"/></clipPath><clipPath id="clip-path-37"><path class="cls-2" d="M892.81,239H891.5a1.29,1.29,0,1,0,0,2.59h1.31a1.29,1.29,0,1,0,0-2.59"/></clipPath><clipPath id="clip-path-38"><path class="cls-2" d="M892.81,244.15H891.5a1.29,1.29,0,1,0,0,2.59h1.31a1.29,1.29,0,1,0,0-2.59"/></clipPath><clipPath id="clip-path-39"><path class="cls-2" d="M892.81,249.32H891.5a1.29,1.29,0,1,0,0,2.59h1.31a1.29,1.29,0,1,0,0-2.59"/></clipPath><clipPath id="clip-path-40"><polygon class="cls-2" points="919.12 241.72 934.78 241.84 942.63 228.25 911.78 227.95 919.12 241.72"/></clipPath><clipPath id="clip-path-41"><polygon class="cls-2" points="911.32 228.28 919.04 241.91 934.68 241.87 919.2 214.39 911.32 228.28"/></clipPath><clipPath id="clip-path-42"><polygon class="cls-2" points="952.05 210.44 936.38 210.32 928.54 223.91 959.38 224.21 952.05 210.44"/></clipPath><clipPath id="clip-path-43"><polygon class="cls-2" points="959.85 223.88 952.12 210.25 936.48 210.29 951.96 237.77 959.85 223.88"/></clipPath><clipPath id="clip-path-44"><rect class="cls-3" x="-0.03" y="-0.99" width="344.83" height="126.77"/></clipPath><clipPath id="clip-path-45"><rect class="cls-1" x="382.92" y="-162.92" width="343.66" height="124.43"/></clipPath><clipPath id="clip-path-46"><rect class="cls-1" x="127.22" y="-136.14" width="94" height="75"/></clipPath><clipPath id="clip-path-47"><rect class="cls-3" x="127.22" y="-136.14" width="94" height="15.52"/></clipPath><clipPath id="clip-path-48"><path class="cls-2" d="M139-128.38a3.9,3.9,0,0,1-3.92,3.88,3.9,3.9,0,0,1-3.92-3.88,3.9,3.9,0,0,1,3.92-3.88,3.9,3.9,0,0,1,3.92,3.88"/></clipPath><clipPath id="clip-path-49"><path class="cls-2" d="M150.72-128.38a3.9,3.9,0,0,1-3.92,3.88,3.9,3.9,0,0,1-3.92-3.88,3.9,3.9,0,0,1,3.92-3.88,3.9,3.9,0,0,1,3.92,3.88"/></clipPath><clipPath id="clip-path-50"><path class="cls-2" d="M162.47-128.38a3.9,3.9,0,0,1-3.92,3.88,3.9,3.9,0,0,1-3.92-3.88,3.9,3.9,0,0,1,3.92-3.88,3.9,3.9,0,0,1,3.92,3.88"/></clipPath><clipPath id="clip-path-51"><rect class="cls-1" x="127.22" y="-120.63" width="9.14" height="59.48"/></clipPath><clipPath id="clip-path-52"><path class="cls-2" d="M132.44-112.87a1.3,1.3,0,0,0,1.31-1.29,1.3,1.3,0,0,0-1.31-1.29h-1.31a1.3,1.3,0,0,0-1.31,1.29,1.3,1.3,0,0,0,1.31,1.29Z"/></clipPath><clipPath id="clip-path-53"><path class="cls-2" d="M132.44-110.28h-1.31a1.3,1.3,0,0,0-1.31,1.29,1.3,1.3,0,0,0,1.31,1.29h1.31a1.3,1.3,0,0,0,1.31-1.29,1.3,1.3,0,0,0-1.31-1.29"/></clipPath><clipPath id="clip-path-54"><path class="cls-2" d="M132.44-105.11h-1.31a1.3,1.3,0,0,0-1.31,1.29,1.3,1.3,0,0,0,1.31,1.29h1.31a1.3,1.3,0,0,0,1.31-1.29,1.3,1.3,0,0,0-1.31-1.29"/></clipPath><clipPath id="clip-path-55"><path class="cls-2" d="M132.44-99.94h-1.31a1.3,1.3,0,0,0-1.31,1.29,1.3,1.3,0,0,0,1.31,1.29h1.31a1.3,1.3,0,0,0,1.31-1.29,1.3,1.3,0,0,0-1.31-1.29"/></clipPath><clipPath id="clip-path-56"><path class="cls-2" d="M132.44-94.76h-1.31a1.3,1.3,0,0,0-1.31,1.29,1.3,1.3,0,0,0,1.31,1.29h1.31a1.3,1.3,0,0,0,1.31-1.29,1.3,1.3,0,0,0-1.31-1.29"/></clipPath><clipPath id="clip-path-57"><path class="cls-2" d="M132.44-89.59h-1.31a1.3,1.3,0,0,0-1.31,1.29A1.3,1.3,0,0,0,131.14-87h1.31a1.3,1.3,0,0,0,1.31-1.29,1.3,1.3,0,0,0-1.31-1.29"/></clipPath><clipPath id="clip-path-58"><path class="cls-2" d="M132.44-84.42h-1.31a1.3,1.3,0,0,0-1.31,1.29,1.3,1.3,0,0,0,1.31,1.29h1.31a1.3,1.3,0,0,0,1.31-1.29,1.3,1.3,0,0,0-1.31-1.29"/></clipPath><clipPath id="clip-path-59"><path class="cls-2" d="M132.44-79.25h-1.31A1.3,1.3,0,0,0,129.83-78a1.3,1.3,0,0,0,1.31,1.29h1.31A1.3,1.3,0,0,0,133.75-78a1.3,1.3,0,0,0-1.31-1.29"/></clipPath><clipPath id="clip-path-60"><path class="cls-2" d="M132.44-74.07h-1.31a1.3,1.3,0,0,0-1.31,1.29,1.3,1.3,0,0,0,1.31,1.29h1.31a1.3,1.3,0,0,0,1.31-1.29,1.3,1.3,0,0,0-1.31-1.29"/></clipPath><clipPath id="clip-path-61"><path class="cls-2" d="M132.44-68.9h-1.31a1.3,1.3,0,0,0-1.31,1.29,1.3,1.3,0,0,0,1.31,1.29h1.31a1.3,1.3,0,0,0,1.31-1.29,1.3,1.3,0,0,0-1.31-1.29"/></clipPath><clipPath id="clip-path-62"><rect class="cls-3" x="524.05" y="170.86" width="60.84" height="98.25"/></clipPath><clipPath id="clip-path-63"><rect class="cls-1" x="509.88" y="24.13" width="94" height="75"/></clipPath><clipPath id="clip-path-64"><rect class="cls-4" x="509.88" y="24.13" width="94" height="15.52"/></clipPath><clipPath id="clip-path-65"><path class="cls-2" d="M521.63,31.89A3.92,3.92,0,1,1,517.71,28a3.9,3.9,0,0,1,3.92,3.88"/></clipPath><clipPath id="clip-path-66"><path class="cls-2" d="M533.38,31.89A3.92,3.92,0,1,1,529.46,28a3.9,3.9,0,0,1,3.92,3.88"/></clipPath><clipPath id="clip-path-67"><path class="cls-2" d="M545.13,31.89A3.92,3.92,0,1,1,541.21,28a3.9,3.9,0,0,1,3.92,3.88"/></clipPath><clipPath id="clip-path-68"><rect class="cls-4" x="919.47" y="-146.14" width="51.28" height="82.81"/></clipPath><clipPath id="clip-path-69"><path class="cls-2" d="M128,27.51a1,1,0,0,1,1-1H231a1,1,0,0,1,1,1v62a1,1,0,0,1-1,1H129a1,1,0,0,1-1-1Z"/></clipPath><clipPath id="clip-path-70"><path class="cls-2" d="M109.33,68.38a2.4,2.4,0,0,1,2.39-2.4h21.89a2.39,2.39,0,0,1,2.39,2.4V91.32a2.4,2.4,0,0,1-2.39,2.4H111.72a2.39,2.39,0,0,1-2.39-2.4Z"/></clipPath><clipPath id="clip-path-71"><path class="cls-2" d="M113.43,54a.8.8,0,0,1,.79-.8H131.1a.8.8,0,0,1,.79.8V66H113.43Z"/></clipPath><clipPath id="clip-path-72"><path class="cls-2" d="M113.43,93.72H131.9v12a.8.8,0,0,1-.79.8H114.22a.8.8,0,0,1-.79-.8Z"/></clipPath><clipPath id="clip-path-73"><path class="cls-2" d="M208,46.18a1,1,0,0,1,1-1h35.35a1,1,0,0,1,1,1v62a1,1,0,0,1-1,1H209a1,1,0,0,1-1-1Z"/></clipPath><clipPath id="clip-path-74"><rect class="cls-1" x="208.02" y="93.18" width="37.34" height="16"/></clipPath><clipPath id="clip-path-75"><circle class="cls-1" cx="226.69" cy="101.19" r="2.67"/></clipPath></defs><title>Subheros</title><rect class="cls-3" x="-0.03" y="-0.99" width="344.83" height="126.77"/><g class="cls-48"><rect class="cls-3" x="-7.9" y="-5.22" width="360.58" height="135.23"/></g><circle class="cls-49" cx="22.91" cy="13.77" r="8.06"/><path class="cls-49" d="M22.91,30.52a6.06,6.06,0,1,1-6.06,6.06,6.07,6.07,0,0,1,6.06-6.06m0-2A8.06,8.06,0,1,0,31,36.59a8.06,8.06,0,0,0-8.06-8.06Z"/><circle class="cls-49" cx="22.91" cy="59.4" r="8.06"/><circle class="cls-49" cx="22.91" cy="83.59" r="8.06"/><path class="cls-49" d="M22.91,100.91A6.06,6.06,0,1,1,16.85,107a6.07,6.07,0,0,1,6.06-6.06m0-2A8.06,8.06,0,1,0,31,107a8.06,8.06,0,0,0-8.06-8.06Z"/><path class="cls-49" d="M118.67,53.34a6.06,6.06,0,1,1-6.06,6.06,6.07,6.07,0,0,1,6.06-6.06m0-2a8.06,8.06,0,1,0,8.06,8.06,8.06,8.06,0,0,0-8.06-8.06Z"/><circle class="cls-49" cx="118.67" cy="83.59" r="8.06"/><circle class="cls-49" cx="142.61" cy="13.77" r="8.06"/><circle class="cls-49" cx="142.61" cy="36.59" r="8.06"/><circle class="cls-49" cx="142.61" cy="59.4" r="8.06"/><circle class="cls-49" cx="166.55" cy="83.59" r="8.06"/><path class="cls-49" d="M166.55,30.61a6.06,6.06,0,1,1-6.06,6.06,6.07,6.07,0,0,1,6.06-6.06m0-2a8.06,8.06,0,1,0,8.06,8.06,8.06,8.06,0,0,0-8.06-8.06Z"/><circle class="cls-49" cx="70.79" cy="59.4" r="8.06"/><path class="cls-49" d="M70.79,77.53a6.06,6.06,0,1,1-6.06,6.06,6.07,6.07,0,0,1,6.06-6.06m0-2a8.06,8.06,0,1,0,8.06,8.06,8.06,8.06,0,0,0-8.06-8.06Z"/><circle class="cls-49" cx="70.79" cy="106.98" r="8.06"/><path class="cls-49" d="M70.79,31.24a6.06,6.06,0,1,1-6.06,6.06,6.07,6.07,0,0,1,6.06-6.06m0-2a8.06,8.06,0,1,0,8.06,8.06,8.06,8.06,0,0,0-8.06-8.06Z"/><path class="cls-49" d="M70.79,7.25a6.06,6.06,0,1,1-6.06,6.06,6.07,6.07,0,0,1,6.06-6.06m0-2a8.06,8.06,0,1,0,8.06,8.06,8.06,8.06,0,0,0-8.06-8.06Z"/><circle class="cls-49" cx="46.85" cy="83.59" r="8.06"/><circle class="cls-49" cx="46.85" cy="106.98" r="8.06"/><circle class="cls-49" cx="46.85" cy="37.48" r="8.06"/><path class="cls-49" d="M46.85,7.43a6.06,6.06,0,1,1-6.06,6.06,6.07,6.07,0,0,1,6.06-6.06m0-2a8.06,8.06,0,1,0,8.06,8.06,8.06,8.06,0,0,0-8.06-8.06Z"/><circle class="cls-49" cx="94.73" cy="83.59" r="8.06"/><circle class="cls-49" cx="94.73" cy="13.77" r="8.06"/><path class="cls-49" d="M94.73,31.71a6.06,6.06,0,1,1-6.06,6.06,6.07,6.07,0,0,1,6.06-6.06m0-2a8.06,8.06,0,1,0,8.06,8.06,8.06,8.06,0,0,0-8.06-8.06Z"/><rect class="cls-3" x="127.22" y="-136.14" width="94" height="15.52"/><g class="cls-52"><rect class="cls-3" x="-1029.78" y="-669.14" width="1440" height="1024"/></g><rect class="cls-3" x="524.05" y="170.86" width="60.84" height="98.25"/><g class="cls-67"><rect class="cls-3" x="-528.2" y="-485.36" width="1581.89" height="1108.74"/></g><rect class="cls-4" x="509.88" y="24.13" width="94" height="15.52"/><g class="cls-69"><rect class="cls-4" x="-647.12" y="-508.87" width="1440" height="1024"/></g><circle class="cls-49" cx="328.88" cy="105.96" r="8.06"/><path class="cls-49" d="M328.88,77.08a6.06,6.06,0,1,1-6.06,6.06,6.07,6.07,0,0,1,6.06-6.06m0-2a8.06,8.06,0,1,0,8.06,8.06,8.06,8.06,0,0,0-8.06-8.06Z"/><circle class="cls-49" cx="328.88" cy="60.33" r="8.06"/><circle class="cls-49" cx="328.88" cy="36.14" r="8.06"/><path class="cls-49" d="M328.88,6.69a6.06,6.06,0,1,1-6.06,6.06,6.07,6.07,0,0,1,6.06-6.06m0-2a8.06,8.06,0,1,0,8.06,8.06,8.06,8.06,0,0,0-8.06-8.06Z"/><circle class="cls-49" cx="233.12" cy="83.15" r="8.06"/><path class="cls-49" d="M233.12,54.27a6.06,6.06,0,1,1-6.06,6.06,6.07,6.07,0,0,1,6.06-6.06m0-2a8.06,8.06,0,1,0,8.06,8.06,8.06,8.06,0,0,0-8.06-8.06Z"/><circle class="cls-49" cx="233.12" cy="12.76" r="8.06"/><circle class="cls-49" cx="209.18" cy="36.14" r="8.06"/><circle class="cls-49" cx="209.18" cy="83.15" r="8.06"/><circle class="cls-49" cx="209.18" cy="60.33" r="8.06"/><circle class="cls-49" cx="185.24" cy="12.76" r="8.06"/><path class="cls-49" d="M185.24,77a6.06,6.06,0,1,1-6.06,6.06A6.07,6.07,0,0,1,185.24,77m0-2a8.06,8.06,0,1,0,8.06,8.06A8.06,8.06,0,0,0,185.24,75Z"/><circle class="cls-49" cx="281" cy="60.33" r="8.06"/><path class="cls-49" d="M281,30.08a6.06,6.06,0,1,1-6.06,6.06A6.07,6.07,0,0,1,281,30.08m0-2a8.06,8.06,0,1,0,8.06,8.06A8.06,8.06,0,0,0,281,28.08Z"/><circle class="cls-49" cx="281" cy="12.76" r="8.06"/><path class="cls-49" d="M281,76.37a6.06,6.06,0,1,1-6.06,6.06A6.07,6.07,0,0,1,281,76.37m0-2a8.06,8.06,0,1,0,8.06,8.06A8.06,8.06,0,0,0,281,74.37Z"/><path class="cls-49" d="M281,100.36a6.06,6.06,0,1,1-6.06,6.06,6.07,6.07,0,0,1,6.06-6.06m0-2a8.06,8.06,0,1,0,8.06,8.06A8.06,8.06,0,0,0,281,98.36Z"/><circle class="cls-49" cx="304.94" cy="36.14" r="8.06"/><circle class="cls-49" cx="304.94" cy="12.76" r="8.06"/><circle class="cls-49" cx="304.94" cy="82.25" r="8.06"/><path class="cls-49" d="M304.94,100.17a6.06,6.06,0,1,1-6.06,6.06,6.07,6.07,0,0,1,6.06-6.06m0-2a8.06,8.06,0,1,0,8.06,8.06,8.06,8.06,0,0,0-8.06-8.06Z"/><circle class="cls-49" cx="257.06" cy="36.14" r="8.06"/><path class="cls-49" d="M257.06,75.89A6.06,6.06,0,1,1,251,82a6.07,6.07,0,0,1,6.06-6.06m0-2A8.06,8.06,0,1,0,265.12,82a8.06,8.06,0,0,0-8.06-8.06Z"/><rect class="cls-4" x="919.47" y="-146.14" width="51.28" height="82.81"/><g class="cls-73"><rect class="cls-4" x="32.6" y="-699.22" width="1333.27" height="934.48"/></g><g class="cls-74"><rect class="cls-75" x="123" y="21.5" width="114.03" height="74.02"/></g><path class="cls-76" d="M128,27.51a1,1,0,0,1,1-1H231a1,1,0,0,1,1,1v62a1,1,0,0,1-1,1H129a1,1,0,0,1-1-1Z"/><path class="cls-77" d="M114.66,90.52h130.7v8.66a2,2,0,0,1-2,2H116.66a2,2,0,0,1-2-2Z"/><line class="cls-78" x1="208.8" y1="93.18" x2="244.58" y2="93.18"/><g class="cls-79"><rect class="cls-4" x="104.33" y="60.98" width="36.67" height="37.74"/></g><path class="cls-76" d="M109.33,68.38a2.4,2.4,0,0,1,2.39-2.4h21.89a2.39,2.39,0,0,1,2.39,2.4V91.32a2.4,2.4,0,0,1-2.39,2.4H111.72a2.39,2.39,0,0,1-2.39-2.4Z"/><g class="cls-80"><rect class="cls-75" x="108.43" y="48.17" width="28.47" height="22.8"/></g><path class="cls-76" d="M113.43,54a.8.8,0,0,1,.79-.8H131.1a.8.8,0,0,1,.79.8V66H113.43Z"/><g class="cls-81"><rect class="cls-75" x="108.43" y="88.72" width="28.47" height="22.8"/></g><path class="cls-76" d="M113.43,93.72H131.9v12a.8.8,0,0,1-.79.8H114.22a.8.8,0,0,1-.79-.8Z"/><path class="cls-82" d="M156.48,44.26h-12a2.32,2.32,0,1,1,0-4.65h12a2.32,2.32,0,0,1,0,4.65Zm-12-3.74a1.41,1.41,0,1,0,0,2.82h12a1.41,1.41,0,0,0,0-2.82Z"/><circle class="cls-83" cx="163.8" cy="42.02" r="2.29"/><path class="cls-82" d="M209.94,60.42H182a2.32,2.32,0,0,1,0-4.65h27.89a2.32,2.32,0,1,1,0,4.65ZM182,56.68a1.41,1.41,0,0,0,0,2.82h27.89a1.41,1.41,0,0,0,0-2.82Z"/><path class="cls-82" d="M223.2,51.69H172.33a2.32,2.32,0,1,1,0-4.65H223.2a2.32,2.32,0,0,1,0,4.65ZM172.33,48a1.41,1.41,0,1,0,0,2.82H223.2a1.41,1.41,0,0,0,0-2.82Z"/><circle class="cls-83" cx="151.11" cy="57.68" r="2.29"/><circle class="cls-83" cx="145.14" cy="57.68" r="2.29"/><rect class="cls-83" x="142.85" y="63.93" width="26.57" height="3.74" rx="1.87" ry="1.87" transform="translate(312.28 131.59) rotate(-180)"/><path class="cls-82" d="M152.3,73a1.37,1.37,0,1,1-1.37,1.37A1.37,1.37,0,0,1,152.3,73m0-.91a2.29,2.29,0,1,0,2.29,2.29,2.29,2.29,0,0,0-2.29-2.29Z"/><path class="cls-82" d="M159.31,73a1.37,1.37,0,1,1-1.37,1.37A1.37,1.37,0,0,1,159.31,73m0-.91a2.29,2.29,0,1,0,2.29,2.29,2.29,2.29,0,0,0-2.29-2.29Z"/><path class="cls-82" d="M145.14,72.68a1.37,1.37,0,1,1-1.37,1.37,1.37,1.37,0,0,1,1.37-1.37m0-.91a2.29,2.29,0,1,0,2.29,2.29,2.29,2.29,0,0,0-2.29-2.29Z"/><circle class="cls-83" cx="166.7" cy="74.59" r="2.29"/><rect class="cls-83" x="142.85" y="47.7" width="23.51" height="3.74" rx="1.87" ry="1.87" transform="translate(309.22 99.14) rotate(-180)"/><circle class="cls-83" cx="163.06" cy="57.68" r="2.29"/><circle class="cls-83" cx="157.08" cy="57.68" r="2.29"/><circle class="cls-83" cx="175" cy="57.68" r="2.29"/><circle class="cls-83" cx="169.03" cy="57.68" r="2.29"/><rect class="cls-83" x="167.08" y="40.62" width="26.57" height="3.74" rx="1.87" ry="1.87" transform="translate(360.73 84.97) rotate(-180)"/><g class="cls-84"><rect class="cls-75" x="203.02" y="40.17" width="47.34" height="74.02"/></g><path class="cls-76" d="M208,46.18a1,1,0,0,1,1-1h35.35a1,1,0,0,1,1,1v62a1,1,0,0,1-1,1H209a1,1,0,0,1-1-1Z"/><g class="cls-85"><rect class="cls-4" x="203.02" y="88.18" width="47.34" height="26"/></g><g class="cls-86"><rect class="cls-75" x="219.02" y="93.52" width="15.33" height="15.33"/></g><path class="cls-82" d="M229,76.41H217a2.32,2.32,0,1,1,0-4.65h12a2.32,2.32,0,0,1,0,4.65Zm-12-3.74a1.41,1.41,0,1,0,0,2.82h12a1.41,1.41,0,0,0,0-2.82Z"/><rect class="cls-83" x="214.37" y="55.3" width="26.57" height="3.74" rx="1.87" ry="1.87" transform="translate(455.32 114.33) rotate(-180)"/><path class="cls-82" d="M223.82,64.36a1.37,1.37,0,1,1-1.37,1.37,1.37,1.37,0,0,1,1.37-1.37m0-.91a2.29,2.29,0,1,0,2.29,2.29,2.29,2.29,0,0,0-2.29-2.29Z"/><path class="cls-82" d="M230.83,64.36a1.37,1.37,0,1,1-1.37,1.37,1.37,1.37,0,0,1,1.37-1.37m0-.91a2.29,2.29,0,1,0,2.29,2.29,2.29,2.29,0,0,0-2.29-2.29Z"/><path class="cls-82" d="M216.66,64.05a1.37,1.37,0,1,1-1.37,1.37,1.37,1.37,0,0,1,1.37-1.37m0-.91a2.29,2.29,0,1,0,2.29,2.29,2.29,2.29,0,0,0-2.29-2.29Z"/><circle class="cls-83" cx="238.22" cy="65.96" r="2.29"/><circle class="cls-83" cx="236.66" cy="73.83" r="2.29"/><rect class="cls-75" x="110.69" y="71.1" width="23.51" height="3.74" rx="1.87" ry="1.87" transform="translate(244.88 145.93) rotate(-180)"/><path class="cls-87" d="M125.66,82.24h-12a2.32,2.32,0,1,1,0-4.65h12a2.32,2.32,0,0,1,0,4.65Zm-12-3.74a1.41,1.41,0,1,0,0,2.82h12a1.41,1.41,0,0,0,0-2.82Z"/><rect class="cls-4" x="134.33" y="89.5" width="73" height="10"/></svg>