<svg id="Layer_1" data-name="Layer 1" xmlns="http://www.w3.org/2000/svg" xmlns:xlink="http://www.w3.org/1999/xlink" viewBox="0 0 343 125"><defs><style>.cls-1,.cls-2,.cls-52{fill:none;}.cls-2{clip-rule:evenodd;}.cls-3{fill:#152935;}.cls-4{fill:#4178be;}.cls-5{clip-path:url(#clip-path);}.cls-6{clip-path:url(#clip-path-2);}.cls-7{clip-path:url(#clip-path-3);}.cls-8{clip-path:url(#clip-path-4);}.cls-9{clip-path:url(#clip-path-5);}.cls-10{clip-path:url(#clip-path-6);}.cls-11{clip-path:url(#clip-path-7);}.cls-12{clip-path:url(#clip-path-8);}.cls-13{clip-path:url(#clip-path-9);}.cls-14{clip-path:url(#clip-path-10);}.cls-15{clip-path:url(#clip-path-11);}.cls-16{clip-path:url(#clip-path-12);}.cls-17{clip-path:url(#clip-path-13);}.cls-18{clip-path:url(#clip-path-14);}.cls-19{clip-path:url(#clip-path-15);}.cls-20{clip-path:url(#clip-path-16);}.cls-21{clip-path:url(#clip-path-17);}.cls-22{clip-path:url(#clip-path-18);}.cls-23{clip-path:url(#clip-path-19);}.cls-24{clip-path:url(#clip-path-20);}.cls-25{clip-path:url(#clip-path-21);}.cls-26{clip-path:url(#clip-path-22);}.cls-27{clip-path:url(#clip-path-23);}.cls-28{clip-path:url(#clip-path-24);}.cls-29{clip-path:url(#clip-path-25);}.cls-30{clip-path:url(#clip-path-26);}.cls-31{clip-path:url(#clip-path-27);}.cls-32{clip-path:url(#clip-path-28);}.cls-33{clip-path:url(#clip-path-29);}.cls-34{clip-path:url(#clip-path-30);}.cls-35{clip-path:url(#clip-path-31);}.cls-36{clip-path:url(#clip-path-32);}.cls-37{clip-path:url(#clip-path-33);}.cls-38{clip-path:url(#clip-path-34);}.cls-39{clip-path:url(#clip-path-35);}.cls-40{clip-path:url(#clip-path-36);}.cls-41{clip-path:url(#clip-path-37);}.cls-42{clip-path:url(#clip-path-38);}.cls-43{clip-path:url(#clip-path-39);}.cls-44{clip-path:url(#clip-path-40);}.cls-45{clip-path:url(#clip-path-41);}.cls-46{clip-path:url(#clip-path-42);}.cls-47{clip-path:url(#clip-path-43);}.cls-48{clip-path:url(#clip-path-44);}.cls-49{clip-path:url(#clip-path-45);}.cls-50{opacity:0.43;}.cls-51{fill:#5596e6;}.cls-52{stroke:#5596e6;stroke-miterlimit:10;stroke-width:2px;}.cls-53{clip-path:url(#clip-path-46);}.cls-54{clip-path:url(#clip-path-47);}.cls-55{fill:#ecf0f1;}.cls-56{clip-path:url(#clip-path-48);}.cls-57{clip-path:url(#clip-path-49);}.cls-58{clip-path:url(#clip-path-50);}.cls-59{fill:#ed7161;}.cls-60{clip-path:url(#clip-path-52);}.cls-61{fill:#f0c419;}.cls-62{clip-path:url(#clip-path-54);}.cls-63{fill:#4fba6f;}.cls-64{clip-path:url(#clip-path-56);}.cls-65{fill:#95a5a5;}.cls-66{clip-path:url(#clip-path-58);}.cls-67{fill:#bdc3c7;}.cls-68{clip-path:url(#clip-path-60);}.cls-69{clip-path:url(#clip-path-62);}.cls-70{clip-path:url(#clip-path-64);}.cls-71{clip-path:url(#clip-path-66);}.cls-72{clip-path:url(#clip-path-68);}.cls-73{clip-path:url(#clip-path-70);}.cls-74{clip-path:url(#clip-path-72);}.cls-75{clip-path:url(#clip-path-74);}.cls-76{clip-path:url(#clip-path-76);}.cls-77{fill:#562f72;}.cls-78{clip-path:url(#clip-path-78);}.cls-79{clip-path:url(#clip-path-79);}.cls-80{clip-path:url(#clip-path-80);}.cls-81{clip-path:url(#clip-path-81);}.cls-82{clip-path:url(#clip-path-82);}.cls-83{clip-path:url(#clip-path-83);}.cls-84{clip-path:url(#clip-path-84);}</style><clipPath id="clip-path"><rect class="cls-1" x="1.43" y="319.78" width="344.19" height="126.25"/></clipPath><clipPath id="clip-path-2"><rect class="cls-1" x="125.43" y="346.28" width="94" height="75"/></clipPath><clipPath id="clip-path-3"><rect class="cls-1" x="125.43" y="346.28" width="94" height="15.52"/></clipPath><clipPath id="clip-path-4"><path class="cls-2" d="M137.18,354a3.92,3.92,0,1,1-3.92-3.88,3.9,3.9,0,0,1,3.92,3.88"/></clipPath><clipPath id="clip-path-5"><path class="cls-2" d="M148.93,354a3.92,3.92,0,1,1-3.92-3.88,3.9,3.9,0,0,1,3.92,3.88"/></clipPath><clipPath id="clip-path-6"><path class="cls-2" d="M160.68,354a3.92,3.92,0,1,1-3.92-3.88,3.9,3.9,0,0,1,3.92,3.88"/></clipPath><clipPath id="clip-path-7"><rect class="cls-1" x="125.43" y="361.79" width="9.14" height="59.48"/></clipPath><clipPath id="clip-path-8"><path class="cls-2" d="M130.65,369.55a1.29,1.29,0,1,0,0-2.59h-1.31a1.29,1.29,0,1,0,0,2.59Z"/></clipPath><clipPath id="clip-path-9"><path class="cls-2" d="M130.65,372.14h-1.31a1.29,1.29,0,1,0,0,2.59h1.31a1.29,1.29,0,1,0,0-2.59"/></clipPath><clipPath id="clip-path-10"><path class="cls-2" d="M130.65,377.31h-1.31a1.29,1.29,0,1,0,0,2.59h1.31a1.29,1.29,0,1,0,0-2.59"/></clipPath><clipPath id="clip-path-11"><path class="cls-2" d="M130.65,382.48h-1.31a1.29,1.29,0,1,0,0,2.59h1.31a1.29,1.29,0,1,0,0-2.59"/></clipPath><clipPath id="clip-path-12"><path class="cls-2" d="M130.65,387.66h-1.31a1.29,1.29,0,1,0,0,2.59h1.31a1.29,1.29,0,1,0,0-2.59"/></clipPath><clipPath id="clip-path-13"><path class="cls-2" d="M130.65,392.83h-1.31a1.29,1.29,0,1,0,0,2.59h1.31a1.29,1.29,0,1,0,0-2.59"/></clipPath><clipPath id="clip-path-14"><path class="cls-2" d="M130.65,398h-1.31a1.29,1.29,0,1,0,0,2.59h1.31a1.29,1.29,0,1,0,0-2.59"/></clipPath><clipPath id="clip-path-15"><path class="cls-2" d="M130.65,403.17h-1.31a1.29,1.29,0,1,0,0,2.59h1.31a1.29,1.29,0,1,0,0-2.59"/></clipPath><clipPath id="clip-path-16"><path class="cls-2" d="M130.65,408.35h-1.31a1.29,1.29,0,1,0,0,2.59h1.31a1.29,1.29,0,1,0,0-2.59"/></clipPath><clipPath id="clip-path-17"><path class="cls-2" d="M130.65,413.52h-1.31a1.29,1.29,0,1,0,0,2.59h1.31a1.29,1.29,0,1,0,0-2.59"/></clipPath><clipPath id="clip-path-18"><path class="cls-2" d="M167.95,395h-.38c-6.48,0-11.73-5-11.73-11.1s5.25-11.1,11.73-11.1,11.73,5,11.73,11.1a10.77,10.77,0,0,1-3.4,7.81l-8,9.42Z"/></clipPath><clipPath id="clip-path-19"><path class="cls-2" d="M186,405.94h.48c8.32,0,15.07-6.38,15.07-14.25s-6.75-14.25-15.07-14.25-15.07,6.38-15.07,14.25a13.83,13.83,0,0,0,4.36,10L186,413.82Z"/></clipPath><clipPath id="clip-path-20"><ellipse class="cls-1" cx="181.12" cy="392.16" rx="1.94" ry="1.84"/></clipPath><clipPath id="clip-path-21"><ellipse class="cls-1" cx="186.95" cy="392.16" rx="1.94" ry="1.84"/></clipPath><clipPath id="clip-path-22"><ellipse class="cls-1" cx="192.79" cy="392.16" rx="1.94" ry="1.84"/></clipPath><clipPath id="clip-path-23"><rect class="cls-1" x="766.58" y="317.08" width="343.66" height="125.76"/></clipPath><clipPath id="clip-path-24"><rect class="cls-1" x="887.58" y="344.08" width="94" height="75"/></clipPath><clipPath id="clip-path-25"><rect class="cls-1" x="887.58" y="344.08" width="94" height="15.52"/></clipPath><clipPath id="clip-path-26"><path class="cls-2" d="M899.33,351.84a3.92,3.92,0,1,1-3.92-3.88,3.9,3.9,0,0,1,3.92,3.88"/></clipPath><clipPath id="clip-path-27"><path class="cls-2" d="M911.08,351.84a3.92,3.92,0,1,1-3.92-3.88,3.9,3.9,0,0,1,3.92,3.88"/></clipPath><clipPath id="clip-path-28"><path class="cls-2" d="M922.83,351.84a3.92,3.92,0,1,1-3.92-3.88,3.9,3.9,0,0,1,3.92,3.88"/></clipPath><clipPath id="clip-path-29"><rect class="cls-1" x="887.58" y="359.6" width="9.14" height="59.48"/></clipPath><clipPath id="clip-path-30"><path class="cls-2" d="M892.81,367.36a1.29,1.29,0,1,0,0-2.59H891.5a1.29,1.29,0,1,0,0,2.59Z"/></clipPath><clipPath id="clip-path-31"><path class="cls-2" d="M892.81,369.94H891.5a1.29,1.29,0,1,0,0,2.59h1.31a1.29,1.29,0,1,0,0-2.59"/></clipPath><clipPath id="clip-path-32"><path class="cls-2" d="M892.81,375.11H891.5a1.29,1.29,0,1,0,0,2.59h1.31a1.29,1.29,0,1,0,0-2.59"/></clipPath><clipPath id="clip-path-33"><path class="cls-2" d="M892.81,380.29H891.5a1.29,1.29,0,1,0,0,2.59h1.31a1.29,1.29,0,1,0,0-2.59"/></clipPath><clipPath id="clip-path-34"><path class="cls-2" d="M892.81,385.46H891.5a1.29,1.29,0,1,0,0,2.59h1.31a1.29,1.29,0,1,0,0-2.59"/></clipPath><clipPath id="clip-path-35"><path class="cls-2" d="M892.81,390.63H891.5a1.29,1.29,0,1,0,0,2.59h1.31a1.29,1.29,0,1,0,0-2.59"/></clipPath><clipPath id="clip-path-36"><path class="cls-2" d="M892.81,395.8H891.5a1.29,1.29,0,1,0,0,2.59h1.31a1.29,1.29,0,1,0,0-2.59"/></clipPath><clipPath id="clip-path-37"><path class="cls-2" d="M892.81,401H891.5a1.29,1.29,0,1,0,0,2.59h1.31a1.29,1.29,0,1,0,0-2.59"/></clipPath><clipPath id="clip-path-38"><path class="cls-2" d="M892.81,406.15H891.5a1.29,1.29,0,1,0,0,2.59h1.31a1.29,1.29,0,1,0,0-2.59"/></clipPath><clipPath id="clip-path-39"><path class="cls-2" d="M892.81,411.32H891.5a1.29,1.29,0,1,0,0,2.59h1.31a1.29,1.29,0,1,0,0-2.59"/></clipPath><clipPath id="clip-path-40"><polygon class="cls-2" points="919.12 403.72 934.78 403.84 942.63 390.25 911.78 389.95 919.12 403.72"/></clipPath><clipPath id="clip-path-41"><polygon class="cls-2" points="911.32 390.28 919.04 403.9 934.68 403.87 919.2 376.39 911.32 390.28"/></clipPath><clipPath id="clip-path-42"><polygon class="cls-2" points="952.05 372.44 936.38 372.32 928.54 385.91 959.38 386.21 952.05 372.44"/></clipPath><clipPath id="clip-path-43"><polygon class="cls-2" points="959.85 385.88 952.12 372.25 936.48 372.29 951.96 399.77 959.85 385.88"/></clipPath><clipPath id="clip-path-44"><rect class="cls-1" x="-1.08" y="-0.34" width="345.33" height="126.23"/></clipPath><clipPath id="clip-path-45"><rect class="cls-1" x="382.92" y="-0.92" width="343.66" height="124.43"/></clipPath><clipPath id="clip-path-46"><rect class="cls-1" x="127.22" y="25.86" width="94" height="75"/></clipPath><clipPath id="clip-path-47"><rect class="cls-1" x="-1029.78" y="-507.14" width="1440" height="1024"/></clipPath><clipPath id="clip-path-48"><rect class="cls-3" x="127.22" y="25.86" width="94" height="15.52"/></clipPath><clipPath id="clip-path-49"><rect class="cls-3" x="-1029.78" y="-507.14" width="1440" height="1024"/></clipPath><clipPath id="clip-path-50"><path class="cls-2" d="M139,33.62a3.92,3.92,0,1,1-3.92-3.88A3.9,3.9,0,0,1,139,33.62"/></clipPath><clipPath id="clip-path-52"><path class="cls-2" d="M150.72,33.62a3.92,3.92,0,1,1-3.92-3.88,3.9,3.9,0,0,1,3.92,3.88"/></clipPath><clipPath id="clip-path-54"><path class="cls-2" d="M162.47,33.62a3.92,3.92,0,1,1-3.92-3.88,3.9,3.9,0,0,1,3.92,3.88"/></clipPath><clipPath id="clip-path-56"><rect class="cls-1" x="127.22" y="41.37" width="9.14" height="59.48"/></clipPath><clipPath id="clip-path-58"><path class="cls-2" d="M132.44,49.13a1.29,1.29,0,1,0,0-2.59h-1.31a1.29,1.29,0,1,0,0,2.59Z"/></clipPath><clipPath id="clip-path-60"><path class="cls-2" d="M132.44,51.72h-1.31a1.29,1.29,0,1,0,0,2.59h1.31a1.29,1.29,0,1,0,0-2.59"/></clipPath><clipPath id="clip-path-62"><path class="cls-2" d="M132.44,56.89h-1.31a1.29,1.29,0,1,0,0,2.59h1.31a1.29,1.29,0,1,0,0-2.59"/></clipPath><clipPath id="clip-path-64"><path class="cls-2" d="M132.44,62.06h-1.31a1.29,1.29,0,1,0,0,2.59h1.31a1.29,1.29,0,1,0,0-2.59"/></clipPath><clipPath id="clip-path-66"><path class="cls-2" d="M132.44,67.24h-1.31a1.29,1.29,0,1,0,0,2.59h1.31a1.29,1.29,0,1,0,0-2.59"/></clipPath><clipPath id="clip-path-68"><path class="cls-2" d="M132.44,72.41h-1.31a1.29,1.29,0,1,0,0,2.59h1.31a1.29,1.29,0,1,0,0-2.59"/></clipPath><clipPath id="clip-path-70"><path class="cls-2" d="M132.44,77.58h-1.31a1.29,1.29,0,1,0,0,2.59h1.31a1.29,1.29,0,1,0,0-2.59"/></clipPath><clipPath id="clip-path-72"><path class="cls-2" d="M132.44,82.75h-1.31a1.29,1.29,0,1,0,0,2.59h1.31a1.29,1.29,0,1,0,0-2.59"/></clipPath><clipPath id="clip-path-74"><path class="cls-2" d="M132.44,87.93h-1.31a1.29,1.29,0,1,0,0,2.59h1.31a1.29,1.29,0,1,0,0-2.59"/></clipPath><clipPath id="clip-path-76"><path class="cls-2" d="M132.44,93.1h-1.31a1.29,1.29,0,1,0,0,2.59h1.31a1.29,1.29,0,1,0,0-2.59"/></clipPath><clipPath id="clip-path-78"><rect class="cls-3" x="524.05" y="332.86" width="60.84" height="98.25"/></clipPath><clipPath id="clip-path-79"><rect class="cls-1" x="509.88" y="186.13" width="94" height="75"/></clipPath><clipPath id="clip-path-80"><rect class="cls-4" x="509.88" y="186.13" width="94" height="15.52"/></clipPath><clipPath id="clip-path-81"><path class="cls-2" d="M521.63,193.89a3.92,3.92,0,1,1-3.92-3.88,3.9,3.9,0,0,1,3.92,3.88"/></clipPath><clipPath id="clip-path-82"><path class="cls-2" d="M533.38,193.89a3.92,3.92,0,1,1-3.92-3.88,3.9,3.9,0,0,1,3.92,3.88"/></clipPath><clipPath id="clip-path-83"><path class="cls-2" d="M545.13,193.89a3.92,3.92,0,1,1-3.92-3.88,3.9,3.9,0,0,1,3.92,3.88"/></clipPath><clipPath id="clip-path-84"><rect class="cls-4" x="919.47" y="15.86" width="51.28" height="82.81"/></clipPath></defs><title>Subheros</title><g class="cls-48"><rect class="cls-4" x="-8.96" y="-4.55" width="361.1" height="134.64"/></g><g class="cls-50"><polygon class="cls-51" points="29.55 46.05 13.7 30.2 29.55 30.2 29.55 46.05"/><rect class="cls-52" x="99.86" y="30.2" width="15.86" height="15.86" rx="1" ry="1"/><polygon class="cls-51" points="137.26 46.05 121.4 46.05 121.4 30.2 137.26 46.05"/><rect class="cls-52" x="35.24" y="30.2" width="15.86" height="15.86" rx="1" ry="1"/><rect class="cls-51" x="56.78" y="30.2" width="15.86" height="15.86"/><path class="cls-52" d="M93.37,46.05H79.12a.8.8,0,0,1-.8-.8L93.37,30.2a.8.8,0,0,1,.8.8V45.25A.8.8,0,0,1,93.37,46.05Z"/><rect class="cls-52" x="142.94" y="30.2" width="15.86" height="15.86" rx="1" ry="1"/><rect class="cls-51" x="13.7" y="6.4" width="15.86" height="15.86"/><rect class="cls-52" x="99.86" y="6.4" width="15.86" height="15.86" rx="1" ry="1"/><rect class="cls-51" x="121.4" y="6.4" width="15.86" height="15.86"/><rect class="cls-52" x="35.24" y="6.4" width="15.86" height="15.86" rx="1" ry="1"/><path class="cls-52" d="M93.37,22.26,78.32,7.2a.8.8,0,0,1,.8-.8H93.37a.8.8,0,0,1,.8.8V21.45A.8.8,0,0,1,93.37,22.26Z"/><rect class="cls-52" x="164.48" y="6.4" width="15.86" height="15.86" rx="1" ry="1"/><rect class="cls-52" x="13.7" y="53.99" width="15.86" height="15.86"/><path class="cls-51" d="M100.66,69.85c-.44,0-.8-15.05-.8-15.05a.8.8,0,0,1,.8-.8h14.25a.8.8,0,0,1,.8.8Z"/><rect class="cls-51" x="121.4" y="53.99" width="15.86" height="15.86"/><polygon class="cls-51" points="72.64 69.85 56.78 69.85 72.64 53.99 72.64 69.85"/><path class="cls-52" d="M158,69.85,142.94,54.79a.8.8,0,0,1,.8-.8H158a.8.8,0,0,1,.8.8V69A.8.8,0,0,1,158,69.85Z"/><polygon class="cls-51" points="13.84 93.64 13.84 77.78 29.7 77.78 13.84 93.64"/><rect class="cls-52" x="100" y="77.79" width="15.86" height="15.86" rx="1" ry="1"/><rect class="cls-51" x="121.54" y="77.79" width="15.86" height="15.86"/><rect class="cls-52" x="35.38" y="77.79" width="15.86" height="15.86" rx="1" ry="1"/><polygon class="cls-51" points="56.92 93.64 56.92 77.78 72.78 77.78 56.92 93.64"/><rect class="cls-52" x="78.46" y="77.79" width="15.86" height="15.86" rx="1" ry="1"/><path class="cls-52" d="M158.14,93.64H143.89a.8.8,0,0,1-.8-.8l15.05-15.05a.8.8,0,0,1,.8.8V92.84A.8.8,0,0,1,158.14,93.64Z"/><rect class="cls-52" x="164.62" y="77.79" width="15.86" height="15.86" rx="1" ry="1"/><path class="cls-52" d="M50.43,117.44,35.38,102.38a.8.8,0,0,1,.8-.8H50.43a.8.8,0,0,1,.8.8v14.25A.8.8,0,0,1,50.43,117.44Z"/><rect class="cls-51" x="56.92" y="101.58" width="15.86" height="15.86"/><rect class="cls-52" x="78.46" y="101.58" width="15.86" height="15.86" rx="1" ry="1"/><rect class="cls-52" x="143.08" y="101.58" width="15.86" height="15.86" rx="1" ry="1"/><path class="cls-52" d="M165.43,117.44a.8.8,0,0,1-.8-.8V102.38a.8.8,0,0,1,.8-.8h14.25a.8.8,0,0,1,.8.8Z"/><rect class="cls-52" x="251.61" y="77.87" width="15.86" height="15.86" rx="1" ry="1" transform="translate(519.08 171.59) rotate(180)"/><polygon class="cls-51" points="230.07 77.87 245.93 77.87 245.93 93.72 230.07 77.87"/><rect class="cls-52" x="316.23" y="77.87" width="15.86" height="15.86" rx="1" ry="1" transform="translate(648.33 171.59) rotate(180)"/><rect class="cls-51" x="294.69" y="77.87" width="15.86" height="15.86" transform="translate(605.25 171.59) rotate(180)"/><path class="cls-52" d="M274,77.87h14.25a.8.8,0,0,1,.8.8L274,93.72a.8.8,0,0,1-.8-.8V78.67A.8.8,0,0,1,274,77.87Z"/><rect class="cls-52" x="208.53" y="77.87" width="15.86" height="15.86" rx="1" ry="1" transform="translate(432.92 171.59) rotate(180)"/><rect class="cls-52" x="251.61" y="101.66" width="15.86" height="15.86" rx="1" ry="1" transform="translate(519.08 219.18) rotate(180)"/><rect class="cls-51" x="230.07" y="101.66" width="15.86" height="15.86" transform="translate(476 219.18) rotate(180)"/><rect class="cls-51" x="294.69" y="101.66" width="15.86" height="15.86" transform="translate(605.25 219.18) rotate(180)"/><path class="cls-52" d="M274,101.66,289,116.71a.8.8,0,0,1-.8.8H274a.8.8,0,0,1-.8-.8V102.47A.8.8,0,0,1,274,101.66Z"/><rect class="cls-52" x="186.99" y="101.66" width="15.86" height="15.86" rx="1" ry="1" transform="translate(389.84 219.18) rotate(180)"/><path class="cls-51" d="M266.67,54.07c.44,0,.8,15.05.8,15.05a.8.8,0,0,1-.8.8H252.42a.8.8,0,0,1-.8-.8Z"/><rect class="cls-51" x="230.07" y="54.07" width="15.86" height="15.86" transform="translate(476 124) rotate(180)"/><polygon class="cls-51" points="294.69 54.07 310.55 54.07 294.69 69.93 294.69 54.07"/><rect class="cls-52" x="273.15" y="54.07" width="15.86" height="15.86" rx="1" ry="1" transform="translate(562.16 124) rotate(180)"/><rect class="cls-52" x="186.99" y="54.07" width="15.86" height="15.86" rx="1" ry="1" transform="translate(389.84 124) rotate(180)"/><rect class="cls-52" x="251.47" y="30.28" width="15.86" height="15.86" rx="1" ry="1" transform="translate(518.8 76.41) rotate(180)"/><rect class="cls-51" x="229.93" y="30.28" width="15.86" height="15.86" transform="translate(475.72 76.41) rotate(180)"/><rect class="cls-52" x="316.09" y="30.28" width="15.86" height="15.86" rx="1" ry="1" transform="translate(648.05 76.41) rotate(180)"/><polygon class="cls-51" points="310.41 30.28 310.41 46.13 294.55 46.13 310.41 30.28"/><path class="cls-52" d="M209.19,30.28h14.25a.8.8,0,0,1,.8.8L209.19,46.13a.8.8,0,0,1-.8-.8V31.08A.8.8,0,0,1,209.19,30.28Z"/><rect class="cls-52" x="186.85" y="30.28" width="15.86" height="15.86" rx="1" ry="1" transform="translate(389.55 76.41) rotate(180)"/><path class="cls-52" d="M316.9,6.48,332,21.53a.8.8,0,0,1-.8.8H316.9a.8.8,0,0,1-.8-.8V7.29A.8.8,0,0,1,316.9,6.48Z"/><rect class="cls-51" x="294.55" y="6.48" width="15.86" height="15.86" transform="translate(604.96 28.82) rotate(180)"/><rect class="cls-52" x="273.01" y="6.48" width="15.86" height="15.86" rx="1" ry="1" transform="translate(561.88 28.82) rotate(180)"/><rect class="cls-52" x="208.39" y="6.48" width="15.86" height="15.86" rx="1" ry="1" transform="translate(432.64 28.82) rotate(180)"/><path class="cls-52" d="M201.9,6.48a.8.8,0,0,1,.8.8V21.53a.8.8,0,0,1-.8.8H187.65a.8.8,0,0,1-.8-.8Z"/></g><g class="cls-53"><g class="cls-54"><rect class="cls-55" x="122.22" y="20.86" width="104" height="85"/></g></g><rect class="cls-3" x="127.22" y="25.86" width="94" height="15.52"/><g class="cls-56"><rect class="cls-3" x="-1029.78" y="-507.14" width="1440" height="1024"/><g class="cls-57"><rect class="cls-3" x="122.22" y="20.86" width="104" height="25.52"/></g></g><g class="cls-58"><g class="cls-54"><rect class="cls-59" x="126.14" y="24.74" width="17.83" height="17.76"/></g></g><g class="cls-60"><g class="cls-54"><rect class="cls-61" x="137.89" y="24.74" width="17.83" height="17.76"/></g></g><g class="cls-62"><g class="cls-54"><rect class="cls-63" x="149.64" y="24.74" width="17.83" height="17.76"/></g></g><g class="cls-64"><g class="cls-54"><rect class="cls-65" x="122.22" y="36.37" width="19.14" height="69.48"/></g></g><g class="cls-66"><g class="cls-54"><rect class="cls-67" x="124.83" y="41.55" width="13.92" height="12.59"/></g></g><g class="cls-68"><g class="cls-54"><rect class="cls-67" x="124.83" y="46.72" width="13.92" height="12.59"/></g></g><g class="cls-69"><g class="cls-54"><rect class="cls-67" x="124.83" y="51.89" width="13.92" height="12.59"/></g></g><g class="cls-70"><g class="cls-54"><rect class="cls-67" x="124.83" y="57.06" width="13.92" height="12.59"/></g></g><g class="cls-71"><g class="cls-54"><rect class="cls-67" x="124.83" y="62.24" width="13.92" height="12.59"/></g></g><g class="cls-72"><g class="cls-54"><rect class="cls-67" x="124.83" y="67.41" width="13.92" height="12.59"/></g></g><g class="cls-73"><g class="cls-54"><rect class="cls-67" x="124.83" y="72.58" width="13.92" height="12.59"/></g></g><g class="cls-74"><g class="cls-54"><rect class="cls-67" x="124.83" y="77.75" width="13.92" height="12.59"/></g></g><g class="cls-75"><g class="cls-54"><rect class="cls-67" x="124.83" y="82.93" width="13.92" height="12.59"/></g></g><g class="cls-76"><g class="cls-54"><rect class="cls-67" x="124.83" y="88.1" width="13.92" height="12.59"/></g></g><rect class="cls-77" x="142.91" y="46.78" width="53.67" height="3.35" rx="1.67" ry="1.67"/><rect class="cls-77" x="142.91" y="53.75" width="25" height="3.35" rx="1.67" ry="1.67"/><rect class="cls-77" x="162.98" y="60.99" width="25" height="3.35" rx="1.67" ry="1.67"/><rect class="cls-77" x="170.23" y="53.75" width="14.75" height="3.35" rx="1.67" ry="1.67"/><rect class="cls-77" x="142.91" y="60.99" width="17.42" height="3.35" rx="1.67" ry="1.67"/><rect class="cls-77" x="142.91" y="67.68" width="46.84" height="3.35" rx="1.67" ry="1.67"/><rect class="cls-77" x="142.91" y="74.65" width="25" height="3.35" rx="1.67" ry="1.67"/><rect class="cls-77" x="170.93" y="74.65" width="14.75" height="3.35" rx="1.67" ry="1.67"/><rect class="cls-77" x="142.91" y="81.9" width="17.42" height="3.35" rx="1.67" ry="1.67"/><rect class="cls-3" x="524.05" y="332.86" width="60.84" height="98.25"/><g class="cls-78"><rect class="cls-3" x="-528.2" y="-323.36" width="1581.89" height="1108.74"/></g><rect class="cls-4" x="509.88" y="186.13" width="94" height="15.52"/><g class="cls-80"><rect class="cls-4" x="-647.12" y="-346.87" width="1440" height="1024"/></g><rect class="cls-4" x="919.47" y="15.86" width="51.28" height="82.81"/><g class="cls-84"><rect class="cls-4" x="32.6" y="-537.22" width="1333.27" height="934.48"/></g></svg>