<svg id="Layer_1" data-name="Layer 1" xmlns="http://www.w3.org/2000/svg" xmlns:xlink="http://www.w3.org/1999/xlink" viewBox="0 0 343 125"><defs><style>.cls-1,.cls-2{fill:none;}.cls-2{clip-rule:evenodd;}.cls-3{fill:#4178be;}.cls-4{fill:#152935;}.cls-5{clip-path:url(#clip-path);}.cls-6{clip-path:url(#clip-path-2);}.cls-7{clip-path:url(#clip-path-3);}.cls-8{clip-path:url(#clip-path-4);}.cls-9{clip-path:url(#clip-path-5);}.cls-10{clip-path:url(#clip-path-6);}.cls-11{clip-path:url(#clip-path-7);}.cls-12{clip-path:url(#clip-path-8);}.cls-13{clip-path:url(#clip-path-9);}.cls-14{clip-path:url(#clip-path-10);}.cls-15{clip-path:url(#clip-path-11);}.cls-16{clip-path:url(#clip-path-12);}.cls-17{clip-path:url(#clip-path-13);}.cls-18{clip-path:url(#clip-path-14);}.cls-19{clip-path:url(#clip-path-15);}.cls-20{clip-path:url(#clip-path-16);}.cls-21{clip-path:url(#clip-path-17);}.cls-22{clip-path:url(#clip-path-18);}.cls-23{clip-path:url(#clip-path-19);}.cls-24{clip-path:url(#clip-path-20);}.cls-25{clip-path:url(#clip-path-21);}.cls-26{clip-path:url(#clip-path-22);}.cls-27{clip-path:url(#clip-path-23);}.cls-28{clip-path:url(#clip-path-24);}.cls-29{clip-path:url(#clip-path-25);}.cls-30{clip-path:url(#clip-path-26);}.cls-31{clip-path:url(#clip-path-27);}.cls-32{clip-path:url(#clip-path-28);}.cls-33{clip-path:url(#clip-path-29);}.cls-34{clip-path:url(#clip-path-30);}.cls-35{clip-path:url(#clip-path-31);}.cls-36{clip-path:url(#clip-path-32);}.cls-37{clip-path:url(#clip-path-33);}.cls-38{clip-path:url(#clip-path-34);}.cls-39{clip-path:url(#clip-path-35);}.cls-40{clip-path:url(#clip-path-36);}.cls-41{clip-path:url(#clip-path-37);}.cls-42{clip-path:url(#clip-path-38);}.cls-43{clip-path:url(#clip-path-39);}.cls-44{clip-path:url(#clip-path-40);}.cls-45{clip-path:url(#clip-path-41);}.cls-46{clip-path:url(#clip-path-42);}.cls-47{clip-path:url(#clip-path-43);}.cls-48{clip-path:url(#clip-path-44);}.cls-49{clip-path:url(#clip-path-45);}.cls-50{clip-path:url(#clip-path-46);}.cls-51,.cls-54{isolation:isolate;}.cls-52{clip-path:url(#clip-path-47);}.cls-53{clip-path:url(#clip-path-48);}.cls-54,.cls-66{opacity:0.25;}.cls-55{clip-path:url(#clip-path-49);}.cls-56{clip-path:url(#clip-path-50);}.cls-57{clip-path:url(#clip-path-51);}.cls-58{fill:#fff;}.cls-59{clip-path:url(#clip-path-52);}.cls-60{clip-path:url(#clip-path-53);}.cls-61{clip-path:url(#clip-path-54);}.cls-62{clip-path:url(#clip-path-55);}.cls-63{clip-path:url(#clip-path-56);}.cls-64{clip-path:url(#clip-path-57);}.cls-65{clip-path:url(#clip-path-58);}.cls-66{fill:#5596e6;}.cls-67{clip-path:url(#clip-path-59);}.cls-68{clip-path:url(#clip-path-60);}.cls-69{fill:#ecf0f1;}.cls-70{fill:#41d6c3;fill-rule:evenodd;}</style><clipPath id="clip-path"><rect class="cls-1" x="-762.57" y="322.78" width="344.19" height="126.25"/></clipPath><clipPath id="clip-path-2"><rect class="cls-1" x="-638.57" y="349.28" width="94" height="75"/></clipPath><clipPath id="clip-path-3"><rect class="cls-1" x="-638.57" y="349.28" width="94" height="15.52"/></clipPath><clipPath id="clip-path-4"><path class="cls-2" d="M-626.82,357a3.9,3.9,0,0,1-3.92,3.88,3.9,3.9,0,0,1-3.92-3.88,3.9,3.9,0,0,1,3.92-3.88,3.9,3.9,0,0,1,3.92,3.88"/></clipPath><clipPath id="clip-path-5"><path class="cls-2" d="M-615.07,357a3.9,3.9,0,0,1-3.92,3.88,3.9,3.9,0,0,1-3.92-3.88,3.9,3.9,0,0,1,3.92-3.88,3.9,3.9,0,0,1,3.92,3.88"/></clipPath><clipPath id="clip-path-6"><path class="cls-2" d="M-603.32,357a3.9,3.9,0,0,1-3.92,3.88,3.9,3.9,0,0,1-3.92-3.88,3.9,3.9,0,0,1,3.92-3.88,3.9,3.9,0,0,1,3.92,3.88"/></clipPath><clipPath id="clip-path-7"><rect class="cls-1" x="-638.57" y="364.79" width="9.14" height="59.48"/></clipPath><clipPath id="clip-path-8"><path class="cls-2" d="M-633.35,372.55a1.3,1.3,0,0,0,1.31-1.29,1.3,1.3,0,0,0-1.31-1.29h-1.31a1.3,1.3,0,0,0-1.31,1.29,1.3,1.3,0,0,0,1.31,1.29Z"/></clipPath><clipPath id="clip-path-9"><path class="cls-2" d="M-633.35,375.14h-1.31a1.3,1.3,0,0,0-1.31,1.29,1.3,1.3,0,0,0,1.31,1.29h1.31a1.3,1.3,0,0,0,1.31-1.29,1.3,1.3,0,0,0-1.31-1.29"/></clipPath><clipPath id="clip-path-10"><path class="cls-2" d="M-633.35,380.31h-1.31a1.3,1.3,0,0,0-1.31,1.29,1.3,1.3,0,0,0,1.31,1.29h1.31a1.3,1.3,0,0,0,1.31-1.29,1.3,1.3,0,0,0-1.31-1.29"/></clipPath><clipPath id="clip-path-11"><path class="cls-2" d="M-633.35,385.48h-1.31a1.3,1.3,0,0,0-1.31,1.29,1.3,1.3,0,0,0,1.31,1.29h1.31a1.3,1.3,0,0,0,1.31-1.29,1.3,1.3,0,0,0-1.31-1.29"/></clipPath><clipPath id="clip-path-12"><path class="cls-2" d="M-633.35,390.66h-1.31a1.3,1.3,0,0,0-1.31,1.29,1.3,1.3,0,0,0,1.31,1.29h1.31a1.3,1.3,0,0,0,1.31-1.29,1.3,1.3,0,0,0-1.31-1.29"/></clipPath><clipPath id="clip-path-13"><path class="cls-2" d="M-633.35,395.83h-1.31a1.3,1.3,0,0,0-1.31,1.29,1.3,1.3,0,0,0,1.31,1.29h1.31a1.3,1.3,0,0,0,1.31-1.29,1.3,1.3,0,0,0-1.31-1.29"/></clipPath><clipPath id="clip-path-14"><path class="cls-2" d="M-633.35,401h-1.31a1.3,1.3,0,0,0-1.31,1.29,1.3,1.3,0,0,0,1.31,1.29h1.31a1.3,1.3,0,0,0,1.31-1.29,1.3,1.3,0,0,0-1.31-1.29"/></clipPath><clipPath id="clip-path-15"><path class="cls-2" d="M-633.35,406.17h-1.31a1.3,1.3,0,0,0-1.31,1.29,1.3,1.3,0,0,0,1.31,1.29h1.31a1.3,1.3,0,0,0,1.31-1.29,1.3,1.3,0,0,0-1.31-1.29"/></clipPath><clipPath id="clip-path-16"><path class="cls-2" d="M-633.35,411.35h-1.31a1.3,1.3,0,0,0-1.31,1.29,1.3,1.3,0,0,0,1.31,1.29h1.31a1.3,1.3,0,0,0,1.31-1.29,1.3,1.3,0,0,0-1.31-1.29"/></clipPath><clipPath id="clip-path-17"><path class="cls-2" d="M-633.35,416.52h-1.31a1.3,1.3,0,0,0-1.31,1.29,1.3,1.3,0,0,0,1.31,1.29h1.31a1.3,1.3,0,0,0,1.31-1.29,1.3,1.3,0,0,0-1.31-1.29"/></clipPath><clipPath id="clip-path-18"><path class="cls-2" d="M-596.05,398h-.38c-6.48,0-11.73-5-11.73-11.1s5.25-11.1,11.73-11.1,11.73,5,11.73,11.1a10.77,10.77,0,0,1-3.4,7.81l-8,9.42Z"/></clipPath><clipPath id="clip-path-19"><path class="cls-2" d="M-578,408.94h.48c8.32,0,15.07-6.38,15.07-14.25s-6.75-14.25-15.07-14.25-15.07,6.38-15.07,14.25a13.83,13.83,0,0,0,4.36,10l10.23,12.1Z"/></clipPath><clipPath id="clip-path-20"><ellipse class="cls-1" cx="-582.88" cy="395.16" rx="1.94" ry="1.84"/></clipPath><clipPath id="clip-path-21"><ellipse class="cls-1" cx="-577.05" cy="395.16" rx="1.94" ry="1.84"/></clipPath><clipPath id="clip-path-22"><ellipse class="cls-1" cx="-571.21" cy="395.16" rx="1.94" ry="1.84"/></clipPath><clipPath id="clip-path-23"><rect class="cls-1" x="2.58" y="320.08" width="343.66" height="125.76"/></clipPath><clipPath id="clip-path-24"><rect class="cls-1" x="123.58" y="347.08" width="94" height="75"/></clipPath><clipPath id="clip-path-25"><rect class="cls-1" x="123.58" y="347.08" width="94" height="15.52"/></clipPath><clipPath id="clip-path-26"><path class="cls-2" d="M135.33,354.84a3.92,3.92,0,1,1-3.92-3.88,3.9,3.9,0,0,1,3.92,3.88"/></clipPath><clipPath id="clip-path-27"><path class="cls-2" d="M147.08,354.84a3.92,3.92,0,1,1-3.92-3.88,3.9,3.9,0,0,1,3.92,3.88"/></clipPath><clipPath id="clip-path-28"><path class="cls-2" d="M158.83,354.84a3.92,3.92,0,1,1-3.92-3.88,3.9,3.9,0,0,1,3.92,3.88"/></clipPath><clipPath id="clip-path-29"><rect class="cls-1" x="123.58" y="362.6" width="9.14" height="59.48"/></clipPath><clipPath id="clip-path-30"><path class="cls-2" d="M128.81,370.36a1.29,1.29,0,1,0,0-2.59H127.5a1.29,1.29,0,1,0,0,2.59Z"/></clipPath><clipPath id="clip-path-31"><path class="cls-2" d="M128.81,372.94H127.5a1.29,1.29,0,1,0,0,2.59h1.31a1.29,1.29,0,1,0,0-2.59"/></clipPath><clipPath id="clip-path-32"><path class="cls-2" d="M128.81,378.11H127.5a1.29,1.29,0,1,0,0,2.59h1.31a1.29,1.29,0,1,0,0-2.59"/></clipPath><clipPath id="clip-path-33"><path class="cls-2" d="M128.81,383.29H127.5a1.29,1.29,0,1,0,0,2.59h1.31a1.29,1.29,0,1,0,0-2.59"/></clipPath><clipPath id="clip-path-34"><path class="cls-2" d="M128.81,388.46H127.5a1.29,1.29,0,1,0,0,2.59h1.31a1.29,1.29,0,1,0,0-2.59"/></clipPath><clipPath id="clip-path-35"><path class="cls-2" d="M128.81,393.63H127.5a1.29,1.29,0,1,0,0,2.59h1.31a1.29,1.29,0,1,0,0-2.59"/></clipPath><clipPath id="clip-path-36"><path class="cls-2" d="M128.81,398.8H127.5a1.29,1.29,0,1,0,0,2.59h1.31a1.29,1.29,0,1,0,0-2.59"/></clipPath><clipPath id="clip-path-37"><path class="cls-2" d="M128.81,404H127.5a1.29,1.29,0,1,0,0,2.59h1.31a1.29,1.29,0,1,0,0-2.59"/></clipPath><clipPath id="clip-path-38"><path class="cls-2" d="M128.81,409.15H127.5a1.29,1.29,0,1,0,0,2.59h1.31a1.29,1.29,0,1,0,0-2.59"/></clipPath><clipPath id="clip-path-39"><path class="cls-2" d="M128.81,414.32H127.5a1.29,1.29,0,1,0,0,2.59h1.31a1.29,1.29,0,1,0,0-2.59"/></clipPath><clipPath id="clip-path-40"><polygon class="cls-2" points="155.12 406.72 170.78 406.84 178.63 393.25 147.78 392.95 155.12 406.72"/></clipPath><clipPath id="clip-path-41"><polygon class="cls-2" points="147.32 393.28 155.04 406.9 170.69 406.87 155.2 379.39 147.32 393.28"/></clipPath><clipPath id="clip-path-42"><polygon class="cls-2" points="188.05 375.44 172.38 375.32 164.54 388.91 195.38 389.21 188.05 375.44"/></clipPath><clipPath id="clip-path-43"><polygon class="cls-2" points="195.85 388.88 188.12 375.25 172.48 375.29 187.96 402.77 195.85 388.88"/></clipPath><clipPath id="clip-path-44"><rect class="cls-4" x="-1.05" y="-0.66" width="345" height="127.44"/></clipPath><clipPath id="clip-path-45"><rect class="cls-1" x="-381.08" y="2.08" width="343.66" height="124.43"/></clipPath><clipPath id="clip-path-46"><rect class="cls-1" x="-1415.39" y="-504.92" width="1437.65" height="1024"/></clipPath><clipPath id="clip-path-47"><rect class="cls-1" x="-386.08" y="-2.92" width="392.36" height="135"/></clipPath><clipPath id="clip-path-48"><rect class="cls-1" x="-381.08" y="2.08" width="344.44" height="125"/></clipPath><clipPath id="clip-path-49"><rect class="cls-1" x="-384.08" y="33.08" width="390.36" height="65"/></clipPath><clipPath id="clip-path-50"><path class="cls-2" d="M1.48,89.68H-52.83a4.45,4.45,0,0,1-4.44-4.46,4.45,4.45,0,0,1,4.44-4.46H1.48a4.46,4.46,0,0,1,0,8.91"/></clipPath><clipPath id="clip-path-51"><rect class="cls-1" x="-381.08" y="2.08" width="344.44" height="91"/></clipPath><clipPath id="clip-path-52"><rect class="cls-1" x="1.43" y="163.94" width="344.19" height="125.5"/></clipPath><clipPath id="clip-path-53"><rect class="cls-4" x="-239.95" y="335.86" width="60.84" height="98.25"/></clipPath><clipPath id="clip-path-54"><rect class="cls-1" x="-254.12" y="189.13" width="94" height="75"/></clipPath><clipPath id="clip-path-55"><rect class="cls-3" x="-254.12" y="189.13" width="94" height="15.52"/></clipPath><clipPath id="clip-path-56"><path class="cls-2" d="M-242.37,196.89a3.9,3.9,0,0,1-3.92,3.88,3.9,3.9,0,0,1-3.92-3.88,3.9,3.9,0,0,1,3.92-3.88,3.9,3.9,0,0,1,3.92,3.88"/></clipPath><clipPath id="clip-path-57"><path class="cls-2" d="M-230.62,196.89a3.9,3.9,0,0,1-3.92,3.88,3.9,3.9,0,0,1-3.92-3.88,3.9,3.9,0,0,1,3.92-3.88,3.9,3.9,0,0,1,3.92,3.88"/></clipPath><clipPath id="clip-path-58"><path class="cls-2" d="M-218.87,196.89a3.9,3.9,0,0,1-3.92,3.88,3.9,3.9,0,0,1-3.92-3.88,3.9,3.9,0,0,1,3.92-3.88,3.9,3.9,0,0,1,3.92,3.88"/></clipPath><clipPath id="clip-path-59"><rect class="cls-3" x="155.47" y="18.86" width="51.28" height="82.81"/></clipPath><clipPath id="clip-path-60"><rect class="cls-3" x="-731.4" y="-534.22" width="1333.27" height="934.48"/></clipPath></defs><title>Subheros</title><rect class="cls-4" x="-1.05" y="-0.66" width="345" height="127.44"/><g class="cls-48"><rect class="cls-4" x="-8.92" y="-4.91" width="360.75" height="135.94"/></g><g class="cls-49"><g class="cls-50"><g class="cls-51"><g class="cls-52"><g class="cls-53"><g class="cls-54"><g class="cls-55"><g class="cls-56"><g class="cls-57"><rect class="cls-58" x="-62.26" y="75.77" width="73.17" height="18.91"/></g></g></g></g></g></g></g></g></g><rect class="cls-4" x="-239.95" y="335.86" width="60.84" height="98.25"/><g class="cls-60"><rect class="cls-4" x="-1292.2" y="-320.36" width="1581.89" height="1108.74"/></g><rect class="cls-3" x="-254.12" y="189.13" width="94" height="15.52"/><g class="cls-62"><rect class="cls-3" x="-1411.12" y="-343.87" width="1440" height="1024"/></g><polygon class="cls-66" points="27.32 49.16 11.46 33.31 27.32 33.31 27.32 49.16"/><path class="cls-66" d="M112.49,50.16H98.63a2,2,0,0,1-2-2V34.31a2,2,0,0,1,2-2h13.86a2,2,0,0,1,2,2V48.16A2,2,0,0,1,112.49,50.16ZM98.63,34.31V48.16h13.86V34.31Z"/><path class="cls-66" d="M47.86,50.16H34a2,2,0,0,1-2-2V34.31a2,2,0,0,1,2-2H47.86a2,2,0,0,1,2,2V48.16A2,2,0,0,1,47.86,50.16ZM34,34.31V48.16H47.86V34.31Z"/><rect class="cls-66" x="54.55" y="33.31" width="15.86" height="15.86"/><path class="cls-66" d="M91.14,50.16H76.89a1.81,1.81,0,0,1-1.8-1.8v-.41L90.73,32.31h.41a1.81,1.81,0,0,1,1.8,1.8V48.36A1.81,1.81,0,0,1,91.14,50.16Zm-13.44-2H90.95V34.92Z"/><path class="cls-66" d="M155.57,50.16H141.71a2,2,0,0,1-2-2V34.31a2,2,0,0,1,2-2h13.86a2,2,0,0,1,2,2V48.16A2,2,0,0,1,155.57,50.16ZM141.71,34.31V48.16h13.86V34.31Z"/><path class="cls-66" d="M112.49,23.37H98.63a2,2,0,0,1-2-2V7.51a2,2,0,0,1,2-2h13.86a2,2,0,0,1,2,2V21.37A2,2,0,0,1,112.49,23.37ZM98.63,7.51V21.37h13.86V7.51Z"/><path class="cls-66" d="M47.86,23.37H34a2,2,0,0,1-2-2V7.51a2,2,0,0,1,2-2H47.86a2,2,0,0,1,2,2V21.37A2,2,0,0,1,47.86,23.37ZM34,7.51V21.37H47.86V7.51Z"/><path class="cls-66" d="M177.11,23.37H163.25a2,2,0,0,1-2-2V7.51a2,2,0,0,1,2-2h13.86a2,2,0,0,1,2,2V21.37A2,2,0,0,1,177.11,23.37ZM163.25,7.51V21.37h13.86V7.51Z"/><path class="cls-66" d="M98.43,73c-.44,0-.8-15.05-.8-15.05a.8.8,0,0,1,.8-.8h14.25a.8.8,0,0,1,.8.8Z"/><polygon class="cls-66" points="70.41 72.96 54.55 72.96 70.41 57.1 70.41 72.96"/><path class="cls-66" d="M155.76,74h-.41L139.71,58.32v-.41a1.81,1.81,0,0,1,1.8-1.8h14.25a1.81,1.81,0,0,1,1.8,1.8V72.15A1.81,1.81,0,0,1,155.76,74ZM142.32,58.1l13.25,13.25V58.1Z"/><polygon class="cls-66" points="11.61 96.75 11.61 80.9 27.46 80.9 11.61 96.75"/><path class="cls-66" d="M112.63,97.75H98.77a2,2,0,0,1-2-2V81.9a2,2,0,0,1,2-2h13.86a2,2,0,0,1,2,2V95.75A2,2,0,0,1,112.63,97.75ZM98.77,81.9V95.75h13.86V81.9Z"/><polygon class="cls-66" points="54.69 96.75 54.69 80.9 70.55 80.9 54.69 96.75"/><path class="cls-66" d="M91.09,97.75H77.23a2,2,0,0,1-2-2V81.9a2,2,0,0,1,2-2H91.09a2,2,0,0,1,2,2V95.75A2,2,0,0,1,91.09,97.75ZM77.23,81.9V95.75H91.09V81.9Z"/><path class="cls-66" d="M155.91,97.75H141.66a1.81,1.81,0,0,1-1.8-1.8v-.41L155.49,79.9h.41a1.81,1.81,0,0,1,1.8,1.8V95.95A1.81,1.81,0,0,1,155.91,97.75Zm-13.44-2h13.25V82.51Z"/><path class="cls-66" d="M177.25,97.75H163.39a2,2,0,0,1-2-2V81.9a2,2,0,0,1,2-2h13.86a2,2,0,0,1,2,2V95.75A2,2,0,0,1,177.25,97.75ZM163.39,81.9V95.75h13.86V81.9Z"/><path class="cls-66" d="M48.2,121.55h-.41L32.15,105.91v-.41a1.81,1.81,0,0,1,1.8-1.8H48.2a1.81,1.81,0,0,1,1.8,1.8v14.25A1.81,1.81,0,0,1,48.2,121.55ZM34.76,105.69,48,118.94V105.69Z"/><rect class="cls-66" x="54.69" y="104.69" width="15.86" height="15.86"/><path class="cls-66" d="M91.09,121.55H77.23a2,2,0,0,1-2-2V105.69a2,2,0,0,1,2-2H91.09a2,2,0,0,1,2,2v13.86A2,2,0,0,1,91.09,121.55ZM77.23,105.69v13.86H91.09V105.69Z"/><path class="cls-66" d="M155.71,121.55H141.85a2,2,0,0,1-2-2V105.69a2,2,0,0,1,2-2h13.86a2,2,0,0,1,2,2v13.86A2,2,0,0,1,155.71,121.55Zm-13.86-15.86v13.86h13.86V105.69Z"/><path class="cls-66" d="M163.61,121.55h-.41a1.81,1.81,0,0,1-1.8-1.8V105.5a1.81,1.81,0,0,1,1.8-1.8h14.25a1.81,1.81,0,0,1,1.8,1.8v.41Zm-.22-15.86v13.25l13.25-13.25Z"/><path class="cls-66" d="M264.24,97.84H250.38a2,2,0,0,1-2-2V82a2,2,0,0,1,2-2h13.86a2,2,0,0,1,2,2V95.84A2,2,0,0,1,264.24,97.84ZM250.38,82h0V95.84h13.86V82Z"/><polygon class="cls-66" points="227.84 80.98 243.7 80.98 243.7 96.83 227.84 80.98"/><path class="cls-66" d="M328.86,97.84H315a2,2,0,0,1-2-2V82a2,2,0,0,1,2-2h13.86a2,2,0,0,1,2,2V95.84A2,2,0,0,1,328.86,97.84ZM315,82h0V95.84h13.86V82Z"/><rect class="cls-66" x="292.46" y="80.98" width="15.86" height="15.86" transform="translate(600.78 177.81) rotate(180)"/><path class="cls-66" d="M272.14,97.84h-.41a1.81,1.81,0,0,1-1.8-1.8V81.78a1.81,1.81,0,0,1,1.8-1.8H286a1.81,1.81,0,0,1,1.8,1.8v.41ZM271.92,82V95.23L285.17,82Z"/><rect class="cls-66" x="227.84" y="104.77" width="15.86" height="15.86" transform="translate(471.54 225.4) rotate(180)"/><path class="cls-66" d="M286,121.63H271.73a1.81,1.81,0,0,1-1.8-1.8V105.58a1.81,1.81,0,0,1,1.8-1.8h.41l15.64,15.64v.41A1.81,1.81,0,0,1,286,121.63Zm-14.05-2h13.25l-13.25-13.25Z"/><path class="cls-66" d="M264.43,57.18c.44,0,.8,15.05.8,15.05a.8.8,0,0,1-.8.8H250.19a.8.8,0,0,1-.8-.8Z"/><polygon class="cls-66" points="292.46 57.18 308.32 57.18 292.46 73.04 292.46 57.18"/><path class="cls-66" d="M199.62,74H185.76a2,2,0,0,1-2-2V58.18a2,2,0,0,1,2-2h13.86a2,2,0,0,1,2,2V72A2,2,0,0,1,199.62,74ZM185.76,58.18h0V72h13.86V58.18Z"/><path class="cls-66" d="M264.1,50.25H250.24a2,2,0,0,1-2-2V34.39a2,2,0,0,1,2-2H264.1a2,2,0,0,1,2,2V48.25A2,2,0,0,1,264.1,50.25ZM250.24,34.39h0V48.25H264.1V34.39Z"/><rect class="cls-66" x="227.7" y="33.39" width="15.86" height="15.86" transform="translate(471.26 82.63) rotate(180)"/><path class="cls-66" d="M328.72,50.25H314.86a2,2,0,0,1-2-2V34.39a2,2,0,0,1,2-2h13.86a2,2,0,0,1,2,2V48.25A2,2,0,0,1,328.72,50.25ZM314.86,34.39h0V48.25h13.86V34.39Z"/><polygon class="cls-66" points="308.18 33.39 308.18 49.24 292.32 49.24 308.18 33.39"/><path class="cls-66" d="M199.47,50.25H185.62a2,2,0,0,1-2-2V34.39a2,2,0,0,1,2-2h13.86a2,2,0,0,1,2,2V48.25A2,2,0,0,1,199.47,50.25ZM185.62,34.39h0V48.25h13.86V34.39Z"/><path class="cls-66" d="M328.92,23.37H314.67a1.81,1.81,0,0,1-1.8-1.8V7.32a1.81,1.81,0,0,1,1.8-1.8h.41l15.64,15.64v.41A1.81,1.81,0,0,1,328.92,23.37Zm-14.05-2h13.25L314.86,8.12Z"/><rect class="cls-66" x="292.32" y="5.51" width="15.86" height="15.86" transform="translate(600.5 26.88) rotate(180)"/><path class="cls-66" d="M285.64,23.37H271.78a2,2,0,0,1-2-2V7.51a2,2,0,0,1,2-2h13.86a2,2,0,0,1,2,2V21.37A2,2,0,0,1,285.64,23.37ZM271.78,7.51h0V21.37h13.86V7.51Z"/><rect class="cls-3" x="155.47" y="18.86" width="51.28" height="82.81"/><g class="cls-67"><rect class="cls-3" x="-731.4" y="-534.22" width="1333.27" height="934.48"/><g class="cls-68"><rect class="cls-3" x="152.76" y="16.36" width="56.68" height="87.81"/></g></g><rect class="cls-69" x="159.84" y="23.09" width="42.62" height="64.77"/><circle class="cls-69" cx="181.02" cy="95.46" r="4.09"/><polygon class="cls-70" points="222 30 183 30 183 61.96 183 62.24 183 71.23 194.05 62 222 62 222 30"/><rect class="cls-69" x="189" y="38" width="28" height="5"/><rect class="cls-69" x="189" y="49" width="28" height="5"/></svg>