<svg id="Layer_1" data-name="Layer 1" xmlns="http://www.w3.org/2000/svg" xmlns:xlink="http://www.w3.org/1999/xlink" viewBox="0 0 343 125"><defs><style>.cls-1,.cls-2{fill:none;}.cls-2{clip-rule:evenodd;}.cls-3{fill:#152935;}.cls-4{fill:#4178be;}.cls-5{clip-path:url(#clip-path);}.cls-6{clip-path:url(#clip-path-2);}.cls-10,.cls-7{isolation:isolate;}.cls-8{clip-path:url(#clip-path-3);}.cls-9{clip-path:url(#clip-path-4);}.cls-10{opacity:0.25;}.cls-11{clip-path:url(#clip-path-5);}.cls-12{clip-path:url(#clip-path-6);}.cls-13{clip-path:url(#clip-path-7);}.cls-14{fill:#fff;}.cls-15{clip-path:url(#clip-path-8);}.cls-16{clip-path:url(#clip-path-9);}.cls-17{clip-path:url(#clip-path-10);}.cls-18{clip-path:url(#clip-path-11);}.cls-19{clip-path:url(#clip-path-12);}.cls-20{clip-path:url(#clip-path-13);}.cls-21{clip-path:url(#clip-path-14);}.cls-22{clip-path:url(#clip-path-15);}.cls-23{clip-path:url(#clip-path-16);}.cls-24{clip-path:url(#clip-path-17);}.cls-25{clip-path:url(#clip-path-18);}.cls-26{clip-path:url(#clip-path-19);}.cls-27{clip-path:url(#clip-path-20);}.cls-28{clip-path:url(#clip-path-21);}.cls-29{clip-path:url(#clip-path-22);}.cls-30{clip-path:url(#clip-path-23);}.cls-31{clip-path:url(#clip-path-24);}.cls-32{clip-path:url(#clip-path-25);}.cls-33{clip-path:url(#clip-path-26);}.cls-34{clip-path:url(#clip-path-27);}.cls-35{clip-path:url(#clip-path-28);}.cls-36{clip-path:url(#clip-path-29);}.cls-37{clip-path:url(#clip-path-30);}.cls-38{clip-path:url(#clip-path-31);}.cls-39{clip-path:url(#clip-path-32);}.cls-40{clip-path:url(#clip-path-33);}.cls-41{clip-path:url(#clip-path-34);}.cls-42{clip-path:url(#clip-path-35);}.cls-43{clip-path:url(#clip-path-36);}.cls-44{clip-path:url(#clip-path-37);}.cls-45{clip-path:url(#clip-path-38);}.cls-46{clip-path:url(#clip-path-39);}.cls-47{clip-path:url(#clip-path-40);}.cls-48{clip-path:url(#clip-path-41);}.cls-49{clip-path:url(#clip-path-42);}.cls-50{clip-path:url(#clip-path-43);}.cls-51{clip-path:url(#clip-path-44);}.cls-52{clip-path:url(#clip-path-45);}.cls-53{clip-path:url(#clip-path-46);}.cls-54{clip-path:url(#clip-path-47);}.cls-55{clip-path:url(#clip-path-48);}.cls-56{clip-path:url(#clip-path-49);}.cls-57{clip-path:url(#clip-path-50);}.cls-58{clip-path:url(#clip-path-51);}.cls-59{clip-path:url(#clip-path-52);}.cls-60{clip-path:url(#clip-path-53);}.cls-61{clip-path:url(#clip-path-54);}.cls-62{clip-path:url(#clip-path-55);}.cls-63{clip-path:url(#clip-path-56);}.cls-64{clip-path:url(#clip-path-57);}.cls-65{clip-path:url(#clip-path-58);}.cls-66{clip-path:url(#clip-path-59);}.cls-67{clip-path:url(#clip-path-60);}.cls-68{clip-path:url(#clip-path-61);}.cls-69{clip-path:url(#clip-path-62);}.cls-70{clip-path:url(#clip-path-63);}.cls-71{clip-path:url(#clip-path-64);}.cls-72{clip-path:url(#clip-path-65);}.cls-73{clip-path:url(#clip-path-66);}.cls-74{clip-path:url(#clip-path-67);}.cls-75{clip-path:url(#clip-path-68);}.cls-76,.cls-77{fill:#5596e6;}.cls-76{opacity:0.39;}.cls-78{clip-path:url(#clip-path-69);}.cls-79{clip-path:url(#clip-path-70);}.cls-80,.cls-82{fill:#ecf0f1;}.cls-81{fill:#eace2d;}.cls-82{stroke:#4178be;stroke-miterlimit:10;stroke-width:2px;}.cls-83{clip-path:url(#clip-path-71);}.cls-84{clip-path:url(#clip-path-72);}.cls-85{clip-path:url(#clip-path-73);}.cls-86{clip-path:url(#clip-path-74);}.cls-87{clip-path:url(#clip-path-75);}.cls-88{clip-path:url(#clip-path-76);}</style><clipPath id="clip-path"><rect class="cls-1" x="-382.67" y="0.69" width="344.19" height="126.25"/></clipPath><clipPath id="clip-path-2"><rect class="cls-1" x="-695.49" y="-516.18" width="1448.42" height="1041.88"/></clipPath><clipPath id="clip-path-3"><rect class="cls-1" x="-391.72" y="-4.4" width="409.38" height="137.36"/></clipPath><clipPath id="clip-path-4"><rect class="cls-1" x="-382.67" y="0.69" width="345" height="127.18"/></clipPath><clipPath id="clip-path-5"><rect class="cls-1" x="-391.72" y="33.25" width="409.38" height="66.14"/></clipPath><clipPath id="clip-path-6"><path class="cls-2" d="M12.82,90.84H-41.9a4.5,4.5,0,0,1-4.47-4.53,4.5,4.5,0,0,1,4.47-4.53H12.82a4.53,4.53,0,0,1,0,9.07"/></clipPath><clipPath id="clip-path-7"><rect class="cls-1" x="-382.67" y="0.69" width="345" height="93.61"/></clipPath><clipPath id="clip-path-8"><rect class="cls-1" x="-258.67" y="27.19" width="94" height="75"/></clipPath><clipPath id="clip-path-9"><rect class="cls-1" x="-258.67" y="27.19" width="94" height="15.52"/></clipPath><clipPath id="clip-path-10"><path class="cls-2" d="M-246.92,34.95a3.9,3.9,0,0,1-3.92,3.88,3.9,3.9,0,0,1-3.92-3.88,3.9,3.9,0,0,1,3.92-3.88,3.9,3.9,0,0,1,3.92,3.88"/></clipPath><clipPath id="clip-path-11"><path class="cls-2" d="M-235.17,34.95a3.9,3.9,0,0,1-3.92,3.88A3.9,3.9,0,0,1-243,34.95a3.9,3.9,0,0,1,3.92-3.88,3.9,3.9,0,0,1,3.92,3.88"/></clipPath><clipPath id="clip-path-12"><path class="cls-2" d="M-223.42,34.95a3.9,3.9,0,0,1-3.92,3.88,3.9,3.9,0,0,1-3.92-3.88,3.9,3.9,0,0,1,3.92-3.88,3.9,3.9,0,0,1,3.92,3.88"/></clipPath><clipPath id="clip-path-13"><rect class="cls-1" x="-258.67" y="42.71" width="9.14" height="59.48"/></clipPath><clipPath id="clip-path-14"><path class="cls-2" d="M-253.45,50.46a1.3,1.3,0,0,0,1.31-1.29,1.3,1.3,0,0,0-1.31-1.29h-1.31a1.3,1.3,0,0,0-1.31,1.29,1.3,1.3,0,0,0,1.31,1.29Z"/></clipPath><clipPath id="clip-path-15"><path class="cls-2" d="M-253.45,53.05h-1.31a1.3,1.3,0,0,0-1.31,1.29,1.3,1.3,0,0,0,1.31,1.29h1.31a1.3,1.3,0,0,0,1.31-1.29,1.3,1.3,0,0,0-1.31-1.29"/></clipPath><clipPath id="clip-path-16"><path class="cls-2" d="M-253.45,58.22h-1.31a1.3,1.3,0,0,0-1.31,1.29,1.3,1.3,0,0,0,1.31,1.29h1.31a1.3,1.3,0,0,0,1.31-1.29,1.3,1.3,0,0,0-1.31-1.29"/></clipPath><clipPath id="clip-path-17"><path class="cls-2" d="M-253.45,63.4h-1.31a1.3,1.3,0,0,0-1.31,1.29A1.3,1.3,0,0,0-254.75,66h1.31a1.3,1.3,0,0,0,1.31-1.29,1.3,1.3,0,0,0-1.31-1.29"/></clipPath><clipPath id="clip-path-18"><path class="cls-2" d="M-253.45,68.57h-1.31a1.3,1.3,0,0,0-1.31,1.29,1.3,1.3,0,0,0,1.31,1.29h1.31a1.3,1.3,0,0,0,1.31-1.29,1.3,1.3,0,0,0-1.31-1.29"/></clipPath><clipPath id="clip-path-19"><path class="cls-2" d="M-253.45,73.74h-1.31A1.3,1.3,0,0,0-256.06,75a1.3,1.3,0,0,0,1.31,1.29h1.31A1.3,1.3,0,0,0-252.14,75a1.3,1.3,0,0,0-1.31-1.29"/></clipPath><clipPath id="clip-path-20"><path class="cls-2" d="M-253.45,78.91h-1.31a1.3,1.3,0,0,0-1.31,1.29,1.3,1.3,0,0,0,1.31,1.29h1.31a1.3,1.3,0,0,0,1.31-1.29,1.3,1.3,0,0,0-1.31-1.29"/></clipPath><clipPath id="clip-path-21"><path class="cls-2" d="M-253.45,84.09h-1.31a1.3,1.3,0,0,0-1.31,1.29,1.3,1.3,0,0,0,1.31,1.29h1.31a1.3,1.3,0,0,0,1.31-1.29,1.3,1.3,0,0,0-1.31-1.29"/></clipPath><clipPath id="clip-path-22"><path class="cls-2" d="M-253.45,89.26h-1.31a1.3,1.3,0,0,0-1.31,1.29,1.3,1.3,0,0,0,1.31,1.29h1.31a1.3,1.3,0,0,0,1.31-1.29,1.3,1.3,0,0,0-1.31-1.29"/></clipPath><clipPath id="clip-path-23"><path class="cls-2" d="M-253.45,94.43h-1.31a1.3,1.3,0,0,0-1.31,1.29A1.3,1.3,0,0,0-254.75,97h1.31a1.3,1.3,0,0,0,1.31-1.29,1.3,1.3,0,0,0-1.31-1.29"/></clipPath><clipPath id="clip-path-24"><path class="cls-2" d="M-216.15,75.94h-.38c-6.48,0-11.73-5-11.73-11.1s5.25-11.1,11.73-11.1,11.73,5,11.73,11.1a10.77,10.77,0,0,1-3.4,7.81l-8,9.42Z"/></clipPath><clipPath id="clip-path-25"><path class="cls-2" d="M-198.11,86.85h.48c8.32,0,15.07-6.38,15.07-14.25s-6.75-14.25-15.07-14.25-15.07,6.38-15.07,14.25a13.83,13.83,0,0,0,4.36,10l10.23,12.1Z"/></clipPath><clipPath id="clip-path-26"><ellipse class="cls-1" cx="-202.98" cy="73.07" rx="1.94" ry="1.84"/></clipPath><clipPath id="clip-path-27"><ellipse class="cls-1" cx="-197.14" cy="73.07" rx="1.94" ry="1.84"/></clipPath><clipPath id="clip-path-28"><ellipse class="cls-1" cx="-191.31" cy="73.07" rx="1.94" ry="1.84"/></clipPath><clipPath id="clip-path-29"><rect class="cls-1" x="382.49" y="-2.01" width="343.66" height="125.76"/></clipPath><clipPath id="clip-path-30"><rect class="cls-1" x="503.49" y="24.99" width="94" height="75"/></clipPath><clipPath id="clip-path-31"><rect class="cls-1" x="503.49" y="24.99" width="94" height="15.52"/></clipPath><clipPath id="clip-path-32"><path class="cls-2" d="M515.24,32.75a3.92,3.92,0,1,1-3.92-3.88,3.9,3.9,0,0,1,3.92,3.88"/></clipPath><clipPath id="clip-path-33"><path class="cls-2" d="M527,32.75a3.92,3.92,0,1,1-3.92-3.88A3.9,3.9,0,0,1,527,32.75"/></clipPath><clipPath id="clip-path-34"><path class="cls-2" d="M538.74,32.75a3.92,3.92,0,1,1-3.92-3.88,3.9,3.9,0,0,1,3.92,3.88"/></clipPath><clipPath id="clip-path-35"><rect class="cls-1" x="503.49" y="40.51" width="9.14" height="59.48"/></clipPath><clipPath id="clip-path-36"><path class="cls-2" d="M508.71,48.27a1.29,1.29,0,1,0,0-2.59H507.4a1.29,1.29,0,1,0,0,2.59Z"/></clipPath><clipPath id="clip-path-37"><path class="cls-2" d="M508.71,50.85H507.4a1.29,1.29,0,1,0,0,2.59h1.31a1.29,1.29,0,1,0,0-2.59"/></clipPath><clipPath id="clip-path-38"><path class="cls-2" d="M508.71,56H507.4a1.29,1.29,0,1,0,0,2.59h1.31a1.29,1.29,0,1,0,0-2.59"/></clipPath><clipPath id="clip-path-39"><path class="cls-2" d="M508.71,61.2H507.4a1.29,1.29,0,1,0,0,2.59h1.31a1.29,1.29,0,1,0,0-2.59"/></clipPath><clipPath id="clip-path-40"><path class="cls-2" d="M508.71,66.37H507.4a1.29,1.29,0,1,0,0,2.59h1.31a1.29,1.29,0,1,0,0-2.59"/></clipPath><clipPath id="clip-path-41"><path class="cls-2" d="M508.71,71.54H507.4a1.29,1.29,0,1,0,0,2.59h1.31a1.29,1.29,0,1,0,0-2.59"/></clipPath><clipPath id="clip-path-42"><path class="cls-2" d="M508.71,76.71H507.4a1.29,1.29,0,1,0,0,2.59h1.31a1.29,1.29,0,1,0,0-2.59"/></clipPath><clipPath id="clip-path-43"><path class="cls-2" d="M508.71,81.89H507.4a1.29,1.29,0,1,0,0,2.59h1.31a1.29,1.29,0,1,0,0-2.59"/></clipPath><clipPath id="clip-path-44"><path class="cls-2" d="M508.71,87.06H507.4a1.29,1.29,0,1,0,0,2.59h1.31a1.29,1.29,0,1,0,0-2.59"/></clipPath><clipPath id="clip-path-45"><path class="cls-2" d="M508.71,92.23H507.4a1.29,1.29,0,1,0,0,2.59h1.31a1.29,1.29,0,1,0,0-2.59"/></clipPath><clipPath id="clip-path-46"><polygon class="cls-2" points="535.02 84.63 550.69 84.75 558.53 71.16 527.69 70.86 535.02 84.63"/></clipPath><clipPath id="clip-path-47"><polygon class="cls-2" points="527.22 71.19 534.95 84.82 550.59 84.78 535.11 57.3 527.22 71.19"/></clipPath><clipPath id="clip-path-48"><polygon class="cls-2" points="567.95 53.35 552.29 53.23 544.44 66.82 575.29 67.12 567.95 53.35"/></clipPath><clipPath id="clip-path-49"><polygon class="cls-2" points="575.75 66.79 568.03 53.16 552.39 53.2 567.87 80.68 575.75 66.79"/></clipPath><clipPath id="clip-path-50"><rect class="cls-1" x="-0.84" y="-0.1" width="344.67" height="125.56"/></clipPath><clipPath id="clip-path-51"><rect class="cls-1" x="-1.18" y="-320.01" width="343.66" height="124.43"/></clipPath><clipPath id="clip-path-52"><rect class="cls-1" x="381.33" y="-158.14" width="344.19" height="125.5"/></clipPath><clipPath id="clip-path-53"><rect class="cls-1" x="-256.88" y="-293.23" width="94" height="75"/></clipPath><clipPath id="clip-path-54"><rect class="cls-3" x="-256.88" y="-293.23" width="94" height="15.52"/></clipPath><clipPath id="clip-path-55"><path class="cls-2" d="M-245.13-285.47a3.9,3.9,0,0,1-3.92,3.88,3.9,3.9,0,0,1-3.92-3.88,3.9,3.9,0,0,1,3.92-3.88,3.9,3.9,0,0,1,3.92,3.88"/></clipPath><clipPath id="clip-path-56"><path class="cls-2" d="M-233.38-285.47a3.9,3.9,0,0,1-3.92,3.88,3.9,3.9,0,0,1-3.92-3.88,3.9,3.9,0,0,1,3.92-3.88,3.9,3.9,0,0,1,3.92,3.88"/></clipPath><clipPath id="clip-path-57"><path class="cls-2" d="M-221.63-285.47a3.9,3.9,0,0,1-3.92,3.88,3.9,3.9,0,0,1-3.92-3.88,3.9,3.9,0,0,1,3.92-3.88,3.9,3.9,0,0,1,3.92,3.88"/></clipPath><clipPath id="clip-path-58"><rect class="cls-1" x="-256.88" y="-277.71" width="9.14" height="59.48"/></clipPath><clipPath id="clip-path-59"><path class="cls-2" d="M-251.65-270a1.3,1.3,0,0,0,1.31-1.29,1.3,1.3,0,0,0-1.31-1.29H-253a1.3,1.3,0,0,0-1.31,1.29A1.3,1.3,0,0,0-253-270Z"/></clipPath><clipPath id="clip-path-60"><path class="cls-2" d="M-251.65-267.37H-253a1.3,1.3,0,0,0-1.31,1.29,1.3,1.3,0,0,0,1.31,1.29h1.31a1.3,1.3,0,0,0,1.31-1.29,1.3,1.3,0,0,0-1.31-1.29"/></clipPath><clipPath id="clip-path-61"><path class="cls-2" d="M-251.65-262.2H-253a1.3,1.3,0,0,0-1.31,1.29,1.3,1.3,0,0,0,1.31,1.29h1.31a1.3,1.3,0,0,0,1.31-1.29,1.3,1.3,0,0,0-1.31-1.29"/></clipPath><clipPath id="clip-path-62"><path class="cls-2" d="M-251.65-257H-253a1.3,1.3,0,0,0-1.31,1.29,1.3,1.3,0,0,0,1.31,1.29h1.31a1.3,1.3,0,0,0,1.31-1.29,1.3,1.3,0,0,0-1.31-1.29"/></clipPath><clipPath id="clip-path-63"><path class="cls-2" d="M-251.65-251.85H-253a1.3,1.3,0,0,0-1.31,1.29,1.3,1.3,0,0,0,1.31,1.29h1.31a1.3,1.3,0,0,0,1.31-1.29,1.3,1.3,0,0,0-1.31-1.29"/></clipPath><clipPath id="clip-path-64"><path class="cls-2" d="M-251.65-246.68H-253a1.3,1.3,0,0,0-1.31,1.29,1.3,1.3,0,0,0,1.31,1.29h1.31a1.3,1.3,0,0,0,1.31-1.29,1.3,1.3,0,0,0-1.31-1.29"/></clipPath><clipPath id="clip-path-65"><path class="cls-2" d="M-251.65-241.51H-253a1.3,1.3,0,0,0-1.31,1.29,1.3,1.3,0,0,0,1.31,1.29h1.31a1.3,1.3,0,0,0,1.31-1.29,1.3,1.3,0,0,0-1.31-1.29"/></clipPath><clipPath id="clip-path-66"><path class="cls-2" d="M-251.65-236.33H-253a1.3,1.3,0,0,0-1.31,1.29,1.3,1.3,0,0,0,1.31,1.29h1.31a1.3,1.3,0,0,0,1.31-1.29,1.3,1.3,0,0,0-1.31-1.29"/></clipPath><clipPath id="clip-path-67"><path class="cls-2" d="M-251.65-231.16H-253a1.3,1.3,0,0,0-1.31,1.29,1.3,1.3,0,0,0,1.31,1.29h1.31a1.3,1.3,0,0,0,1.31-1.29,1.3,1.3,0,0,0-1.31-1.29"/></clipPath><clipPath id="clip-path-68"><path class="cls-2" d="M-251.65-226H-253a1.3,1.3,0,0,0-1.31,1.29A1.3,1.3,0,0,0-253-223.4h1.31a1.3,1.3,0,0,0,1.31-1.29,1.3,1.3,0,0,0-1.31-1.29"/></clipPath><clipPath id="clip-path-69"><rect class="cls-3" x="139.95" y="13.77" width="60.84" height="98.25"/></clipPath><clipPath id="clip-path-70"><rect class="cls-3" x="-912.29" y="-642.45" width="1581.89" height="1108.74"/></clipPath><clipPath id="clip-path-71"><rect class="cls-1" x="125.79" y="-132.96" width="94" height="75"/></clipPath><clipPath id="clip-path-72"><rect class="cls-4" x="125.79" y="-132.96" width="94" height="15.52"/></clipPath><clipPath id="clip-path-73"><path class="cls-2" d="M137.54-125.2a3.9,3.9,0,0,1-3.92,3.88,3.9,3.9,0,0,1-3.92-3.88,3.9,3.9,0,0,1,3.92-3.88,3.9,3.9,0,0,1,3.92,3.88"/></clipPath><clipPath id="clip-path-74"><path class="cls-2" d="M149.29-125.2a3.9,3.9,0,0,1-3.92,3.88,3.9,3.9,0,0,1-3.92-3.88,3.9,3.9,0,0,1,3.92-3.88,3.9,3.9,0,0,1,3.92,3.88"/></clipPath><clipPath id="clip-path-75"><path class="cls-2" d="M161-125.2a3.9,3.9,0,0,1-3.92,3.88,3.9,3.9,0,0,1-3.92-3.88,3.9,3.9,0,0,1,3.92-3.88A3.9,3.9,0,0,1,161-125.2"/></clipPath><clipPath id="clip-path-76"><rect class="cls-4" x="535.37" y="-303.22" width="51.28" height="82.81"/></clipPath></defs><title>Subheros</title><g class="cls-5"><g class="cls-6"><g class="cls-7"><g class="cls-8"><g class="cls-9"><g class="cls-10"><g class="cls-11"><g class="cls-12"><g class="cls-13"><rect class="cls-14" x="-51.4" y="76.69" width="73.72" height="19.24"/></g></g></g></g></g></g></g></g></g><g class="cls-57"><rect class="cls-4" x="-8.71" y="-4.28" width="360.4" height="133.93"/></g><rect class="cls-3" x="-256.88" y="-293.23" width="94" height="15.52"/><g class="cls-61"><rect class="cls-3" x="-1413.88" y="-826.23" width="1440" height="1024"/></g><rect class="cls-76" x="125.82" y="9.91" width="136.99" height="8.17" rx="4.09" ry="4.09" transform="translate(388.63 28) rotate(180)"/><path class="cls-76" d="M37.06,17.94H10.82a5.09,5.09,0,1,1,0-10.17H37.06a5.09,5.09,0,0,1,0,10.17ZM10.82,9.77a3.09,3.09,0,1,0,0,6.17H37.06a3.09,3.09,0,0,0,0-6.17Z"/><circle class="cls-76" cx="53.08" cy="13.03" r="5"/><rect class="cls-76" x="195.26" y="69.25" width="141.49" height="8.17" rx="4.09" ry="4.09" transform="translate(532.02 146.67) rotate(180)"/><path class="cls-76" d="M301.82,39.61H244.15a5.09,5.09,0,0,1,0-10.17h57.67a5.09,5.09,0,0,1,0,10.17Zm-57.67-8.17a3.09,3.09,0,0,0,0,6.17h57.67a3.09,3.09,0,0,0,0-6.17Z"/><rect class="cls-76" x="265.1" y="86.63" width="62.83" height="8.17" rx="4.09" ry="4.09" transform="translate(593.03 181.43) rotate(180)"/><path class="cls-76" d="M154,53.29H93a5.09,5.09,0,0,1,0-10.17h61a5.09,5.09,0,0,1,0,10.17ZM93,45.11a3.09,3.09,0,0,0,0,6.17h61a3.09,3.09,0,0,0,0-6.17Z"/><path class="cls-76" d="M204.93,34.18H93.62a5.09,5.09,0,1,1,0-10.17h111.3a5.09,5.09,0,0,1,0,10.17ZM93.62,26a3.09,3.09,0,1,0,0,6.17h111.3a3.09,3.09,0,0,0,0-6.17Z"/><circle class="cls-76" cx="25.33" cy="47.29" r="5"/><circle class="cls-76" cx="12.26" cy="47.29" r="5"/><path class="cls-76" d="M320.9,103.91a3,3,0,1,1-3,3,3,3,0,0,1,3-3m0-2a5,5,0,1,0,5,5,5,5,0,0,0-5-5Z"/><path class="cls-76" d="M306.24,103.91a3,3,0,1,1-3,3,3,3,0,0,1,3-3m0-2a5,5,0,1,0,5,5,5,5,0,0,0-5-5Z"/><path class="cls-76" d="M290.9,103.91a3,3,0,1,1-3,3,3,3,0,0,1,3-3m0-2a5,5,0,1,0,5,5,5,5,0,0,0-5-5Z"/><rect class="cls-76" x="7.26" y="60.96" width="58.13" height="8.17" rx="4.09" ry="4.09" transform="translate(72.65 130.1) rotate(-180)"/><path class="cls-76" d="M308.93,21.12H282.69a5.09,5.09,0,0,1,0-10.17h26.24a5.09,5.09,0,0,1,0,10.17ZM282.69,13a3.09,3.09,0,0,0,0,6.17h26.24a3.09,3.09,0,0,0,0-6.17Z"/><rect class="cls-76" x="7.26" y="108.63" width="42.02" height="8.17" rx="4.09" ry="4.09" transform="translate(56.54 225.43) rotate(-180)"/><path class="cls-76" d="M27.93,80.79a3,3,0,1,1-3,3,3,3,0,0,1,3-3m0-2a5,5,0,1,0,5,5,5,5,0,0,0-5-5Z"/><path class="cls-76" d="M43.26,80.79a3,3,0,1,1-3,3,3,3,0,0,1,3-3m0-2a5,5,0,1,0,5,5,5,5,0,0,0-5-5Z"/><path class="cls-76" d="M12.26,80.12a3,3,0,1,1-3,3,3,3,0,0,1,3-3m0-2a5,5,0,1,0,5,5,5,5,0,0,0-5-5Z"/><circle class="cls-76" cx="59.43" cy="84.29" r="5"/><rect class="cls-76" x="7.26" y="25.46" width="51.43" height="8.17" rx="4.09" ry="4.09" transform="translate(65.95 59.1) rotate(-180)"/><circle class="cls-76" cx="51.46" cy="47.29" r="5"/><circle class="cls-76" cx="38.39" cy="47.29" r="5"/><circle class="cls-76" cx="77.59" cy="47.29" r="5"/><circle class="cls-76" cx="64.53" cy="47.29" r="5"/><rect class="cls-76" x="60.26" y="9.96" width="58.13" height="8.17" rx="4.09" ry="4.09" transform="translate(178.65 28.1) rotate(-180)"/><path class="cls-76" d="M202.26,45.29a3,3,0,1,1-3,3,3,3,0,0,1,3-3m0-2a5,5,0,1,0,5,5,5,5,0,0,0-5-5Z"/><path class="cls-77" d="M186.93,45.29a3,3,0,1,1-3,3,3,3,0,0,1,3-3m0-2a5,5,0,1,0,5,5,5,5,0,0,0-5-5Z"/><circle class="cls-77" cx="170.76" cy="47.79" r="5"/><rect class="cls-3" x="139.95" y="13.77" width="60.84" height="98.25"/><g class="cls-78"><rect class="cls-3" x="-912.29" y="-642.45" width="1581.89" height="1108.74"/><g class="cls-79"><rect class="cls-3" x="136.74" y="10.8" width="67.25" height="104.19"/></g></g><rect class="cls-80" x="145.14" y="18.78" width="50.57" height="76.85"/><circle class="cls-80" cx="170.26" cy="104.65" r="4.86"/><circle class="cls-81" cx="175.91" cy="54.04" r="7.66" transform="translate(-1.89 6.59) rotate(-2.13)"/><path class="cls-81" d="M161.08,58.56a.88.88,0,0,1-.21-1.74l4.27-1.07a.88.88,0,0,1,.43,1.71l-4.27,1.07Z"/><path class="cls-81" d="M186.11,52.28a.88.88,0,0,1-.21-1.74l4.27-1.07a.88.88,0,0,1,.43,1.71l-4.27,1.07Z"/><path class="cls-81" d="M180.91,45.78a.87.87,0,0,1-.45-.12.88.88,0,0,1-.31-1.21l3-5.07a.88.88,0,0,1,1.52.91l-3,5.07A.88.88,0,0,1,180.91,45.78Z"/><path class="cls-81" d="M166.79,69.42a.88.88,0,0,1-.76-1.33l3.37-5.66a.88.88,0,1,1,1.52.9L167.55,69A.88.88,0,0,1,166.79,69.42Z"/><path class="cls-81" d="M173.13,44.5a.88.88,0,0,1-.86-.67l-1.07-4.27a.88.88,0,1,1,1.71-.43L174,43.41a.88.88,0,0,1-.64,1.07Z"/><path class="cls-81" d="M179.41,69.53a.88.88,0,0,1-.86-.67l-1.07-4.27a.88.88,0,1,1,1.71-.43l1.07,4.27a.88.88,0,0,1-.64,1.07Z"/><path class="cls-81" d="M166.55,49.39a.88.88,0,0,1-.45-.13l-2.63-1.57a.88.88,0,1,1,.91-1.51L167,47.75a.88.88,0,0,1-.45,1.64Z"/><path class="cls-81" d="M190.56,63.76a.88.88,0,0,1-.45-.12l-5.65-3.38a.88.88,0,0,1,.91-1.52L191,62.12a.88.88,0,0,1-.45,1.64Z"/><path class="cls-81" d="M161.08,58.56a.88.88,0,0,1-.21-1.74l4.27-1.07a.88.88,0,0,1,.43,1.71l-4.27,1.07Z"/><path class="cls-81" d="M186.11,52.28a.88.88,0,0,1-.21-1.74l4.27-1.07a.88.88,0,0,1,.43,1.71l-4.27,1.07Z"/><path class="cls-82" d="M157.72,57.32c.05-.32.11-.63.16-.94a6.46,6.46,0,0,1,1.92-3.81,6.28,6.28,0,0,1,3.45-1.77A6.7,6.7,0,0,1,171,56.36a5.4,5.4,0,0,1,.08.72.23.23,0,0,0,.18.25,5.87,5.87,0,0,1,3.69,4.58,5.7,5.7,0,0,1-1,4.32A5.59,5.59,0,0,1,170,68.62a8.63,8.63,0,0,1-1.17.08H156.28a6,6,0,0,1-3.77-1.19,5.88,5.88,0,0,1-1-8.36A5.64,5.64,0,0,1,155.11,57a4.32,4.32,0,0,1,1.55,0C157,57.08,157.35,57.21,157.72,57.32Z"/><rect class="cls-4" x="125.79" y="-132.96" width="94" height="15.52"/><g class="cls-84"><rect class="cls-4" x="-1031.21" y="-665.96" width="1440" height="1024"/></g><rect class="cls-4" x="535.37" y="-303.22" width="51.28" height="82.81"/><g class="cls-88"><rect class="cls-4" x="-351.49" y="-856.31" width="1333.27" height="934.48"/></g></svg>