<svg id="Layer_1" data-name="Layer 1" xmlns="http://www.w3.org/2000/svg" xmlns:xlink="http://www.w3.org/1999/xlink" viewBox="0 0 343 125"><defs><style>.cls-1,.cls-2,.cls-39{fill:none;}.cls-2{clip-rule:evenodd;}.cls-3{fill:#152935;}.cls-4{fill:#4178be;}.cls-5{clip-path:url(#clip-path);}.cls-6{clip-path:url(#clip-path-2);}.cls-7{clip-path:url(#clip-path-3);}.cls-8{clip-path:url(#clip-path-4);}.cls-9{clip-path:url(#clip-path-5);}.cls-10{clip-path:url(#clip-path-6);}.cls-11{clip-path:url(#clip-path-7);}.cls-12{clip-path:url(#clip-path-8);}.cls-13{clip-path:url(#clip-path-9);}.cls-14{clip-path:url(#clip-path-10);}.cls-15{clip-path:url(#clip-path-11);}.cls-16{clip-path:url(#clip-path-12);}.cls-17{clip-path:url(#clip-path-13);}.cls-18{clip-path:url(#clip-path-14);}.cls-19{clip-path:url(#clip-path-15);}.cls-20{clip-path:url(#clip-path-16);}.cls-21{clip-path:url(#clip-path-17);}.cls-22{clip-path:url(#clip-path-18);}.cls-23{clip-path:url(#clip-path-19);}.cls-24{clip-path:url(#clip-path-20);}.cls-25{clip-path:url(#clip-path-21);}.cls-26{clip-path:url(#clip-path-22);}.cls-27{clip-path:url(#clip-path-23);}.cls-28{clip-path:url(#clip-path-24);}.cls-29,.cls-33{isolation:isolate;}.cls-30{clip-path:url(#clip-path-25);}.cls-31{clip-path:url(#clip-path-26);}.cls-32{fill:#41d6c3;}.cls-33{opacity:0.25;}.cls-34{clip-path:url(#clip-path-28);}.cls-35{clip-path:url(#clip-path-29);}.cls-36{clip-path:url(#clip-path-30);}.cls-37{fill:#fff;}.cls-38{clip-path:url(#clip-path-31);}.cls-39{stroke:#fff;stroke-miterlimit:10;stroke-width:2px;}.cls-40{clip-path:url(#clip-path-34);}.cls-41{clip-path:url(#clip-path-37);}.cls-42{clip-path:url(#clip-path-39);}.cls-43{clip-path:url(#clip-path-42);}.cls-44{clip-path:url(#clip-path-44);}.cls-45{clip-path:url(#clip-path-46);}.cls-46{clip-path:url(#clip-path-48);}.cls-47{clip-path:url(#clip-path-50);}.cls-48{clip-path:url(#clip-path-51);}.cls-49{fill:#ecf0f1;}.cls-50{clip-path:url(#clip-path-52);}.cls-51{fill:#244a61;}.cls-52{clip-path:url(#clip-path-54);}.cls-53{fill:#ed7161;}.cls-54{clip-path:url(#clip-path-56);}.cls-55{fill:#f0c419;}.cls-56{clip-path:url(#clip-path-58);}.cls-57{fill:#4fba6f;}.cls-58{clip-path:url(#clip-path-60);}.cls-59{fill:#95a5a5;}.cls-60{clip-path:url(#clip-path-62);}.cls-61{fill:#bdc3c7;}.cls-62{clip-path:url(#clip-path-64);}.cls-63{clip-path:url(#clip-path-66);}.cls-64{clip-path:url(#clip-path-68);}.cls-65{clip-path:url(#clip-path-70);}.cls-66{clip-path:url(#clip-path-72);}.cls-67{clip-path:url(#clip-path-74);}.cls-68{clip-path:url(#clip-path-76);}.cls-69{clip-path:url(#clip-path-78);}.cls-70{clip-path:url(#clip-path-80);}.cls-71{clip-path:url(#clip-path-82);}.cls-72{fill:#56a8fd;}.cls-73{clip-path:url(#clip-path-84);}.cls-74{fill:#305b81;}.cls-75{clip-path:url(#clip-path-86);}.cls-76{fill:#68eed8;}.cls-77{clip-path:url(#clip-path-88);}.cls-78{fill:#008671;}.cls-79{clip-path:url(#clip-path-90);}.cls-80{clip-path:url(#clip-path-91);}.cls-81{clip-path:url(#clip-path-92);}.cls-82{clip-path:url(#clip-path-93);}.cls-83{clip-path:url(#clip-path-94);}.cls-84{clip-path:url(#clip-path-95);}.cls-85{clip-path:url(#clip-path-96);}.cls-86{clip-path:url(#clip-path-97);}.cls-87{clip-path:url(#clip-path-98);}</style><clipPath id="clip-path"><rect class="cls-1" x="-765.15" y="2.19" width="344.19" height="126.25"/></clipPath><clipPath id="clip-path-2"><rect class="cls-1" x="-641.15" y="28.69" width="94" height="75"/></clipPath><clipPath id="clip-path-3"><rect class="cls-1" x="-641.15" y="28.69" width="94" height="15.52"/></clipPath><clipPath id="clip-path-4"><path class="cls-2" d="M-629.4,36.45a3.9,3.9,0,0,1-3.92,3.88,3.9,3.9,0,0,1-3.92-3.88,3.9,3.9,0,0,1,3.92-3.88,3.9,3.9,0,0,1,3.92,3.88"/></clipPath><clipPath id="clip-path-5"><path class="cls-2" d="M-617.65,36.45a3.9,3.9,0,0,1-3.92,3.88,3.9,3.9,0,0,1-3.92-3.88,3.9,3.9,0,0,1,3.92-3.88,3.9,3.9,0,0,1,3.92,3.88"/></clipPath><clipPath id="clip-path-6"><path class="cls-2" d="M-605.9,36.45a3.9,3.9,0,0,1-3.92,3.88,3.9,3.9,0,0,1-3.92-3.88,3.9,3.9,0,0,1,3.92-3.88,3.9,3.9,0,0,1,3.92,3.88"/></clipPath><clipPath id="clip-path-7"><rect class="cls-1" x="-641.15" y="44.21" width="9.14" height="59.48"/></clipPath><clipPath id="clip-path-8"><path class="cls-2" d="M-635.93,52a1.3,1.3,0,0,0,1.31-1.29,1.3,1.3,0,0,0-1.31-1.29h-1.31a1.3,1.3,0,0,0-1.31,1.29A1.3,1.3,0,0,0-637.23,52Z"/></clipPath><clipPath id="clip-path-9"><path class="cls-2" d="M-635.93,54.55h-1.31a1.3,1.3,0,0,0-1.31,1.29,1.3,1.3,0,0,0,1.31,1.29h1.31a1.3,1.3,0,0,0,1.31-1.29,1.3,1.3,0,0,0-1.31-1.29"/></clipPath><clipPath id="clip-path-10"><path class="cls-2" d="M-635.93,59.72h-1.31A1.3,1.3,0,0,0-638.54,61a1.3,1.3,0,0,0,1.31,1.29h1.31A1.3,1.3,0,0,0-634.62,61a1.3,1.3,0,0,0-1.31-1.29"/></clipPath><clipPath id="clip-path-11"><path class="cls-2" d="M-635.93,64.9h-1.31a1.3,1.3,0,0,0-1.31,1.29,1.3,1.3,0,0,0,1.31,1.29h1.31a1.3,1.3,0,0,0,1.31-1.29,1.3,1.3,0,0,0-1.31-1.29"/></clipPath><clipPath id="clip-path-12"><path class="cls-2" d="M-635.93,70.07h-1.31a1.3,1.3,0,0,0-1.31,1.29,1.3,1.3,0,0,0,1.31,1.29h1.31a1.3,1.3,0,0,0,1.31-1.29,1.3,1.3,0,0,0-1.31-1.29"/></clipPath><clipPath id="clip-path-13"><path class="cls-2" d="M-635.93,75.24h-1.31a1.3,1.3,0,0,0-1.31,1.29,1.3,1.3,0,0,0,1.31,1.29h1.31a1.3,1.3,0,0,0,1.31-1.29,1.3,1.3,0,0,0-1.31-1.29"/></clipPath><clipPath id="clip-path-14"><path class="cls-2" d="M-635.93,80.41h-1.31a1.3,1.3,0,0,0-1.31,1.29A1.3,1.3,0,0,0-637.23,83h1.31a1.3,1.3,0,0,0,1.31-1.29,1.3,1.3,0,0,0-1.31-1.29"/></clipPath><clipPath id="clip-path-15"><path class="cls-2" d="M-635.93,85.59h-1.31a1.3,1.3,0,0,0-1.31,1.29,1.3,1.3,0,0,0,1.31,1.29h1.31a1.3,1.3,0,0,0,1.31-1.29,1.3,1.3,0,0,0-1.31-1.29"/></clipPath><clipPath id="clip-path-16"><path class="cls-2" d="M-635.93,90.76h-1.31a1.3,1.3,0,0,0-1.31,1.29,1.3,1.3,0,0,0,1.31,1.29h1.31a1.3,1.3,0,0,0,1.31-1.29,1.3,1.3,0,0,0-1.31-1.29"/></clipPath><clipPath id="clip-path-17"><path class="cls-2" d="M-635.93,95.93h-1.31a1.3,1.3,0,0,0-1.31,1.29,1.3,1.3,0,0,0,1.31,1.29h1.31a1.3,1.3,0,0,0,1.31-1.29,1.3,1.3,0,0,0-1.31-1.29"/></clipPath><clipPath id="clip-path-18"><path class="cls-2" d="M-598.63,77.44H-599c-6.48,0-11.73-5-11.73-11.1s5.25-11.1,11.73-11.1,11.73,5,11.73,11.1a10.77,10.77,0,0,1-3.4,7.81l-8,9.42Z"/></clipPath><clipPath id="clip-path-19"><path class="cls-2" d="M-580.59,88.35h.48c8.32,0,15.07-6.38,15.07-14.25s-6.75-14.25-15.07-14.25-15.07,6.38-15.07,14.25a13.83,13.83,0,0,0,4.36,10l10.23,12.1Z"/></clipPath><clipPath id="clip-path-20"><ellipse class="cls-1" cx="-585.46" cy="74.57" rx="1.94" ry="1.84"/></clipPath><clipPath id="clip-path-21"><ellipse class="cls-1" cx="-579.62" cy="74.57" rx="1.94" ry="1.84"/></clipPath><clipPath id="clip-path-22"><ellipse class="cls-1" cx="-573.79" cy="74.57" rx="1.94" ry="1.84"/></clipPath><clipPath id="clip-path-23"><rect class="cls-1" x="0.01" y="-0.51" width="343.66" height="125.76"/></clipPath><clipPath id="clip-path-24"><rect class="cls-1" x="-1034.3" y="-512.94" width="1437.65" height="1034.97"/></clipPath><clipPath id="clip-path-25"><rect class="cls-1" x="-4.98" y="-5.56" width="392.36" height="136.45"/></clipPath><clipPath id="clip-path-26"><rect class="cls-1" x="0.01" y="-0.51" width="344.44" height="126.34"/></clipPath><clipPath id="clip-path-28"><rect class="cls-1" x="-2.99" y="30.82" width="390.36" height="65.7"/></clipPath><clipPath id="clip-path-29"><path class="cls-2" d="M311.31,88.09h-140a4.5,4.5,0,0,1,0-9h140a4.5,4.5,0,0,1,0,9"/></clipPath><clipPath id="clip-path-30"><rect class="cls-1" x="0.01" y="-0.51" width="344.44" height="91.98"/></clipPath><clipPath id="clip-path-31"><path class="cls-2" d="M216.26,44.74H71.34a4.5,4.5,0,0,1,0-9H216.26a4.5,4.5,0,0,1,0,9"/></clipPath><clipPath id="clip-path-34"><path class="cls-2" d="M101.21,86.2H41.79a4.5,4.5,0,0,1,0-9h59.42a4.5,4.5,0,0,1,0,9"/></clipPath><clipPath id="clip-path-37"><path class="cls-2" d="M3.12,83.27a3.31,3.31,0,0,1,0-6.61,3.31,3.31,0,0,1,0,6.61m0,2.2a5.51,5.51,0,0,0,0-11,5.51,5.51,0,0,0,0,11"/></clipPath><clipPath id="clip-path-39"><path class="cls-2" d="M19.78,83.27A3.31,3.31,0,1,1,23,80a3.29,3.29,0,0,1-3.26,3.31m0,2.2A5.51,5.51,0,1,0,14.35,80a5.47,5.47,0,0,0,5.44,5.51"/></clipPath><clipPath id="clip-path-42"><path class="cls-2" d="M382.57,88H328.26a4.5,4.5,0,0,1,0-9h54.31a4.5,4.5,0,0,1,0,9"/></clipPath><clipPath id="clip-path-44"><path class="cls-2" d="M232.66,49.11a3.31,3.31,0,1,1,3.26-3.31,3.29,3.29,0,0,1-3.26,3.31m0,2.2a5.51,5.51,0,1,0-5.44-5.51,5.47,5.47,0,0,0,5.44,5.51"/></clipPath><clipPath id="clip-path-46"><path class="cls-2" d="M249.32,49.11a3.31,3.31,0,1,1,3.26-3.31,3.29,3.29,0,0,1-3.26,3.31m0,2.2a5.51,5.51,0,1,0-5.44-5.51,5.47,5.47,0,0,0,5.44,5.51"/></clipPath><clipPath id="clip-path-48"><path class="cls-2" d="M261.46,46.35a5.44,5.44,0,1,1,5.44,5.51,5.47,5.47,0,0,1-5.44-5.51"/></clipPath><clipPath id="clip-path-50"><rect class="cls-1" x="121.01" y="26.49" width="94" height="75"/></clipPath><clipPath id="clip-path-51"><rect class="cls-1" x="-1035.99" y="-506.51" width="1440" height="1024"/></clipPath><clipPath id="clip-path-52"><rect class="cls-1" x="121.01" y="26.49" width="94" height="15.52"/></clipPath><clipPath id="clip-path-54"><path class="cls-2" d="M132.76,34.25a3.92,3.92,0,1,1-3.92-3.88,3.9,3.9,0,0,1,3.92,3.88"/></clipPath><clipPath id="clip-path-56"><path class="cls-2" d="M144.51,34.25a3.92,3.92,0,1,1-3.92-3.88,3.9,3.9,0,0,1,3.92,3.88"/></clipPath><clipPath id="clip-path-58"><path class="cls-2" d="M156.26,34.25a3.92,3.92,0,1,1-3.92-3.88,3.9,3.9,0,0,1,3.92,3.88"/></clipPath><clipPath id="clip-path-60"><rect class="cls-1" x="121.01" y="42.01" width="9.14" height="59.48"/></clipPath><clipPath id="clip-path-62"><path class="cls-2" d="M126.23,49.77a1.29,1.29,0,1,0,0-2.59h-1.31a1.29,1.29,0,1,0,0,2.59Z"/></clipPath><clipPath id="clip-path-64"><path class="cls-2" d="M126.23,52.35h-1.31a1.29,1.29,0,1,0,0,2.59h1.31a1.29,1.29,0,1,0,0-2.59"/></clipPath><clipPath id="clip-path-66"><path class="cls-2" d="M126.23,57.53h-1.31a1.29,1.29,0,1,0,0,2.59h1.31a1.29,1.29,0,1,0,0-2.59"/></clipPath><clipPath id="clip-path-68"><path class="cls-2" d="M126.23,62.7h-1.31a1.29,1.29,0,1,0,0,2.59h1.31a1.29,1.29,0,1,0,0-2.59"/></clipPath><clipPath id="clip-path-70"><path class="cls-2" d="M126.23,67.87h-1.31a1.29,1.29,0,1,0,0,2.59h1.31a1.29,1.29,0,1,0,0-2.59"/></clipPath><clipPath id="clip-path-72"><path class="cls-2" d="M126.23,73h-1.31a1.29,1.29,0,1,0,0,2.59h1.31a1.29,1.29,0,1,0,0-2.59"/></clipPath><clipPath id="clip-path-74"><path class="cls-2" d="M126.23,78.21h-1.31a1.29,1.29,0,1,0,0,2.59h1.31a1.29,1.29,0,1,0,0-2.59"/></clipPath><clipPath id="clip-path-76"><path class="cls-2" d="M126.23,83.39h-1.31a1.29,1.29,0,1,0,0,2.59h1.31a1.29,1.29,0,1,0,0-2.59"/></clipPath><clipPath id="clip-path-78"><path class="cls-2" d="M126.23,88.56h-1.31a1.29,1.29,0,1,0,0,2.59h1.31a1.29,1.29,0,1,0,0-2.59"/></clipPath><clipPath id="clip-path-80"><path class="cls-2" d="M126.23,93.73h-1.31a1.29,1.29,0,1,0,0,2.59h1.31a1.29,1.29,0,1,0,0-2.59"/></clipPath><clipPath id="clip-path-82"><polygon class="cls-2" points="152.54 86.13 168.21 86.25 176.05 72.66 145.21 72.36 152.54 86.13"/></clipPath><clipPath id="clip-path-84"><polygon class="cls-2" points="144.74 72.69 152.47 86.32 168.11 86.28 152.63 58.8 144.74 72.69"/></clipPath><clipPath id="clip-path-86"><polygon class="cls-2" points="185.47 54.85 169.81 54.73 161.96 68.32 192.81 68.62 185.47 54.85"/></clipPath><clipPath id="clip-path-88"><polygon class="cls-2" points="193.27 68.29 185.55 54.66 169.91 54.7 185.39 82.18 193.27 68.29"/></clipPath><clipPath id="clip-path-90"><rect class="cls-1" x="-383.66" y="-318.51" width="343.66" height="124.43"/></clipPath><clipPath id="clip-path-91"><rect class="cls-1" x="-1.15" y="-156.64" width="344.19" height="125.5"/></clipPath><clipPath id="clip-path-92"><rect class="cls-3" x="-242.53" y="15.27" width="60.84" height="98.25"/></clipPath><clipPath id="clip-path-93"><rect class="cls-1" x="-256.7" y="-131.46" width="94" height="75"/></clipPath><clipPath id="clip-path-94"><rect class="cls-4" x="-256.7" y="-131.46" width="94" height="15.52"/></clipPath><clipPath id="clip-path-95"><path class="cls-2" d="M-244.95-123.7a3.9,3.9,0,0,1-3.92,3.88,3.9,3.9,0,0,1-3.92-3.88,3.9,3.9,0,0,1,3.92-3.88,3.9,3.9,0,0,1,3.92,3.88"/></clipPath><clipPath id="clip-path-96"><path class="cls-2" d="M-233.2-123.7a3.9,3.9,0,0,1-3.92,3.88A3.9,3.9,0,0,1-241-123.7a3.9,3.9,0,0,1,3.92-3.88,3.9,3.9,0,0,1,3.92,3.88"/></clipPath><clipPath id="clip-path-97"><path class="cls-2" d="M-221.45-123.7a3.9,3.9,0,0,1-3.92,3.88,3.9,3.9,0,0,1-3.92-3.88,3.9,3.9,0,0,1,3.92-3.88,3.9,3.9,0,0,1,3.92,3.88"/></clipPath><clipPath id="clip-path-98"><rect class="cls-4" x="152.89" y="-301.72" width="51.28" height="82.81"/></clipPath></defs><title>Subheros</title><g class="cls-27"><g class="cls-28"><g class="cls-29"><g class="cls-30"><g class="cls-31"><rect class="cls-32" x="-4.98" y="-5.56" width="353.64" height="135.87"/></g><g class="cls-31"><g class="cls-33"><g class="cls-34"><g class="cls-35"><g class="cls-36"><rect class="cls-37" x="161.85" y="74.03" width="158.89" height="19.11"/></g></g><g class="cls-38"><g class="cls-36"><rect class="cls-37" x="61.9" y="30.68" width="163.79" height="19.11"/></g></g><g class="cls-36"><path class="cls-39" d="M143.75,65.47H81.06a4.5,4.5,0,0,1,0-9h62.69a4.5,4.5,0,0,1,0,9Z"/></g><g class="cls-40"><g class="cls-36"><rect class="cls-37" x="32.36" y="72.14" width="78.28" height="19.11"/></g></g><g class="cls-36"><path class="cls-39" d="M351.41,50.4H285.08a4.5,4.5,0,0,1,0-9h66.33a4.5,4.5,0,0,1,0,9Z"/><path class="cls-39" d="M350.75,71.45h-121a4.5,4.5,0,0,1,0-9h121a4.5,4.5,0,0,1,0,9Z"/></g><g class="cls-41"><g class="cls-36"><rect class="cls-37" x="-7.31" y="69.4" width="20.85" height="21.13"/></g></g><g class="cls-42"><g class="cls-36"><rect class="cls-37" x="9.36" y="69.4" width="20.85" height="21.13"/></g></g><g class="cls-36"><path class="cls-39" d="M145.23,85.84H116.71a4.5,4.5,0,0,1,0-9h28.52a4.5,4.5,0,0,1,0,9Z"/></g><g class="cls-43"><g class="cls-36"><rect class="cls-37" x="318.83" y="73.97" width="73.17" height="19.11"/></g></g><g class="cls-44"><g class="cls-36"><rect class="cls-37" x="222.23" y="35.24" width="20.85" height="21.13"/></g></g><g class="cls-45"><g class="cls-36"><rect class="cls-37" x="238.9" y="35.24" width="20.85" height="21.13"/></g></g><g class="cls-46"><g class="cls-36"><rect class="cls-37" x="256.47" y="35.79" width="20.85" height="21.13"/></g></g></g></g></g></g></g></g></g><g class="cls-47"><g class="cls-48"><rect class="cls-49" x="116.01" y="21.49" width="104" height="85"/></g></g><g class="cls-50"><g class="cls-48"><rect class="cls-51" x="116.01" y="21.49" width="104" height="25.52"/></g></g><g class="cls-52"><g class="cls-48"><rect class="cls-53" x="119.92" y="25.37" width="17.83" height="17.76"/></g></g><g class="cls-54"><g class="cls-48"><rect class="cls-55" x="131.67" y="25.37" width="17.83" height="17.76"/></g></g><g class="cls-56"><g class="cls-48"><rect class="cls-57" x="143.42" y="25.37" width="17.83" height="17.76"/></g></g><g class="cls-58"><g class="cls-48"><rect class="cls-59" x="116.01" y="37.01" width="19.14" height="69.48"/></g></g><g class="cls-60"><g class="cls-48"><rect class="cls-61" x="118.62" y="42.18" width="13.92" height="12.59"/></g></g><g class="cls-62"><g class="cls-48"><rect class="cls-61" x="118.62" y="47.35" width="13.92" height="12.59"/></g></g><g class="cls-63"><g class="cls-48"><rect class="cls-61" x="118.62" y="52.53" width="13.92" height="12.59"/></g></g><g class="cls-64"><g class="cls-48"><rect class="cls-61" x="118.62" y="57.7" width="13.92" height="12.59"/></g></g><g class="cls-65"><g class="cls-48"><rect class="cls-61" x="118.62" y="62.87" width="13.92" height="12.59"/></g></g><g class="cls-66"><g class="cls-48"><rect class="cls-61" x="118.62" y="68.04" width="13.92" height="12.59"/></g></g><g class="cls-67"><g class="cls-48"><rect class="cls-61" x="118.62" y="73.21" width="13.92" height="12.59"/></g></g><g class="cls-68"><g class="cls-48"><rect class="cls-61" x="118.62" y="78.39" width="13.92" height="12.59"/></g></g><g class="cls-69"><g class="cls-48"><rect class="cls-61" x="118.62" y="83.56" width="13.92" height="12.59"/></g></g><g class="cls-70"><g class="cls-48"><rect class="cls-61" x="118.62" y="88.73" width="13.92" height="12.59"/></g></g><g class="cls-71"><g class="cls-48"><rect class="cls-72" x="141.85" y="57.66" width="33.42" height="36.86" transform="translate(13.39 175.37) rotate(-60)"/></g></g><g class="cls-73"><g class="cls-48"><rect class="cls-74" x="139.74" y="53.8" width="33.37" height="37.51"/></g></g><g class="cls-75"><g class="cls-48"><rect class="cls-76" x="162.74" y="46.46" width="33.42" height="36.86" transform="translate(33.52 187.85) rotate(-60)"/></g></g><g class="cls-77"><g class="cls-48"><rect class="cls-78" x="164.9" y="49.66" width="33.37" height="37.51"/></g></g><rect class="cls-3" x="-242.53" y="15.27" width="60.84" height="98.25"/><g class="cls-81"><rect class="cls-3" x="-1294.77" y="-640.95" width="1581.89" height="1108.74"/></g><rect class="cls-4" x="-256.7" y="-131.46" width="94" height="15.52"/><g class="cls-83"><rect class="cls-4" x="-1413.7" y="-664.46" width="1440" height="1024"/></g><rect class="cls-4" x="152.89" y="-301.72" width="51.28" height="82.81"/><g class="cls-87"><rect class="cls-4" x="-733.97" y="-854.81" width="1333.27" height="934.48"/></g></svg>