<svg id="Layer_1" data-name="Layer 1" xmlns="http://www.w3.org/2000/svg" xmlns:xlink="http://www.w3.org/1999/xlink" viewBox="0 0 343 125"><defs><style>.cls-1,.cls-2,.cls-5,.cls-61,.cls-96{fill:none;}.cls-2{clip-rule:evenodd;}.cls-3{fill:#152935;}.cls-4{fill:#4178be;}.cls-5{fill-rule:evenodd;}.cls-6{clip-path:url(#clip-path);}.cls-7{clip-path:url(#clip-path-2);}.cls-8{clip-path:url(#clip-path-3);}.cls-9{clip-path:url(#clip-path-4);}.cls-10{clip-path:url(#clip-path-5);}.cls-11{clip-path:url(#clip-path-6);}.cls-12{clip-path:url(#clip-path-7);}.cls-13{clip-path:url(#clip-path-8);}.cls-14{clip-path:url(#clip-path-9);}.cls-15{clip-path:url(#clip-path-10);}.cls-16{clip-path:url(#clip-path-11);}.cls-17{clip-path:url(#clip-path-12);}.cls-18{clip-path:url(#clip-path-13);}.cls-19{clip-path:url(#clip-path-14);}.cls-20{clip-path:url(#clip-path-15);}.cls-21{clip-path:url(#clip-path-16);}.cls-22{clip-path:url(#clip-path-17);}.cls-23{clip-path:url(#clip-path-18);}.cls-24{clip-path:url(#clip-path-19);}.cls-25{clip-path:url(#clip-path-20);}.cls-26{clip-path:url(#clip-path-21);}.cls-27{clip-path:url(#clip-path-22);}.cls-28{clip-path:url(#clip-path-23);}.cls-29{clip-path:url(#clip-path-24);}.cls-30{clip-path:url(#clip-path-25);}.cls-31{clip-path:url(#clip-path-26);}.cls-32{clip-path:url(#clip-path-27);}.cls-33{clip-path:url(#clip-path-28);}.cls-34{clip-path:url(#clip-path-29);}.cls-35{clip-path:url(#clip-path-30);}.cls-36{clip-path:url(#clip-path-31);}.cls-37{clip-path:url(#clip-path-32);}.cls-38{clip-path:url(#clip-path-33);}.cls-39{clip-path:url(#clip-path-34);}.cls-40{clip-path:url(#clip-path-35);}.cls-41{clip-path:url(#clip-path-36);}.cls-42{clip-path:url(#clip-path-37);}.cls-43{clip-path:url(#clip-path-38);}.cls-44{clip-path:url(#clip-path-39);}.cls-45{clip-path:url(#clip-path-40);}.cls-46{clip-path:url(#clip-path-41);}.cls-47{clip-path:url(#clip-path-42);}.cls-48{clip-path:url(#clip-path-43);}.cls-49{clip-path:url(#clip-path-44);}.cls-50{clip-path:url(#clip-path-45);}.cls-51,.cls-55{isolation:isolate;}.cls-52{clip-path:url(#clip-path-46);}.cls-53{clip-path:url(#clip-path-47);}.cls-54{fill:#41d6c3;}.cls-55{opacity:0.25;}.cls-56{clip-path:url(#clip-path-49);}.cls-57{clip-path:url(#clip-path-50);}.cls-58{clip-path:url(#clip-path-51);}.cls-59{fill:#fff;}.cls-60{clip-path:url(#clip-path-52);}.cls-61{stroke:#fff;stroke-width:2px;}.cls-61,.cls-96{stroke-miterlimit:10;}.cls-62{clip-path:url(#clip-path-55);}.cls-63{clip-path:url(#clip-path-58);}.cls-64{clip-path:url(#clip-path-60);}.cls-65{clip-path:url(#clip-path-63);}.cls-66{clip-path:url(#clip-path-65);}.cls-67{clip-path:url(#clip-path-67);}.cls-68{clip-path:url(#clip-path-69);}.cls-69{clip-path:url(#clip-path-71);}.cls-70{clip-path:url(#clip-path-72);}.cls-71{clip-path:url(#clip-path-73);}.cls-72{clip-path:url(#clip-path-74);}.cls-73{clip-path:url(#clip-path-75);}.cls-74{clip-path:url(#clip-path-76);}.cls-75{clip-path:url(#clip-path-77);}.cls-76{clip-path:url(#clip-path-78);}.cls-77{clip-path:url(#clip-path-79);}.cls-78{clip-path:url(#clip-path-80);}.cls-79{clip-path:url(#clip-path-81);}.cls-80{clip-path:url(#clip-path-82);}.cls-81{clip-path:url(#clip-path-83);}.cls-82{clip-path:url(#clip-path-84);}.cls-83{clip-path:url(#clip-path-85);}.cls-84{clip-path:url(#clip-path-86);}.cls-85{clip-path:url(#clip-path-87);}.cls-86{clip-path:url(#clip-path-88);}.cls-87{clip-path:url(#clip-path-89);}.cls-88{clip-path:url(#clip-path-90);}.cls-89{clip-path:url(#clip-path-91);}.cls-90{clip-path:url(#clip-path-92);}.cls-91{clip-path:url(#clip-path-93);}.cls-92{clip-path:url(#clip-path-94);}.cls-93{clip-path:url(#clip-path-95);}.cls-94{clip-path:url(#clip-path-96);}.cls-95{fill:#ecf0f1;}.cls-96{stroke:#244a61;stroke-width:6.75px;}.cls-97{clip-path:url(#clip-path-98);}.cls-98{fill:#244a61;}.cls-99{clip-path:url(#clip-path-100);}.cls-100{fill:#ed7161;}.cls-101{clip-path:url(#clip-path-102);}.cls-102{fill:#f0c419;}.cls-103{clip-path:url(#clip-path-104);}.cls-104{fill:#4fba6f;}.cls-105{clip-path:url(#clip-path-106);}.cls-106{clip-path:url(#clip-path-108);}.cls-107{fill:#264a60;}.cls-108{clip-path:url(#clip-path-110);}.cls-109{clip-path:url(#clip-path-112);}.cls-110{fill:#94a3ab;}.cls-111{clip-path:url(#clip-path-113);}.cls-112{fill:#00b29f;}.cls-113{clip-path:url(#clip-path-114);}.cls-114{clip-path:url(#clip-path-115);}.cls-115{fill:#5aaafa;}.cls-116{clip-path:url(#clip-path-116);}.cls-117{clip-path:url(#clip-path-117);}.cls-118{clip-path:url(#clip-path-118);}.cls-119{fill:#90908f;}.cls-120{clip-path:url(#clip-path-119);}.cls-121{clip-path:url(#clip-path-120);}.cls-122{clip-path:url(#clip-path-121);}.cls-123{clip-path:url(#clip-path-122);}.cls-124{clip-path:url(#clip-path-123);}.cls-125{clip-path:url(#clip-path-124);}.cls-126{clip-path:url(#clip-path-125);}.cls-127{clip-path:url(#clip-path-126);}.cls-128{clip-path:url(#clip-path-129);}.cls-129{clip-path:url(#clip-path-130);}</style><clipPath id="clip-path"><rect class="cls-1" x="-382.57" y="320.78" width="344.19" height="126.25"/></clipPath><clipPath id="clip-path-2"><rect class="cls-1" x="-258.57" y="347.28" width="94" height="75"/></clipPath><clipPath id="clip-path-3"><rect class="cls-1" x="-258.57" y="347.28" width="94" height="15.52"/></clipPath><clipPath id="clip-path-4"><path class="cls-2" d="M-246.82,355a3.9,3.9,0,0,1-3.92,3.88,3.9,3.9,0,0,1-3.92-3.88,3.9,3.9,0,0,1,3.92-3.88,3.9,3.9,0,0,1,3.92,3.88"/></clipPath><clipPath id="clip-path-5"><path class="cls-2" d="M-235.07,355a3.9,3.9,0,0,1-3.92,3.88,3.9,3.9,0,0,1-3.92-3.88,3.9,3.9,0,0,1,3.92-3.88,3.9,3.9,0,0,1,3.92,3.88"/></clipPath><clipPath id="clip-path-6"><path class="cls-2" d="M-223.32,355a3.9,3.9,0,0,1-3.92,3.88,3.9,3.9,0,0,1-3.92-3.88,3.9,3.9,0,0,1,3.92-3.88,3.9,3.9,0,0,1,3.92,3.88"/></clipPath><clipPath id="clip-path-7"><rect class="cls-1" x="-258.57" y="362.79" width="9.14" height="59.48"/></clipPath><clipPath id="clip-path-8"><path class="cls-2" d="M-253.35,370.55a1.3,1.3,0,0,0,1.31-1.29,1.3,1.3,0,0,0-1.31-1.29h-1.31a1.3,1.3,0,0,0-1.31,1.29,1.3,1.3,0,0,0,1.31,1.29Z"/></clipPath><clipPath id="clip-path-9"><path class="cls-2" d="M-253.35,373.14h-1.31a1.3,1.3,0,0,0-1.31,1.29,1.3,1.3,0,0,0,1.31,1.29h1.31a1.3,1.3,0,0,0,1.31-1.29,1.3,1.3,0,0,0-1.31-1.29"/></clipPath><clipPath id="clip-path-10"><path class="cls-2" d="M-253.35,378.31h-1.31a1.3,1.3,0,0,0-1.31,1.29,1.3,1.3,0,0,0,1.31,1.29h1.31a1.3,1.3,0,0,0,1.31-1.29,1.3,1.3,0,0,0-1.31-1.29"/></clipPath><clipPath id="clip-path-11"><path class="cls-2" d="M-253.35,383.48h-1.31a1.3,1.3,0,0,0-1.31,1.29,1.3,1.3,0,0,0,1.31,1.29h1.31a1.3,1.3,0,0,0,1.31-1.29,1.3,1.3,0,0,0-1.31-1.29"/></clipPath><clipPath id="clip-path-12"><path class="cls-2" d="M-253.35,388.66h-1.31a1.3,1.3,0,0,0-1.31,1.29,1.3,1.3,0,0,0,1.31,1.29h1.31a1.3,1.3,0,0,0,1.31-1.29,1.3,1.3,0,0,0-1.31-1.29"/></clipPath><clipPath id="clip-path-13"><path class="cls-2" d="M-253.35,393.83h-1.31a1.3,1.3,0,0,0-1.31,1.29,1.3,1.3,0,0,0,1.31,1.29h1.31a1.3,1.3,0,0,0,1.31-1.29,1.3,1.3,0,0,0-1.31-1.29"/></clipPath><clipPath id="clip-path-14"><path class="cls-2" d="M-253.35,399h-1.31a1.3,1.3,0,0,0-1.31,1.29,1.3,1.3,0,0,0,1.31,1.29h1.31a1.3,1.3,0,0,0,1.31-1.29,1.3,1.3,0,0,0-1.31-1.29"/></clipPath><clipPath id="clip-path-15"><path class="cls-2" d="M-253.35,404.17h-1.31a1.3,1.3,0,0,0-1.31,1.29,1.3,1.3,0,0,0,1.31,1.29h1.31a1.3,1.3,0,0,0,1.31-1.29,1.3,1.3,0,0,0-1.31-1.29"/></clipPath><clipPath id="clip-path-16"><path class="cls-2" d="M-253.35,409.35h-1.31a1.3,1.3,0,0,0-1.31,1.29,1.3,1.3,0,0,0,1.31,1.29h1.31a1.3,1.3,0,0,0,1.31-1.29,1.3,1.3,0,0,0-1.31-1.29"/></clipPath><clipPath id="clip-path-17"><path class="cls-2" d="M-253.35,414.52h-1.31a1.3,1.3,0,0,0-1.31,1.29,1.3,1.3,0,0,0,1.31,1.29h1.31a1.3,1.3,0,0,0,1.31-1.29,1.3,1.3,0,0,0-1.31-1.29"/></clipPath><clipPath id="clip-path-18"><path class="cls-2" d="M-216.05,396h-.38c-6.48,0-11.73-5-11.73-11.1s5.25-11.1,11.73-11.1,11.73,5,11.73,11.1a10.77,10.77,0,0,1-3.4,7.81l-8,9.42Z"/></clipPath><clipPath id="clip-path-19"><path class="cls-2" d="M-198,406.94h.48c8.32,0,15.07-6.38,15.07-14.25s-6.75-14.25-15.07-14.25-15.07,6.38-15.07,14.25a13.83,13.83,0,0,0,4.36,10l10.23,12.1Z"/></clipPath><clipPath id="clip-path-20"><ellipse class="cls-1" cx="-202.88" cy="393.16" rx="1.94" ry="1.84"/></clipPath><clipPath id="clip-path-21"><ellipse class="cls-1" cx="-197.05" cy="393.16" rx="1.94" ry="1.84"/></clipPath><clipPath id="clip-path-22"><ellipse class="cls-1" cx="-191.21" cy="393.16" rx="1.94" ry="1.84"/></clipPath><clipPath id="clip-path-23"><rect class="cls-1" x="382.58" y="318.08" width="343.66" height="125.76"/></clipPath><clipPath id="clip-path-24"><rect class="cls-1" x="503.58" y="345.08" width="94" height="75"/></clipPath><clipPath id="clip-path-25"><rect class="cls-1" x="503.58" y="345.08" width="94" height="15.52"/></clipPath><clipPath id="clip-path-26"><path class="cls-2" d="M515.33,352.84a3.92,3.92,0,1,1-3.92-3.88,3.9,3.9,0,0,1,3.92,3.88"/></clipPath><clipPath id="clip-path-27"><path class="cls-2" d="M527.08,352.84a3.92,3.92,0,1,1-3.92-3.88,3.9,3.9,0,0,1,3.92,3.88"/></clipPath><clipPath id="clip-path-28"><path class="cls-2" d="M538.83,352.84a3.92,3.92,0,1,1-3.92-3.88,3.9,3.9,0,0,1,3.92,3.88"/></clipPath><clipPath id="clip-path-29"><rect class="cls-1" x="503.58" y="360.6" width="9.14" height="59.48"/></clipPath><clipPath id="clip-path-30"><path class="cls-2" d="M508.81,368.36a1.29,1.29,0,1,0,0-2.59H507.5a1.29,1.29,0,1,0,0,2.59Z"/></clipPath><clipPath id="clip-path-31"><path class="cls-2" d="M508.81,370.94H507.5a1.29,1.29,0,1,0,0,2.59h1.31a1.29,1.29,0,1,0,0-2.59"/></clipPath><clipPath id="clip-path-32"><path class="cls-2" d="M508.81,376.11H507.5a1.29,1.29,0,1,0,0,2.59h1.31a1.29,1.29,0,1,0,0-2.59"/></clipPath><clipPath id="clip-path-33"><path class="cls-2" d="M508.81,381.29H507.5a1.29,1.29,0,1,0,0,2.59h1.31a1.29,1.29,0,1,0,0-2.59"/></clipPath><clipPath id="clip-path-34"><path class="cls-2" d="M508.81,386.46H507.5a1.29,1.29,0,1,0,0,2.59h1.31a1.29,1.29,0,1,0,0-2.59"/></clipPath><clipPath id="clip-path-35"><path class="cls-2" d="M508.81,391.63H507.5a1.29,1.29,0,1,0,0,2.59h1.31a1.29,1.29,0,1,0,0-2.59"/></clipPath><clipPath id="clip-path-36"><path class="cls-2" d="M508.81,396.8H507.5a1.29,1.29,0,1,0,0,2.59h1.31a1.29,1.29,0,1,0,0-2.59"/></clipPath><clipPath id="clip-path-37"><path class="cls-2" d="M508.81,402H507.5a1.29,1.29,0,1,0,0,2.59h1.31a1.29,1.29,0,1,0,0-2.59"/></clipPath><clipPath id="clip-path-38"><path class="cls-2" d="M508.81,407.15H507.5a1.29,1.29,0,1,0,0,2.59h1.31a1.29,1.29,0,1,0,0-2.59"/></clipPath><clipPath id="clip-path-39"><path class="cls-2" d="M508.81,412.32H507.5a1.29,1.29,0,1,0,0,2.59h1.31a1.29,1.29,0,1,0,0-2.59"/></clipPath><clipPath id="clip-path-40"><polygon class="cls-2" points="535.12 404.72 550.78 404.84 558.63 391.25 527.78 390.95 535.12 404.72"/></clipPath><clipPath id="clip-path-41"><polygon class="cls-2" points="527.32 391.28 535.04 404.9 550.68 404.87 535.2 377.39 527.32 391.28"/></clipPath><clipPath id="clip-path-42"><polygon class="cls-2" points="568.05 373.44 552.38 373.32 544.54 386.91 575.38 387.21 568.05 373.44"/></clipPath><clipPath id="clip-path-43"><polygon class="cls-2" points="575.85 386.88 568.12 373.25 552.48 373.29 567.96 400.77 575.85 386.88"/></clipPath><clipPath id="clip-path-44"><rect class="cls-1" x="-1.08" y="0.08" width="343.66" height="124.43"/></clipPath><clipPath id="clip-path-45"><rect class="cls-1" x="-1035.39" y="-506.92" width="1437.65" height="1024"/></clipPath><clipPath id="clip-path-46"><rect class="cls-1" x="-6.08" y="-4.92" width="392.36" height="135"/></clipPath><clipPath id="clip-path-47"><rect class="cls-1" x="-1.08" y="0.08" width="344.44" height="125"/></clipPath><clipPath id="clip-path-49"><rect class="cls-1" x="-4.08" y="31.08" width="390.36" height="65"/></clipPath><clipPath id="clip-path-50"><path class="cls-2" d="M310.22,87.74h-140a4.46,4.46,0,0,1,0-8.91h140a4.46,4.46,0,0,1,0,8.91"/></clipPath><clipPath id="clip-path-51"><rect class="cls-1" x="-1.08" y="0.08" width="344.44" height="91"/></clipPath><clipPath id="clip-path-52"><path class="cls-2" d="M215.17,44.85H70.24a4.46,4.46,0,0,1,0-8.91H215.17a4.46,4.46,0,0,1,0,8.91"/></clipPath><clipPath id="clip-path-55"><path class="cls-2" d="M100.12,85.87H40.7a4.46,4.46,0,0,1,0-8.91h59.42a4.46,4.46,0,0,1,0,8.91"/></clipPath><clipPath id="clip-path-58"><path class="cls-2" d="M2,83A3.27,3.27,0,1,1,5.29,79.7,3.27,3.27,0,0,1,2,83m0,2.18A5.45,5.45,0,1,0-3.41,79.7,5.44,5.44,0,0,0,2,85.15"/></clipPath><clipPath id="clip-path-60"><path class="cls-2" d="M18.69,83A3.27,3.27,0,1,1,22,79.7,3.27,3.27,0,0,1,18.69,83m0,2.18a5.45,5.45,0,1,0-5.44-5.45,5.44,5.44,0,0,0,5.44,5.45"/></clipPath><clipPath id="clip-path-63"><path class="cls-2" d="M381.48,87.68H327.17a4.46,4.46,0,0,1,0-8.91h54.31a4.46,4.46,0,0,1,0,8.91"/></clipPath><clipPath id="clip-path-65"><path class="cls-2" d="M231.57,49.17a3.27,3.27,0,1,1,3.26-3.27,3.27,3.27,0,0,1-3.26,3.27m0,2.18a5.45,5.45,0,1,0-5.44-5.45,5.44,5.44,0,0,0,5.44,5.45"/></clipPath><clipPath id="clip-path-67"><path class="cls-2" d="M248.23,49.17a3.27,3.27,0,1,1,3.26-3.27,3.27,3.27,0,0,1-3.26,3.27m0,2.18a5.45,5.45,0,1,0-5.44-5.45,5.44,5.44,0,0,0,5.44,5.45"/></clipPath><clipPath id="clip-path-69"><path class="cls-2" d="M260.37,46.44a5.44,5.44,0,1,1,5.44,5.45,5.44,5.44,0,0,1-5.44-5.45"/></clipPath><clipPath id="clip-path-71"><rect class="cls-1" x="381.43" y="161.94" width="344.19" height="125.5"/></clipPath><clipPath id="clip-path-72"><rect class="cls-1" x="-256.78" y="26.86" width="94" height="75"/></clipPath><clipPath id="clip-path-73"><rect class="cls-3" x="-256.78" y="26.86" width="94" height="15.52"/></clipPath><clipPath id="clip-path-74"><path class="cls-2" d="M-245,34.62a3.9,3.9,0,0,1-3.92,3.88,3.9,3.9,0,0,1-3.92-3.88,3.9,3.9,0,0,1,3.92-3.88A3.9,3.9,0,0,1-245,34.62"/></clipPath><clipPath id="clip-path-75"><path class="cls-2" d="M-233.28,34.62a3.9,3.9,0,0,1-3.92,3.88,3.9,3.9,0,0,1-3.92-3.88,3.9,3.9,0,0,1,3.92-3.88,3.9,3.9,0,0,1,3.92,3.88"/></clipPath><clipPath id="clip-path-76"><path class="cls-2" d="M-221.53,34.62a3.9,3.9,0,0,1-3.92,3.88,3.9,3.9,0,0,1-3.92-3.88,3.9,3.9,0,0,1,3.92-3.88,3.9,3.9,0,0,1,3.92,3.88"/></clipPath><clipPath id="clip-path-77"><rect class="cls-1" x="-256.78" y="42.37" width="9.14" height="59.48"/></clipPath><clipPath id="clip-path-78"><path class="cls-2" d="M-251.56,50.13a1.3,1.3,0,0,0,1.31-1.29,1.3,1.3,0,0,0-1.31-1.29h-1.31a1.3,1.3,0,0,0-1.31,1.29,1.3,1.3,0,0,0,1.31,1.29Z"/></clipPath><clipPath id="clip-path-79"><path class="cls-2" d="M-251.56,52.72h-1.31A1.3,1.3,0,0,0-254.17,54a1.3,1.3,0,0,0,1.31,1.29h1.31A1.3,1.3,0,0,0-250.25,54a1.3,1.3,0,0,0-1.31-1.29"/></clipPath><clipPath id="clip-path-80"><path class="cls-2" d="M-251.56,57.89h-1.31a1.3,1.3,0,0,0-1.31,1.29,1.3,1.3,0,0,0,1.31,1.29h1.31a1.3,1.3,0,0,0,1.31-1.29,1.3,1.3,0,0,0-1.31-1.29"/></clipPath><clipPath id="clip-path-81"><path class="cls-2" d="M-251.56,63.06h-1.31a1.3,1.3,0,0,0-1.31,1.29,1.3,1.3,0,0,0,1.31,1.29h1.31a1.3,1.3,0,0,0,1.31-1.29,1.3,1.3,0,0,0-1.31-1.29"/></clipPath><clipPath id="clip-path-82"><path class="cls-2" d="M-251.56,68.24h-1.31a1.3,1.3,0,0,0-1.31,1.29,1.3,1.3,0,0,0,1.31,1.29h1.31a1.3,1.3,0,0,0,1.31-1.29,1.3,1.3,0,0,0-1.31-1.29"/></clipPath><clipPath id="clip-path-83"><path class="cls-2" d="M-251.56,73.41h-1.31a1.3,1.3,0,0,0-1.31,1.29A1.3,1.3,0,0,0-252.86,76h1.31a1.3,1.3,0,0,0,1.31-1.29,1.3,1.3,0,0,0-1.31-1.29"/></clipPath><clipPath id="clip-path-84"><path class="cls-2" d="M-251.56,78.58h-1.31a1.3,1.3,0,0,0-1.31,1.29,1.3,1.3,0,0,0,1.31,1.29h1.31a1.3,1.3,0,0,0,1.31-1.29,1.3,1.3,0,0,0-1.31-1.29"/></clipPath><clipPath id="clip-path-85"><path class="cls-2" d="M-251.56,83.75h-1.31A1.3,1.3,0,0,0-254.17,85a1.3,1.3,0,0,0,1.31,1.29h1.31A1.3,1.3,0,0,0-250.25,85a1.3,1.3,0,0,0-1.31-1.29"/></clipPath><clipPath id="clip-path-86"><path class="cls-2" d="M-251.56,88.93h-1.31a1.3,1.3,0,0,0-1.31,1.29,1.3,1.3,0,0,0,1.31,1.29h1.31a1.3,1.3,0,0,0,1.31-1.29,1.3,1.3,0,0,0-1.31-1.29"/></clipPath><clipPath id="clip-path-87"><path class="cls-2" d="M-251.56,94.1h-1.31a1.3,1.3,0,0,0-1.31,1.29,1.3,1.3,0,0,0,1.31,1.29h1.31a1.3,1.3,0,0,0,1.31-1.29,1.3,1.3,0,0,0-1.31-1.29"/></clipPath><clipPath id="clip-path-88"><rect class="cls-3" x="140.05" y="333.86" width="60.84" height="98.25"/></clipPath><clipPath id="clip-path-89"><rect class="cls-1" x="125.88" y="187.13" width="94" height="75"/></clipPath><clipPath id="clip-path-90"><rect class="cls-4" x="125.88" y="187.13" width="94" height="15.52"/></clipPath><clipPath id="clip-path-91"><path class="cls-2" d="M137.63,194.89a3.92,3.92,0,1,1-3.92-3.88,3.9,3.9,0,0,1,3.92,3.88"/></clipPath><clipPath id="clip-path-92"><path class="cls-2" d="M149.38,194.89a3.92,3.92,0,1,1-3.92-3.88,3.9,3.9,0,0,1,3.92,3.88"/></clipPath><clipPath id="clip-path-93"><path class="cls-2" d="M161.13,194.89a3.92,3.92,0,1,1-3.92-3.88,3.9,3.9,0,0,1,3.92,3.88"/></clipPath><clipPath id="clip-path-94"><rect class="cls-4" x="535.47" y="16.86" width="51.28" height="82.81"/></clipPath><clipPath id="clip-path-95"><rect class="cls-1" x="121.41" y="17.76" width="96.71" height="77.19"/></clipPath><clipPath id="clip-path-96"><rect class="cls-1" x="78.06" y="-5.06" width="219.94" height="135.98"/></clipPath><clipPath id="clip-path-98"><rect class="cls-1" x="121.41" y="17.76" width="96.71" height="15.97"/></clipPath><clipPath id="clip-path-100"><path class="cls-2" d="M133.58,25.87a4,4,0,1,1-4-4,4,4,0,0,1,4,4"/></clipPath><clipPath id="clip-path-102"><path class="cls-2" d="M144.9,25.87a4,4,0,1,1-4-4,4,4,0,0,1,4,4"/></clipPath><clipPath id="clip-path-104"><path class="cls-2" d="M157.25,25.87a4,4,0,1,1-4-4,4,4,0,0,1,4,4"/></clipPath><clipPath id="clip-path-106"><rect class="cls-1" x="125.52" y="37.31" width="88.48" height="53.52"/></clipPath><clipPath id="clip-path-108"><polygon class="cls-2" points="162.21 94.42 177.65 94.42 181.94 111.85 157.91 111.85 162.21 94.42"/></clipPath><clipPath id="clip-path-110"><rect class="cls-1" x="150.16" y="111.76" width="39.32" height="6.54"/></clipPath><clipPath id="clip-path-112"><path class="cls-2" d="M159.21,61.54a10.82,10.82,0,0,0,3.11,7.62q.32.33.67.62V53.29q-.35.3-.67.62a10.82,10.82,0,0,0-3.11,7.62"/></clipPath><clipPath id="clip-path-113"><path class="cls-2" d="M177.35,53.91A10.59,10.59,0,0,0,174,51.6a10.52,10.52,0,0,0-7.77-.2l14.1,8.26a10.81,10.81,0,0,0-3-5.75"/></clipPath><clipPath id="clip-path-114"><path class="cls-2" d="M164.9,52h0l5.18,9.1h10.38q0-.17,0-.35l-15.22-8.92-.31.16"/></clipPath><clipPath id="clip-path-115"><path class="cls-2" d="M180.45,62H170.06l-5.17,9.11h0l.31.16,15.23-8.92q0-.17,0-.35"/></clipPath><clipPath id="clip-path-116"><path class="cls-2" d="M174,71.47a10.58,10.58,0,0,0,3.38-2.31,10.81,10.81,0,0,0,3-5.75l-14.1,8.26a10.52,10.52,0,0,0,7.77-.2"/></clipPath><clipPath id="clip-path-117"><path class="cls-2" d="M169.31,61.53h0l-5.16-9.11h0l-.29.2V70.45l.29.19Z"/></clipPath><clipPath id="clip-path-118"><polygon class="cls-2" points="170.06 61.97 170.06 61.97 170.06 61.97 170.06 61.97"/></clipPath><clipPath id="clip-path-119"><polyline class="cls-2" points="147.43 41.86 186.5 41.86 186.5 81.21 147.43 81.21"/></clipPath><clipPath id="clip-path-120"><rect class="cls-1" x="163.85" y="40.39" width="24.02" height="20.59"/></clipPath><clipPath id="clip-path-121"><path class="cls-2" d="M169.84,49.92a11.51,11.51,0,0,1,11.37,10.27c0,.16,0,.32,0,.49h0l5.24-9.21L181,41.86H170.07l-5.26,9.24.49-.23a11.26,11.26,0,0,1,4.53-.95"/></clipPath><clipPath id="clip-path-122"><rect class="cls-1" x="146.69" y="40.39" width="41.17" height="41.17"/></clipPath><clipPath id="clip-path-123"><polygon class="cls-2" points="165.04 72.35 165.04 72.35 164.84 71.99 164.83 71.99 165.04 72.35"/></clipPath><clipPath id="clip-path-124"><rect class="cls-1" x="147.43" y="41.86" width="39.07" height="39.35"/></clipPath><clipPath id="clip-path-125"><rect class="cls-1" x="163.85" y="60.97" width="24.02" height="20.59"/></clipPath><clipPath id="clip-path-126"><path class="cls-2" d="M181.25,62.37h0c0,.17,0,.34,0,.51a11.51,11.51,0,0,1-11.37,10.27,11.26,11.26,0,0,1-4.54-.95l-.46-.22,5.25,9.22H181l5.47-9.62Z"/></clipPath><clipPath id="clip-path-129"><rect class="cls-1" x="146.69" y="50.68" width="17.15" height="20.59"/></clipPath><clipPath id="clip-path-130"><path class="cls-2" d="M163.44,51.9H152.9l-5.47,9.62,5.47,9.62h10.49l-.4-.29a11.72,11.72,0,0,1,0-18.62l.45-.32"/></clipPath></defs><title>Subheros</title><g class="cls-49"><g class="cls-50"><g class="cls-51"><g class="cls-52"><g class="cls-53"><rect class="cls-54" x="-6.08" y="-4.92" width="353.64" height="134.43"/></g><g class="cls-53"><g class="cls-55"><g class="cls-56"><g class="cls-57"><g class="cls-58"><rect class="cls-59" x="160.76" y="73.83" width="158.89" height="18.91"/></g></g><g class="cls-60"><g class="cls-58"><rect class="cls-59" x="60.81" y="30.94" width="163.79" height="18.91"/></g></g><g class="cls-58"><path class="cls-61" d="M142.66,65.36H80a4.46,4.46,0,0,1,0-8.91h62.69a4.46,4.46,0,0,1,0,8.91Z"/></g><g class="cls-62"><g class="cls-58"><rect class="cls-59" x="31.27" y="71.96" width="78.28" height="18.91"/></g></g><g class="cls-58"><path class="cls-61" d="M350.32,50.45H284a4.46,4.46,0,0,1,0-8.91h66.33a4.46,4.46,0,0,1,0,8.91Z"/><path class="cls-61" d="M349.66,71.28h-121a4.46,4.46,0,0,1,0-8.91h121a4.46,4.46,0,0,1,0,8.91Z"/></g><g class="cls-63"><g class="cls-58"><rect class="cls-59" x="-8.4" y="69.25" width="20.85" height="20.9"/></g></g><g class="cls-64"><g class="cls-58"><rect class="cls-59" x="8.27" y="69.25" width="20.85" height="20.9"/></g></g><g class="cls-58"><path class="cls-61" d="M144.14,85.52H115.62a4.46,4.46,0,0,1,0-8.91h28.52a4.46,4.46,0,0,1,0,8.91Z"/></g><g class="cls-65"><g class="cls-58"><rect class="cls-59" x="317.74" y="73.77" width="73.17" height="18.91"/></g></g><g class="cls-66"><g class="cls-58"><rect class="cls-59" x="221.14" y="35.45" width="20.85" height="20.9"/></g></g><g class="cls-67"><g class="cls-58"><rect class="cls-59" x="237.81" y="35.45" width="20.85" height="20.9"/></g></g><g class="cls-68"><g class="cls-58"><rect class="cls-59" x="255.38" y="35.99" width="20.85" height="20.9"/></g></g></g></g></g></g></g></g></g><rect class="cls-3" x="-256.78" y="26.86" width="94" height="15.52"/><g class="cls-71"><rect class="cls-3" x="-1413.78" y="-506.14" width="1440" height="1024"/></g><rect class="cls-3" x="140.05" y="333.86" width="60.84" height="98.25"/><g class="cls-86"><rect class="cls-3" x="-912.2" y="-322.36" width="1581.89" height="1108.74"/></g><rect class="cls-4" x="125.88" y="187.13" width="94" height="15.52"/><g class="cls-88"><rect class="cls-4" x="-1031.12" y="-345.87" width="1440" height="1024"/></g><rect class="cls-4" x="535.47" y="16.86" width="51.28" height="82.81"/><g class="cls-92"><rect class="cls-4" x="-351.4" y="-536.22" width="1333.27" height="934.48"/></g><g class="cls-93"><g class="cls-94"><rect class="cls-95" x="119.13" y="15.47" width="101.27" height="81.75"/></g></g><g class="cls-94"><rect class="cls-96" x="121.41" y="17.76" width="96.71" height="77.19"/></g><g class="cls-97"><g class="cls-94"><rect class="cls-98" x="119.13" y="15.47" width="101.27" height="20.53"/></g></g><g class="cls-99"><g class="cls-94"><rect class="cls-100" x="123.24" y="19.59" width="12.62" height="12.55"/></g></g><g class="cls-101"><g class="cls-94"><rect class="cls-102" x="134.56" y="19.59" width="12.62" height="12.55"/></g></g><g class="cls-103"><g class="cls-94"><rect class="cls-104" x="146.91" y="19.59" width="12.62" height="12.55"/></g></g><g class="cls-105"><g class="cls-94"><rect class="cls-59" x="123.24" y="35.03" width="93.04" height="58.08"/></g></g><g class="cls-106"><g class="cls-94"><rect class="cls-107" x="155.63" y="92.13" width="28.59" height="22"/></g></g><g class="cls-108"><g class="cls-94"><rect class="cls-107" x="147.88" y="109.47" width="43.88" height="11.1"/></g></g><g class="cls-109"><rect class="cls-110" x="150.63" y="44.71" width="20.94" height="33.65"/></g><g class="cls-111"><rect class="cls-112" x="157.63" y="42.18" width="31.25" height="26.06"/></g><g class="cls-113"><rect class="cls-112" x="156.31" y="43.25" width="32.71" height="26.42"/></g><g class="cls-114"><rect class="cls-115" x="156.32" y="53.4" width="32.71" height="26.43"/></g><g class="cls-116"><rect class="cls-115" x="157.62" y="54.83" width="31.26" height="26.07"/></g><g class="cls-117"><rect class="cls-110" x="155.27" y="43.85" width="22.62" height="35.37"/></g><g class="cls-118"><rect class="cls-119" x="161.49" y="53.39" width="17.16" height="17.16"/></g><g class="cls-120"><g class="cls-51"><g class="cls-121"><g class="cls-122"><g class="cls-123"><rect class="cls-112" x="156.24" y="33.28" width="38.83" height="35.98"/></g></g></g></g></g><g class="cls-124"><rect class="cls-119" x="156.26" y="63.41" width="17.36" height="17.52"/></g><g class="cls-125"><g class="cls-51"><g class="cls-126"><g class="cls-127"><g class="cls-123"><rect class="cls-115" x="156.26" y="53.79" width="38.82" height="36"/></g></g></g></g></g><g class="cls-120"><g class="cls-51"><g class="cls-128"><g class="cls-129"><g class="cls-123"><rect class="cls-110" x="138.86" y="43.33" width="33.16" height="36.39"/></g></g></g></g></g></svg>