<svg id="Layer_1" data-name="Layer 1" xmlns="http://www.w3.org/2000/svg" xmlns:xlink="http://www.w3.org/1999/xlink" viewBox="0 0 343 125"><defs><style>.cls-1,.cls-17,.cls-2{fill:none;}.cls-2{clip-rule:evenodd;}.cls-3{fill:#152935;}.cls-4{fill:#4178be;}.cls-5{clip-path:url(#clip-path);}.cls-6{clip-path:url(#clip-path-2);}.cls-11,.cls-7{isolation:isolate;}.cls-8{clip-path:url(#clip-path-3);}.cls-9{clip-path:url(#clip-path-4);}.cls-10{fill:#c0e56b;}.cls-11{opacity:0.25;}.cls-12{clip-path:url(#clip-path-6);}.cls-13{clip-path:url(#clip-path-7);}.cls-14{clip-path:url(#clip-path-8);}.cls-15{fill:#fff;}.cls-16{clip-path:url(#clip-path-9);}.cls-17{stroke:#fff;stroke-miterlimit:10;stroke-width:2px;}.cls-18{clip-path:url(#clip-path-12);}.cls-19{clip-path:url(#clip-path-15);}.cls-20{clip-path:url(#clip-path-17);}.cls-21{clip-path:url(#clip-path-19);}.cls-22{clip-path:url(#clip-path-22);}.cls-23{clip-path:url(#clip-path-24);}.cls-24{clip-path:url(#clip-path-26);}.cls-25{clip-path:url(#clip-path-28);}.cls-26{clip-path:url(#clip-path-30);}.cls-27{clip-path:url(#clip-path-31);}.cls-28{fill:#ecf0f1;}.cls-29{clip-path:url(#clip-path-32);}.cls-30{fill:#244a61;}.cls-31{clip-path:url(#clip-path-34);}.cls-32{fill:#ed7161;}.cls-33{clip-path:url(#clip-path-36);}.cls-34{fill:#f0c419;}.cls-35{clip-path:url(#clip-path-38);}.cls-36{fill:#4fba6f;}.cls-37{clip-path:url(#clip-path-40);}.cls-38{fill:#95a5a5;}.cls-39{clip-path:url(#clip-path-42);}.cls-40{fill:#bdc3c7;}.cls-41{clip-path:url(#clip-path-44);}.cls-42{clip-path:url(#clip-path-46);}.cls-43{clip-path:url(#clip-path-48);}.cls-44{clip-path:url(#clip-path-50);}.cls-45{clip-path:url(#clip-path-52);}.cls-46{clip-path:url(#clip-path-54);}.cls-47{clip-path:url(#clip-path-56);}.cls-48{clip-path:url(#clip-path-58);}.cls-49{clip-path:url(#clip-path-60);}.cls-50{clip-path:url(#clip-path-62);}.cls-51{clip-path:url(#clip-path-64);}.cls-52{clip-path:url(#clip-path-66);}.cls-53{clip-path:url(#clip-path-68);}.cls-54{clip-path:url(#clip-path-70);}.cls-55{clip-path:url(#clip-path-72);}.cls-56{clip-path:url(#clip-path-73);}.cls-57{clip-path:url(#clip-path-74);}.cls-58{clip-path:url(#clip-path-75);}.cls-59{clip-path:url(#clip-path-76);}.cls-60{clip-path:url(#clip-path-77);}.cls-61{clip-path:url(#clip-path-78);}.cls-62{clip-path:url(#clip-path-79);}.cls-63{clip-path:url(#clip-path-80);}.cls-64{clip-path:url(#clip-path-81);}.cls-65{clip-path:url(#clip-path-82);}.cls-66{clip-path:url(#clip-path-83);}.cls-67{clip-path:url(#clip-path-84);}.cls-68{clip-path:url(#clip-path-85);}.cls-69{clip-path:url(#clip-path-86);}.cls-70{clip-path:url(#clip-path-87);}.cls-71{clip-path:url(#clip-path-88);}.cls-72{clip-path:url(#clip-path-89);}.cls-73{clip-path:url(#clip-path-90);}.cls-74{clip-path:url(#clip-path-91);}.cls-75{clip-path:url(#clip-path-92);}.cls-76{clip-path:url(#clip-path-93);}.cls-77{clip-path:url(#clip-path-94);}.cls-78{clip-path:url(#clip-path-95);}.cls-79{clip-path:url(#clip-path-96);}.cls-80{clip-path:url(#clip-path-97);}.cls-81{clip-path:url(#clip-path-98);}.cls-82{clip-path:url(#clip-path-99);}.cls-83{clip-path:url(#clip-path-100);}.cls-84{clip-path:url(#clip-path-101);}.cls-85{clip-path:url(#clip-path-102);}.cls-86{clip-path:url(#clip-path-103);}.cls-87{clip-path:url(#clip-path-104);}.cls-88{clip-path:url(#clip-path-105);}.cls-89{clip-path:url(#clip-path-106);}.cls-90{clip-path:url(#clip-path-107);}.cls-91{clip-path:url(#clip-path-108);}.cls-92{clip-path:url(#clip-path-109);}.cls-93{clip-path:url(#clip-path-110);}.cls-94{clip-path:url(#clip-path-111);}.cls-95{clip-path:url(#clip-path-112);}.cls-96{clip-path:url(#clip-path-113);}.cls-97{clip-path:url(#clip-path-114);}.cls-98{clip-path:url(#clip-path-115);}.cls-99{clip-path:url(#clip-path-116);}</style><clipPath id="clip-path"><rect class="cls-1" x="-0.19" y="-0.81" width="344.19" height="126.25"/></clipPath><clipPath id="clip-path-2"><rect class="cls-1" x="-313.01" y="-517.68" width="1448.42" height="1041.88"/></clipPath><clipPath id="clip-path-3"><rect class="cls-1" x="-9.24" y="-5.9" width="409.38" height="137.36"/></clipPath><clipPath id="clip-path-4"><rect class="cls-1" x="-0.19" y="-0.81" width="345" height="127.18"/></clipPath><clipPath id="clip-path-6"><rect class="cls-1" x="-9.24" y="31.75" width="409.38" height="66.14"/></clipPath><clipPath id="clip-path-7"><path class="cls-2" d="M323.5,89.4H182.42a4.53,4.53,0,0,1,0-9.07H323.5a4.53,4.53,0,0,1,0,9.07"/></clipPath><clipPath id="clip-path-8"><rect class="cls-1" x="-0.19" y="-0.81" width="345" height="93.61"/></clipPath><clipPath id="clip-path-9"><path class="cls-2" d="M227.74,45.76h-146a4.53,4.53,0,0,1,0-9.07h146a4.53,4.53,0,0,1,0,9.07"/></clipPath><clipPath id="clip-path-12"><path class="cls-2" d="M111.83,87.49H52a4.53,4.53,0,0,1,0-9.07h59.86a4.53,4.53,0,0,1,0,9.07"/></clipPath><clipPath id="clip-path-15"><path class="cls-2" d="M-3.06,84.55a3.31,3.31,0,0,1-3.29-3.33,3.31,3.31,0,0,1,3.29-3.33A3.31,3.31,0,0,1,.23,81.22a3.31,3.31,0,0,1-3.29,3.33m0,2.22a5.51,5.51,0,0,0,5.48-5.55,5.51,5.51,0,0,0-5.48-5.55,5.51,5.51,0,0,0-5.48,5.55,5.51,5.51,0,0,0,5.48,5.55"/></clipPath><clipPath id="clip-path-17"><path class="cls-2" d="M13,84.55a3.33,3.33,0,1,1,3.29-3.33A3.31,3.31,0,0,1,13,84.55m0,2.22a5.55,5.55,0,1,0-5.48-5.55A5.51,5.51,0,0,0,13,86.76"/></clipPath><clipPath id="clip-path-19"><path class="cls-2" d="M29.79,84.55a3.33,3.33,0,1,1,3.29-3.33,3.31,3.31,0,0,1-3.29,3.33m0,2.22a5.55,5.55,0,1,0-5.48-5.55,5.51,5.51,0,0,0,5.48,5.55"/></clipPath><clipPath id="clip-path-22"><path class="cls-2" d="M395.3,89.34H340.58a4.53,4.53,0,0,1,0-9.07H395.3a4.53,4.53,0,0,1,0,9.07"/></clipPath><clipPath id="clip-path-24"><path class="cls-2" d="M244.26,50.15a3.33,3.33,0,1,1,3.29-3.33,3.31,3.31,0,0,1-3.29,3.33m0,2.22a5.55,5.55,0,1,0-5.48-5.55,5.51,5.51,0,0,0,5.48,5.55"/></clipPath><clipPath id="clip-path-26"><path class="cls-2" d="M261.05,50.15a3.33,3.33,0,1,1,3.29-3.33,3.31,3.31,0,0,1-3.29,3.33m0,2.22a5.55,5.55,0,1,0-5.48-5.55,5.51,5.51,0,0,0,5.48,5.55"/></clipPath><clipPath id="clip-path-28"><path class="cls-2" d="M273.28,47.38a5.48,5.48,0,1,1,5.48,5.55,5.51,5.51,0,0,1-5.48-5.55"/></clipPath><clipPath id="clip-path-30"><rect class="cls-1" x="123.81" y="25.69" width="94" height="75"/></clipPath><clipPath id="clip-path-31"><rect class="cls-1" x="-311.19" y="-508.31" width="1440" height="1024"/></clipPath><clipPath id="clip-path-32"><rect class="cls-1" x="123.81" y="25.69" width="94" height="15.52"/></clipPath><clipPath id="clip-path-34"><path class="cls-2" d="M135.56,33.45a3.92,3.92,0,1,1-3.92-3.88,3.9,3.9,0,0,1,3.92,3.88"/></clipPath><clipPath id="clip-path-36"><path class="cls-2" d="M147.31,33.45a3.92,3.92,0,1,1-3.92-3.88,3.9,3.9,0,0,1,3.92,3.88"/></clipPath><clipPath id="clip-path-38"><path class="cls-2" d="M159.06,33.45a3.92,3.92,0,1,1-3.92-3.88,3.9,3.9,0,0,1,3.92,3.88"/></clipPath><clipPath id="clip-path-40"><rect class="cls-1" x="123.81" y="41.21" width="9.14" height="59.48"/></clipPath><clipPath id="clip-path-42"><path class="cls-2" d="M129,49a1.29,1.29,0,1,0,0-2.59h-1.31a1.29,1.29,0,1,0,0,2.59Z"/></clipPath><clipPath id="clip-path-44"><path class="cls-2" d="M129,51.55h-1.31a1.29,1.29,0,1,0,0,2.59H129a1.29,1.29,0,1,0,0-2.59"/></clipPath><clipPath id="clip-path-46"><path class="cls-2" d="M129,56.72h-1.31a1.29,1.29,0,1,0,0,2.59H129a1.29,1.29,0,1,0,0-2.59"/></clipPath><clipPath id="clip-path-48"><path class="cls-2" d="M129,61.9h-1.31a1.29,1.29,0,1,0,0,2.59H129a1.29,1.29,0,1,0,0-2.59"/></clipPath><clipPath id="clip-path-50"><path class="cls-2" d="M129,67.07h-1.31a1.29,1.29,0,1,0,0,2.59H129a1.29,1.29,0,1,0,0-2.59"/></clipPath><clipPath id="clip-path-52"><path class="cls-2" d="M129,72.24h-1.31a1.29,1.29,0,1,0,0,2.59H129a1.29,1.29,0,1,0,0-2.59"/></clipPath><clipPath id="clip-path-54"><path class="cls-2" d="M129,77.41h-1.31a1.29,1.29,0,1,0,0,2.59H129a1.29,1.29,0,1,0,0-2.59"/></clipPath><clipPath id="clip-path-56"><path class="cls-2" d="M129,82.59h-1.31a1.29,1.29,0,1,0,0,2.59H129a1.29,1.29,0,1,0,0-2.59"/></clipPath><clipPath id="clip-path-58"><path class="cls-2" d="M129,87.76h-1.31a1.29,1.29,0,1,0,0,2.59H129a1.29,1.29,0,1,0,0-2.59"/></clipPath><clipPath id="clip-path-60"><path class="cls-2" d="M129,92.93h-1.31a1.29,1.29,0,1,0,0,2.59H129a1.29,1.29,0,1,0,0-2.59"/></clipPath><clipPath id="clip-path-62"><path class="cls-2" d="M166.33,74.44H166c-6.48,0-11.73-5-11.73-11.1s5.25-11.1,11.73-11.1,11.73,5,11.73,11.1a10.77,10.77,0,0,1-3.4,7.81l-8,9.42Z"/></clipPath><clipPath id="clip-path-64"><path class="cls-2" d="M184.37,85.35h.48c8.32,0,15.07-6.38,15.07-14.25s-6.75-14.25-15.07-14.25-15.07,6.38-15.07,14.25a13.83,13.83,0,0,0,4.36,10l10.23,12.1Z"/></clipPath><clipPath id="clip-path-66"><ellipse class="cls-1" cx="179.51" cy="71.57" rx="1.94" ry="1.84"/></clipPath><clipPath id="clip-path-68"><ellipse class="cls-1" cx="185.34" cy="71.57" rx="1.94" ry="1.84"/></clipPath><clipPath id="clip-path-70"><ellipse class="cls-1" cx="191.17" cy="71.57" rx="1.94" ry="1.84"/></clipPath><clipPath id="clip-path-72"><rect class="cls-1" x="764.97" y="-3.51" width="343.66" height="125.76"/></clipPath><clipPath id="clip-path-73"><rect class="cls-1" x="885.97" y="23.49" width="94" height="75"/></clipPath><clipPath id="clip-path-74"><rect class="cls-1" x="885.97" y="23.49" width="94" height="15.52"/></clipPath><clipPath id="clip-path-75"><path class="cls-2" d="M897.72,31.25a3.92,3.92,0,1,1-3.92-3.88,3.9,3.9,0,0,1,3.92,3.88"/></clipPath><clipPath id="clip-path-76"><path class="cls-2" d="M909.47,31.25a3.92,3.92,0,1,1-3.92-3.88,3.9,3.9,0,0,1,3.92,3.88"/></clipPath><clipPath id="clip-path-77"><path class="cls-2" d="M921.22,31.25a3.92,3.92,0,1,1-3.92-3.88,3.9,3.9,0,0,1,3.92,3.88"/></clipPath><clipPath id="clip-path-78"><rect class="cls-1" x="885.97" y="39.01" width="9.14" height="59.48"/></clipPath><clipPath id="clip-path-79"><path class="cls-2" d="M891.19,46.77a1.29,1.29,0,1,0,0-2.59h-1.31a1.29,1.29,0,1,0,0,2.59Z"/></clipPath><clipPath id="clip-path-80"><path class="cls-2" d="M891.19,49.35h-1.31a1.29,1.29,0,1,0,0,2.59h1.31a1.29,1.29,0,1,0,0-2.59"/></clipPath><clipPath id="clip-path-81"><path class="cls-2" d="M891.19,54.53h-1.31a1.29,1.29,0,1,0,0,2.59h1.31a1.29,1.29,0,1,0,0-2.59"/></clipPath><clipPath id="clip-path-82"><path class="cls-2" d="M891.19,59.7h-1.31a1.29,1.29,0,1,0,0,2.59h1.31a1.29,1.29,0,1,0,0-2.59"/></clipPath><clipPath id="clip-path-83"><path class="cls-2" d="M891.19,64.87h-1.31a1.29,1.29,0,1,0,0,2.59h1.31a1.29,1.29,0,1,0,0-2.59"/></clipPath><clipPath id="clip-path-84"><path class="cls-2" d="M891.19,70h-1.31a1.29,1.29,0,1,0,0,2.59h1.31a1.29,1.29,0,1,0,0-2.59"/></clipPath><clipPath id="clip-path-85"><path class="cls-2" d="M891.19,75.21h-1.31a1.29,1.29,0,1,0,0,2.59h1.31a1.29,1.29,0,1,0,0-2.59"/></clipPath><clipPath id="clip-path-86"><path class="cls-2" d="M891.19,80.39h-1.31a1.29,1.29,0,1,0,0,2.59h1.31a1.29,1.29,0,1,0,0-2.59"/></clipPath><clipPath id="clip-path-87"><path class="cls-2" d="M891.19,85.56h-1.31a1.29,1.29,0,1,0,0,2.59h1.31a1.29,1.29,0,1,0,0-2.59"/></clipPath><clipPath id="clip-path-88"><path class="cls-2" d="M891.19,90.73h-1.31a1.29,1.29,0,1,0,0,2.59h1.31a1.29,1.29,0,1,0,0-2.59"/></clipPath><clipPath id="clip-path-89"><polygon class="cls-2" points="917.5 83.13 933.17 83.25 941.01 69.66 910.17 69.36 917.5 83.13"/></clipPath><clipPath id="clip-path-90"><polygon class="cls-2" points="909.7 69.69 917.43 83.32 933.07 83.28 917.59 55.8 909.7 69.69"/></clipPath><clipPath id="clip-path-91"><polygon class="cls-2" points="950.43 51.85 934.77 51.73 926.92 65.32 957.77 65.62 950.43 51.85"/></clipPath><clipPath id="clip-path-92"><polygon class="cls-2" points="958.24 65.29 950.51 51.66 934.87 51.7 950.35 79.18 958.24 65.29"/></clipPath><clipPath id="clip-path-93"><rect class="cls-1" x="381.3" y="-321.51" width="343.66" height="124.43"/></clipPath><clipPath id="clip-path-94"><rect class="cls-1" x="125.6" y="-294.73" width="94" height="75"/></clipPath><clipPath id="clip-path-95"><rect class="cls-3" x="125.6" y="-294.73" width="94" height="15.52"/></clipPath><clipPath id="clip-path-96"><path class="cls-2" d="M137.35-287a3.9,3.9,0,0,1-3.92,3.88,3.9,3.9,0,0,1-3.92-3.88,3.9,3.9,0,0,1,3.92-3.88,3.9,3.9,0,0,1,3.92,3.88"/></clipPath><clipPath id="clip-path-97"><path class="cls-2" d="M149.1-287a3.9,3.9,0,0,1-3.92,3.88,3.9,3.9,0,0,1-3.92-3.88,3.9,3.9,0,0,1,3.92-3.88A3.9,3.9,0,0,1,149.1-287"/></clipPath><clipPath id="clip-path-98"><path class="cls-2" d="M160.85-287a3.9,3.9,0,0,1-3.92,3.88A3.9,3.9,0,0,1,153-287a3.9,3.9,0,0,1,3.92-3.88,3.9,3.9,0,0,1,3.92,3.88"/></clipPath><clipPath id="clip-path-99"><rect class="cls-1" x="125.6" y="-279.21" width="9.14" height="59.48"/></clipPath><clipPath id="clip-path-100"><path class="cls-2" d="M130.83-271.45a1.3,1.3,0,0,0,1.31-1.29,1.3,1.3,0,0,0-1.31-1.29h-1.31a1.3,1.3,0,0,0-1.31,1.29,1.3,1.3,0,0,0,1.31,1.29Z"/></clipPath><clipPath id="clip-path-101"><path class="cls-2" d="M130.83-268.87h-1.31a1.3,1.3,0,0,0-1.31,1.29,1.3,1.3,0,0,0,1.31,1.29h1.31a1.3,1.3,0,0,0,1.31-1.29,1.3,1.3,0,0,0-1.31-1.29"/></clipPath><clipPath id="clip-path-102"><path class="cls-2" d="M130.83-263.7h-1.31a1.3,1.3,0,0,0-1.31,1.29,1.3,1.3,0,0,0,1.31,1.29h1.31a1.3,1.3,0,0,0,1.31-1.29,1.3,1.3,0,0,0-1.31-1.29"/></clipPath><clipPath id="clip-path-103"><path class="cls-2" d="M130.83-258.52h-1.31a1.3,1.3,0,0,0-1.31,1.29,1.3,1.3,0,0,0,1.31,1.29h1.31a1.3,1.3,0,0,0,1.31-1.29,1.3,1.3,0,0,0-1.31-1.29"/></clipPath><clipPath id="clip-path-104"><path class="cls-2" d="M130.83-253.35h-1.31a1.3,1.3,0,0,0-1.31,1.29,1.3,1.3,0,0,0,1.31,1.29h1.31a1.3,1.3,0,0,0,1.31-1.29,1.3,1.3,0,0,0-1.31-1.29"/></clipPath><clipPath id="clip-path-105"><path class="cls-2" d="M130.83-248.18h-1.31a1.3,1.3,0,0,0-1.31,1.29,1.3,1.3,0,0,0,1.31,1.29h1.31a1.3,1.3,0,0,0,1.31-1.29,1.3,1.3,0,0,0-1.31-1.29"/></clipPath><clipPath id="clip-path-106"><path class="cls-2" d="M130.83-243h-1.31a1.3,1.3,0,0,0-1.31,1.29,1.3,1.3,0,0,0,1.31,1.29h1.31a1.3,1.3,0,0,0,1.31-1.29,1.3,1.3,0,0,0-1.31-1.29"/></clipPath><clipPath id="clip-path-107"><path class="cls-2" d="M130.83-237.83h-1.31a1.3,1.3,0,0,0-1.31,1.29,1.3,1.3,0,0,0,1.31,1.29h1.31a1.3,1.3,0,0,0,1.31-1.29,1.3,1.3,0,0,0-1.31-1.29"/></clipPath><clipPath id="clip-path-108"><path class="cls-2" d="M130.83-232.66h-1.31a1.3,1.3,0,0,0-1.31,1.29,1.3,1.3,0,0,0,1.31,1.29h1.31a1.3,1.3,0,0,0,1.31-1.29,1.3,1.3,0,0,0-1.31-1.29"/></clipPath><clipPath id="clip-path-109"><path class="cls-2" d="M130.83-227.49h-1.31a1.3,1.3,0,0,0-1.31,1.29,1.3,1.3,0,0,0,1.31,1.29h1.31a1.3,1.3,0,0,0,1.31-1.29,1.3,1.3,0,0,0-1.31-1.29"/></clipPath><clipPath id="clip-path-110"><rect class="cls-3" x="522.43" y="12.27" width="60.84" height="98.25"/></clipPath><clipPath id="clip-path-111"><rect class="cls-1" x="508.27" y="-134.46" width="94" height="75"/></clipPath><clipPath id="clip-path-112"><rect class="cls-4" x="508.27" y="-134.46" width="94" height="15.52"/></clipPath><clipPath id="clip-path-113"><path class="cls-2" d="M520-126.7a3.9,3.9,0,0,1-3.92,3.88,3.9,3.9,0,0,1-3.92-3.88,3.9,3.9,0,0,1,3.92-3.88A3.9,3.9,0,0,1,520-126.7"/></clipPath><clipPath id="clip-path-114"><path class="cls-2" d="M531.77-126.7a3.9,3.9,0,0,1-3.92,3.88,3.9,3.9,0,0,1-3.92-3.88,3.9,3.9,0,0,1,3.92-3.88,3.9,3.9,0,0,1,3.92,3.88"/></clipPath><clipPath id="clip-path-115"><path class="cls-2" d="M543.52-126.7a3.9,3.9,0,0,1-3.92,3.88,3.9,3.9,0,0,1-3.92-3.88,3.9,3.9,0,0,1,3.92-3.88,3.9,3.9,0,0,1,3.92,3.88"/></clipPath><clipPath id="clip-path-116"><rect class="cls-4" x="917.85" y="-304.72" width="51.28" height="82.81"/></clipPath></defs><title>Subheros</title><g class="cls-5"><g class="cls-6"><g class="cls-7"><g class="cls-8"><g class="cls-9"><rect class="cls-10" x="-5.22" y="-5.9" width="354.25" height="136.42"/></g><g class="cls-9"><g class="cls-11"><g class="cls-12"><g class="cls-13"><g class="cls-14"><rect class="cls-15" x="172.92" y="75.24" width="160.08" height="19.24"/></g></g><g class="cls-16"><g class="cls-14"><rect class="cls-15" x="72.23" y="31.6" width="165.02" height="19.24"/></g></g><g class="cls-14"><path class="cls-17" d="M154.69,66.62H91.53a4.53,4.53,0,0,1,0-9.07h63.16a4.53,4.53,0,0,1,0,9.07Z"/></g><g class="cls-18"><g class="cls-14"><rect class="cls-15" x="42.47" y="73.34" width="78.87" height="19.24"/></g></g><g class="cls-14"><path class="cls-17" d="M363.9,51.45H297.08a4.53,4.53,0,0,1,0-9.07H363.9a4.53,4.53,0,0,1,0,9.07Z"/><path class="cls-17" d="M363.23,72.65H241.34a4.53,4.53,0,0,1,0-9.07H363.23a4.53,4.53,0,0,1,0,9.07Z"/></g><g class="cls-19"><g class="cls-14"><rect class="cls-15" x="-13.57" y="70.58" width="21.01" height="21.27"/></g></g><g class="cls-20"><g class="cls-14"><rect class="cls-15" x="2.5" y="70.58" width="21.01" height="21.27"/></g></g><g class="cls-21"><g class="cls-14"><rect class="cls-15" x="19.29" y="70.58" width="21.01" height="21.27"/></g></g><g class="cls-14"><path class="cls-17" d="M156.18,87.13H127.44a4.53,4.53,0,0,1,0-9.07h28.73a4.53,4.53,0,0,1,0,9.07Z"/></g><g class="cls-22"><g class="cls-14"><rect class="cls-15" x="331.08" y="75.19" width="73.72" height="19.24"/></g></g><g class="cls-23"><g class="cls-14"><rect class="cls-15" x="233.76" y="36.19" width="21.01" height="21.27"/></g></g><g class="cls-24"><g class="cls-14"><rect class="cls-15" x="250.55" y="36.19" width="21.01" height="21.27"/></g></g><g class="cls-25"><g class="cls-14"><rect class="cls-15" x="268.25" y="36.75" width="21.01" height="21.27"/></g></g></g></g></g></g></g></g></g><g class="cls-26"><g class="cls-27"><rect class="cls-28" x="118.81" y="20.69" width="104" height="85"/></g></g><g class="cls-29"><g class="cls-27"><rect class="cls-30" x="118.81" y="20.69" width="104" height="25.52"/></g></g><g class="cls-31"><g class="cls-27"><rect class="cls-32" x="122.73" y="24.57" width="17.83" height="17.76"/></g></g><g class="cls-33"><g class="cls-27"><rect class="cls-34" x="134.48" y="24.57" width="17.83" height="17.76"/></g></g><g class="cls-35"><g class="cls-27"><rect class="cls-36" x="146.23" y="24.57" width="17.83" height="17.76"/></g></g><g class="cls-37"><g class="cls-27"><rect class="cls-38" x="118.81" y="36.21" width="19.14" height="69.48"/></g></g><g class="cls-39"><g class="cls-27"><rect class="cls-40" x="121.42" y="41.38" width="13.92" height="12.59"/></g></g><g class="cls-41"><g class="cls-27"><rect class="cls-40" x="121.42" y="46.55" width="13.92" height="12.59"/></g></g><g class="cls-42"><g class="cls-27"><rect class="cls-40" x="121.42" y="51.72" width="13.92" height="12.59"/></g></g><g class="cls-43"><g class="cls-27"><rect class="cls-40" x="121.42" y="56.9" width="13.92" height="12.59"/></g></g><g class="cls-44"><g class="cls-27"><rect class="cls-40" x="121.42" y="62.07" width="13.92" height="12.59"/></g></g><g class="cls-45"><g class="cls-27"><rect class="cls-40" x="121.42" y="67.24" width="13.92" height="12.59"/></g></g><g class="cls-46"><g class="cls-27"><rect class="cls-40" x="121.42" y="72.41" width="13.92" height="12.59"/></g></g><g class="cls-47"><g class="cls-27"><rect class="cls-40" x="121.42" y="77.59" width="13.92" height="12.59"/></g></g><g class="cls-48"><g class="cls-27"><rect class="cls-40" x="121.42" y="82.76" width="13.92" height="12.59"/></g></g><g class="cls-49"><g class="cls-27"><rect class="cls-40" x="121.42" y="87.93" width="13.92" height="12.59"/></g></g><g class="cls-50"><g class="cls-27"><rect class="cls-30" x="149.23" y="47.26" width="33.46" height="38.32"/></g></g><g class="cls-51"><g class="cls-27"><rect class="cls-15" x="164.78" y="51.86" width="40.14" height="46.38"/></g></g><g class="cls-52"><g class="cls-27"><rect class="cls-30" x="172.56" y="64.73" width="13.89" height="13.68"/></g></g><g class="cls-53"><g class="cls-27"><rect class="cls-30" x="178.39" y="64.73" width="13.89" height="13.68"/></g></g><g class="cls-54"><g class="cls-27"><rect class="cls-30" x="184.23" y="64.73" width="13.89" height="13.68"/></g></g><rect class="cls-3" x="125.6" y="-294.73" width="94" height="15.52"/><g class="cls-78"><rect class="cls-3" x="-1031.4" y="-827.73" width="1440" height="1024"/></g><rect class="cls-3" x="522.43" y="12.27" width="60.84" height="98.25"/><g class="cls-93"><rect class="cls-3" x="-529.81" y="-643.95" width="1581.89" height="1108.74"/></g><rect class="cls-4" x="508.27" y="-134.46" width="94" height="15.52"/><g class="cls-95"><rect class="cls-4" x="-648.73" y="-667.46" width="1440" height="1024"/></g><rect class="cls-4" x="917.85" y="-304.72" width="51.28" height="82.81"/><g class="cls-99"><rect class="cls-4" x="30.99" y="-857.81" width="1333.27" height="934.48"/></g></svg>