<svg id="Layer_1" data-name="Layer 1" xmlns="http://www.w3.org/2000/svg" xmlns:xlink="http://www.w3.org/1999/xlink" viewBox="0 0 343 125"><defs><style>.cls-1,.cls-2{fill:none;}.cls-2,.cls-6{clip-rule:evenodd;}.cls-3{fill:#152935;}.cls-4{fill:#4178be;}.cls-5,.cls-6,.cls-84{fill:#41d6c3;}.cls-7{fill:#562f72;}.cls-8{fill:#734098;opacity:0.55;}.cls-9{clip-path:url(#clip-path);}.cls-10{clip-path:url(#clip-path-2);}.cls-11{clip-path:url(#clip-path-3);}.cls-12{clip-path:url(#clip-path-4);}.cls-13{clip-path:url(#clip-path-5);}.cls-14{clip-path:url(#clip-path-6);}.cls-15{clip-path:url(#clip-path-7);}.cls-16{clip-path:url(#clip-path-8);}.cls-17{clip-path:url(#clip-path-9);}.cls-18{clip-path:url(#clip-path-10);}.cls-19{clip-path:url(#clip-path-11);}.cls-20{clip-path:url(#clip-path-12);}.cls-21{clip-path:url(#clip-path-13);}.cls-22{clip-path:url(#clip-path-14);}.cls-23{clip-path:url(#clip-path-15);}.cls-24{clip-path:url(#clip-path-16);}.cls-25{clip-path:url(#clip-path-17);}.cls-26{clip-path:url(#clip-path-18);}.cls-27{clip-path:url(#clip-path-19);}.cls-28{clip-path:url(#clip-path-20);}.cls-29{clip-path:url(#clip-path-21);}.cls-30{clip-path:url(#clip-path-22);}.cls-31{clip-path:url(#clip-path-23);}.cls-32{clip-path:url(#clip-path-24);}.cls-33{clip-path:url(#clip-path-25);}.cls-34{clip-path:url(#clip-path-26);}.cls-35{clip-path:url(#clip-path-27);}.cls-36{clip-path:url(#clip-path-28);}.cls-37{clip-path:url(#clip-path-29);}.cls-38{clip-path:url(#clip-path-30);}.cls-39{clip-path:url(#clip-path-31);}.cls-40{clip-path:url(#clip-path-32);}.cls-41{clip-path:url(#clip-path-33);}.cls-42{clip-path:url(#clip-path-34);}.cls-43{clip-path:url(#clip-path-35);}.cls-44{clip-path:url(#clip-path-36);}.cls-45{clip-path:url(#clip-path-37);}.cls-46{clip-path:url(#clip-path-38);}.cls-47{clip-path:url(#clip-path-39);}.cls-48{clip-path:url(#clip-path-40);}.cls-49{clip-path:url(#clip-path-41);}.cls-50{clip-path:url(#clip-path-42);}.cls-51{clip-path:url(#clip-path-43);}.cls-52{clip-path:url(#clip-path-44);}.cls-53{clip-path:url(#clip-path-45);}.cls-54{clip-path:url(#clip-path-46);}.cls-55{clip-path:url(#clip-path-47);}.cls-56{clip-path:url(#clip-path-48);}.cls-57{clip-path:url(#clip-path-49);}.cls-58{clip-path:url(#clip-path-50);}.cls-59{clip-path:url(#clip-path-51);}.cls-60{clip-path:url(#clip-path-52);}.cls-61{clip-path:url(#clip-path-53);}.cls-62{clip-path:url(#clip-path-54);}.cls-63{clip-path:url(#clip-path-55);}.cls-64{clip-path:url(#clip-path-56);}.cls-65{clip-path:url(#clip-path-57);}.cls-66{clip-path:url(#clip-path-58);}.cls-67{clip-path:url(#clip-path-59);}.cls-68{clip-path:url(#clip-path-60);}.cls-69{clip-path:url(#clip-path-61);}.cls-70{clip-path:url(#clip-path-62);}.cls-71{clip-path:url(#clip-path-63);}.cls-72{clip-path:url(#clip-path-64);}.cls-73{fill:#ecf0f1;}.cls-74{clip-path:url(#clip-path-65);}.cls-75{clip-path:url(#clip-path-66);}.cls-76{clip-path:url(#clip-path-67);}.cls-77{fill:#ed7161;}.cls-78{clip-path:url(#clip-path-69);}.cls-79{fill:#f0c419;}.cls-80{clip-path:url(#clip-path-71);}.cls-81{fill:#4fba6f;}.cls-82{clip-path:url(#clip-path-73);}.cls-83{clip-path:url(#clip-path-74);}.cls-84{fill-rule:evenodd;}.cls-85{clip-path:url(#clip-path-75);}.cls-86{clip-path:url(#clip-path-77);}.cls-87{clip-path:url(#clip-path-79);}</style><clipPath id="clip-path"><rect class="cls-1" x="-381.57" y="157.78" width="344.19" height="126.25"/></clipPath><clipPath id="clip-path-2"><rect class="cls-1" x="-257.57" y="184.28" width="94" height="75"/></clipPath><clipPath id="clip-path-3"><rect class="cls-1" x="-257.57" y="184.28" width="94" height="15.52"/></clipPath><clipPath id="clip-path-4"><path class="cls-2" d="M-245.82,192a3.9,3.9,0,0,1-3.92,3.88,3.9,3.9,0,0,1-3.92-3.88,3.9,3.9,0,0,1,3.92-3.88,3.9,3.9,0,0,1,3.92,3.88"/></clipPath><clipPath id="clip-path-5"><path class="cls-2" d="M-234.07,192a3.9,3.9,0,0,1-3.92,3.88,3.9,3.9,0,0,1-3.92-3.88,3.9,3.9,0,0,1,3.92-3.88,3.9,3.9,0,0,1,3.92,3.88"/></clipPath><clipPath id="clip-path-6"><path class="cls-2" d="M-222.32,192a3.9,3.9,0,0,1-3.92,3.88,3.9,3.9,0,0,1-3.92-3.88,3.9,3.9,0,0,1,3.92-3.88,3.9,3.9,0,0,1,3.92,3.88"/></clipPath><clipPath id="clip-path-7"><rect class="cls-1" x="-257.57" y="199.79" width="9.14" height="59.48"/></clipPath><clipPath id="clip-path-8"><path class="cls-2" d="M-252.35,207.55a1.3,1.3,0,0,0,1.31-1.29,1.3,1.3,0,0,0-1.31-1.29h-1.31a1.3,1.3,0,0,0-1.31,1.29,1.3,1.3,0,0,0,1.31,1.29Z"/></clipPath><clipPath id="clip-path-9"><path class="cls-2" d="M-252.35,210.14h-1.31a1.3,1.3,0,0,0-1.31,1.29,1.3,1.3,0,0,0,1.31,1.29h1.31a1.3,1.3,0,0,0,1.31-1.29,1.3,1.3,0,0,0-1.31-1.29"/></clipPath><clipPath id="clip-path-10"><path class="cls-2" d="M-252.35,215.31h-1.31a1.3,1.3,0,0,0-1.31,1.29,1.3,1.3,0,0,0,1.31,1.29h1.31a1.3,1.3,0,0,0,1.31-1.29,1.3,1.3,0,0,0-1.31-1.29"/></clipPath><clipPath id="clip-path-11"><path class="cls-2" d="M-252.35,220.48h-1.31a1.3,1.3,0,0,0-1.31,1.29,1.3,1.3,0,0,0,1.31,1.29h1.31a1.3,1.3,0,0,0,1.31-1.29,1.3,1.3,0,0,0-1.31-1.29"/></clipPath><clipPath id="clip-path-12"><path class="cls-2" d="M-252.35,225.66h-1.31a1.3,1.3,0,0,0-1.31,1.29,1.3,1.3,0,0,0,1.31,1.29h1.31a1.3,1.3,0,0,0,1.31-1.29,1.3,1.3,0,0,0-1.31-1.29"/></clipPath><clipPath id="clip-path-13"><path class="cls-2" d="M-252.35,230.83h-1.31a1.3,1.3,0,0,0-1.31,1.29,1.3,1.3,0,0,0,1.31,1.29h1.31a1.3,1.3,0,0,0,1.31-1.29,1.3,1.3,0,0,0-1.31-1.29"/></clipPath><clipPath id="clip-path-14"><path class="cls-2" d="M-252.35,236h-1.31a1.3,1.3,0,0,0-1.31,1.29,1.3,1.3,0,0,0,1.31,1.29h1.31a1.3,1.3,0,0,0,1.31-1.29,1.3,1.3,0,0,0-1.31-1.29"/></clipPath><clipPath id="clip-path-15"><path class="cls-2" d="M-252.35,241.17h-1.31a1.3,1.3,0,0,0-1.31,1.29,1.3,1.3,0,0,0,1.31,1.29h1.31a1.3,1.3,0,0,0,1.31-1.29,1.3,1.3,0,0,0-1.31-1.29"/></clipPath><clipPath id="clip-path-16"><path class="cls-2" d="M-252.35,246.35h-1.31a1.3,1.3,0,0,0-1.31,1.29,1.3,1.3,0,0,0,1.31,1.29h1.31a1.3,1.3,0,0,0,1.31-1.29,1.3,1.3,0,0,0-1.31-1.29"/></clipPath><clipPath id="clip-path-17"><path class="cls-2" d="M-252.35,251.52h-1.31a1.3,1.3,0,0,0-1.31,1.29,1.3,1.3,0,0,0,1.31,1.29h1.31a1.3,1.3,0,0,0,1.31-1.29,1.3,1.3,0,0,0-1.31-1.29"/></clipPath><clipPath id="clip-path-18"><path class="cls-2" d="M-215.05,233h-.38c-6.48,0-11.73-5-11.73-11.1s5.25-11.1,11.73-11.1,11.73,5,11.73,11.1a10.77,10.77,0,0,1-3.4,7.81l-8,9.42Z"/></clipPath><clipPath id="clip-path-19"><path class="cls-2" d="M-197,243.94h.48c8.32,0,15.07-6.38,15.07-14.25s-6.75-14.25-15.07-14.25-15.07,6.38-15.07,14.25a13.83,13.83,0,0,0,4.36,10l10.23,12.1Z"/></clipPath><clipPath id="clip-path-20"><ellipse class="cls-1" cx="-201.88" cy="230.16" rx="1.94" ry="1.84"/></clipPath><clipPath id="clip-path-21"><ellipse class="cls-1" cx="-196.05" cy="230.16" rx="1.94" ry="1.84"/></clipPath><clipPath id="clip-path-22"><ellipse class="cls-1" cx="-190.21" cy="230.16" rx="1.94" ry="1.84"/></clipPath><clipPath id="clip-path-23"><rect class="cls-1" x="383.58" y="155.08" width="343.66" height="125.76"/></clipPath><clipPath id="clip-path-24"><rect class="cls-1" x="504.58" y="182.08" width="94" height="75"/></clipPath><clipPath id="clip-path-25"><rect class="cls-1" x="504.58" y="182.08" width="94" height="15.52"/></clipPath><clipPath id="clip-path-26"><path class="cls-2" d="M516.33,189.84a3.92,3.92,0,1,1-3.92-3.88,3.9,3.9,0,0,1,3.92,3.88"/></clipPath><clipPath id="clip-path-27"><path class="cls-2" d="M528.08,189.84a3.92,3.92,0,1,1-3.92-3.88,3.9,3.9,0,0,1,3.92,3.88"/></clipPath><clipPath id="clip-path-28"><path class="cls-2" d="M539.83,189.84a3.92,3.92,0,1,1-3.92-3.88,3.9,3.9,0,0,1,3.92,3.88"/></clipPath><clipPath id="clip-path-29"><rect class="cls-1" x="504.58" y="197.6" width="9.14" height="59.48"/></clipPath><clipPath id="clip-path-30"><path class="cls-2" d="M509.81,205.36a1.29,1.29,0,1,0,0-2.59H508.5a1.29,1.29,0,1,0,0,2.59Z"/></clipPath><clipPath id="clip-path-31"><path class="cls-2" d="M509.81,207.94H508.5a1.29,1.29,0,1,0,0,2.59h1.31a1.29,1.29,0,1,0,0-2.59"/></clipPath><clipPath id="clip-path-32"><path class="cls-2" d="M509.81,213.11H508.5a1.29,1.29,0,1,0,0,2.59h1.31a1.29,1.29,0,1,0,0-2.59"/></clipPath><clipPath id="clip-path-33"><path class="cls-2" d="M509.81,218.29H508.5a1.29,1.29,0,1,0,0,2.59h1.31a1.29,1.29,0,1,0,0-2.59"/></clipPath><clipPath id="clip-path-34"><path class="cls-2" d="M509.81,223.46H508.5a1.29,1.29,0,1,0,0,2.59h1.31a1.29,1.29,0,1,0,0-2.59"/></clipPath><clipPath id="clip-path-35"><path class="cls-2" d="M509.81,228.63H508.5a1.29,1.29,0,1,0,0,2.59h1.31a1.29,1.29,0,1,0,0-2.59"/></clipPath><clipPath id="clip-path-36"><path class="cls-2" d="M509.81,233.8H508.5a1.29,1.29,0,1,0,0,2.59h1.31a1.29,1.29,0,1,0,0-2.59"/></clipPath><clipPath id="clip-path-37"><path class="cls-2" d="M509.81,239H508.5a1.29,1.29,0,1,0,0,2.59h1.31a1.29,1.29,0,1,0,0-2.59"/></clipPath><clipPath id="clip-path-38"><path class="cls-2" d="M509.81,244.15H508.5a1.29,1.29,0,1,0,0,2.59h1.31a1.29,1.29,0,1,0,0-2.59"/></clipPath><clipPath id="clip-path-39"><path class="cls-2" d="M509.81,249.32H508.5a1.29,1.29,0,1,0,0,2.59h1.31a1.29,1.29,0,1,0,0-2.59"/></clipPath><clipPath id="clip-path-40"><polygon class="cls-2" points="536.12 241.72 551.78 241.84 559.63 228.25 528.78 227.95 536.12 241.72"/></clipPath><clipPath id="clip-path-41"><polygon class="cls-2" points="528.32 228.28 536.04 241.91 551.68 241.87 536.2 214.39 528.32 228.28"/></clipPath><clipPath id="clip-path-42"><polygon class="cls-2" points="569.05 210.44 553.38 210.32 545.54 223.91 576.38 224.21 569.05 210.44"/></clipPath><clipPath id="clip-path-43"><polygon class="cls-2" points="576.85 223.88 569.12 210.25 553.48 210.29 568.96 237.77 576.85 223.88"/></clipPath><clipPath id="clip-path-44"><rect class="cls-1" x="-0.08" y="-162.92" width="343.66" height="124.43"/></clipPath><clipPath id="clip-path-45"><rect class="cls-1" x="382.43" y="-1.06" width="344.19" height="125.5"/></clipPath><clipPath id="clip-path-46"><rect class="cls-1" x="-255.78" y="-136.14" width="94" height="75"/></clipPath><clipPath id="clip-path-47"><rect class="cls-3" x="-255.78" y="-136.14" width="94" height="15.52"/></clipPath><clipPath id="clip-path-48"><path class="cls-2" d="M-244-128.38a3.9,3.9,0,0,1-3.92,3.88,3.9,3.9,0,0,1-3.92-3.88,3.9,3.9,0,0,1,3.92-3.88,3.9,3.9,0,0,1,3.92,3.88"/></clipPath><clipPath id="clip-path-49"><path class="cls-2" d="M-232.28-128.38a3.9,3.9,0,0,1-3.92,3.88,3.9,3.9,0,0,1-3.92-3.88,3.9,3.9,0,0,1,3.92-3.88,3.9,3.9,0,0,1,3.92,3.88"/></clipPath><clipPath id="clip-path-50"><path class="cls-2" d="M-220.53-128.38a3.9,3.9,0,0,1-3.92,3.88,3.9,3.9,0,0,1-3.92-3.88,3.9,3.9,0,0,1,3.92-3.88,3.9,3.9,0,0,1,3.92,3.88"/></clipPath><clipPath id="clip-path-51"><rect class="cls-1" x="-255.78" y="-120.63" width="9.14" height="59.48"/></clipPath><clipPath id="clip-path-52"><path class="cls-2" d="M-250.56-112.87a1.3,1.3,0,0,0,1.31-1.29,1.3,1.3,0,0,0-1.31-1.29h-1.31a1.3,1.3,0,0,0-1.31,1.29,1.3,1.3,0,0,0,1.31,1.29Z"/></clipPath><clipPath id="clip-path-53"><path class="cls-2" d="M-250.56-110.28h-1.31a1.3,1.3,0,0,0-1.31,1.29,1.3,1.3,0,0,0,1.31,1.29h1.31a1.3,1.3,0,0,0,1.31-1.29,1.3,1.3,0,0,0-1.31-1.29"/></clipPath><clipPath id="clip-path-54"><path class="cls-2" d="M-250.56-105.11h-1.31a1.3,1.3,0,0,0-1.31,1.29,1.3,1.3,0,0,0,1.31,1.29h1.31a1.3,1.3,0,0,0,1.31-1.29,1.3,1.3,0,0,0-1.31-1.29"/></clipPath><clipPath id="clip-path-55"><path class="cls-2" d="M-250.56-99.94h-1.31a1.3,1.3,0,0,0-1.31,1.29,1.3,1.3,0,0,0,1.31,1.29h1.31a1.3,1.3,0,0,0,1.31-1.29,1.3,1.3,0,0,0-1.31-1.29"/></clipPath><clipPath id="clip-path-56"><path class="cls-2" d="M-250.56-94.76h-1.31a1.3,1.3,0,0,0-1.31,1.29,1.3,1.3,0,0,0,1.31,1.29h1.31a1.3,1.3,0,0,0,1.31-1.29,1.3,1.3,0,0,0-1.31-1.29"/></clipPath><clipPath id="clip-path-57"><path class="cls-2" d="M-250.56-89.59h-1.31a1.3,1.3,0,0,0-1.31,1.29A1.3,1.3,0,0,0-251.86-87h1.31a1.3,1.3,0,0,0,1.31-1.29,1.3,1.3,0,0,0-1.31-1.29"/></clipPath><clipPath id="clip-path-58"><path class="cls-2" d="M-250.56-84.42h-1.31a1.3,1.3,0,0,0-1.31,1.29,1.3,1.3,0,0,0,1.31,1.29h1.31a1.3,1.3,0,0,0,1.31-1.29,1.3,1.3,0,0,0-1.31-1.29"/></clipPath><clipPath id="clip-path-59"><path class="cls-2" d="M-250.56-79.25h-1.31A1.3,1.3,0,0,0-253.17-78a1.3,1.3,0,0,0,1.31,1.29h1.31A1.3,1.3,0,0,0-249.25-78a1.3,1.3,0,0,0-1.31-1.29"/></clipPath><clipPath id="clip-path-60"><path class="cls-2" d="M-250.56-74.07h-1.31a1.3,1.3,0,0,0-1.31,1.29,1.3,1.3,0,0,0,1.31,1.29h1.31a1.3,1.3,0,0,0,1.31-1.29,1.3,1.3,0,0,0-1.31-1.29"/></clipPath><clipPath id="clip-path-61"><path class="cls-2" d="M-250.56-68.9h-1.31a1.3,1.3,0,0,0-1.31,1.29,1.3,1.3,0,0,0,1.31,1.29h1.31a1.3,1.3,0,0,0,1.31-1.29,1.3,1.3,0,0,0-1.31-1.29"/></clipPath><clipPath id="clip-path-62"><rect class="cls-3" x="141.05" y="170.86" width="60.84" height="98.25"/></clipPath><clipPath id="clip-path-63"><rect class="cls-1" x="126.88" y="24.13" width="94" height="75"/></clipPath><clipPath id="clip-path-64"><rect class="cls-1" x="-1030.12" y="-508.87" width="1440" height="1024"/></clipPath><clipPath id="clip-path-65"><rect class="cls-4" x="126.88" y="24.13" width="94" height="15.52"/></clipPath><clipPath id="clip-path-66"><rect class="cls-4" x="-1030.12" y="-508.87" width="1440" height="1024"/></clipPath><clipPath id="clip-path-67"><path class="cls-2" d="M138.63,31.89A3.92,3.92,0,1,1,134.71,28a3.9,3.9,0,0,1,3.92,3.88"/></clipPath><clipPath id="clip-path-69"><path class="cls-2" d="M150.38,31.89A3.92,3.92,0,1,1,146.46,28a3.9,3.9,0,0,1,3.92,3.88"/></clipPath><clipPath id="clip-path-71"><path class="cls-2" d="M162.13,31.89A3.92,3.92,0,1,1,158.21,28a3.9,3.9,0,0,1,3.92,3.88"/></clipPath><clipPath id="clip-path-73"><circle class="cls-5" cx="180.5" cy="83.31" r="8.66"/></clipPath><clipPath id="clip-path-74"><rect class="cls-5" x="139.14" y="33.3" width="70.21" height="70.21"/></clipPath><clipPath id="clip-path-75"><polygon class="cls-6" points="159.82 53.5 169.92 71.77 149.72 71.77 159.82 53.5"/></clipPath><clipPath id="clip-path-77"><rect class="cls-5" x="176.65" y="49.65" width="16.35" height="16.35"/></clipPath><clipPath id="clip-path-79"><rect class="cls-4" x="536.47" y="-146.14" width="51.28" height="82.81"/></clipPath></defs><title>Subheros</title><rect class="cls-7" x="-1.39" y="-1.4" width="345.22" height="126.68"/><polygon class="cls-8" points="27.89 47.04 12.04 31.18 27.89 31.18 27.89 47.04"/><path class="cls-8" d="M113.06,48H99.2a2,2,0,0,1-2-2V32.18a2,2,0,0,1,2-2h13.86a2,2,0,0,1,2,2V46A2,2,0,0,1,113.06,48ZM99.2,32.18V46h13.86V32.18Z"/><path class="cls-8" d="M48.43,48H34.58a2,2,0,0,1-2-2V32.18a2,2,0,0,1,2-2H48.43a2,2,0,0,1,2,2V46A2,2,0,0,1,48.43,48ZM34.58,32.18V46H48.44V32.18Z"/><rect class="cls-8" x="55.12" y="31.18" width="15.86" height="15.86"/><path class="cls-8" d="M91.71,48H77.46a1.81,1.81,0,0,1-1.8-1.8v-.41L91.3,30.18h.41a1.81,1.81,0,0,1,1.8,1.8V46.24A1.81,1.81,0,0,1,91.71,48ZM78.27,46H91.52V32.79Z"/><path class="cls-8" d="M156.14,48H142.28a2,2,0,0,1-2-2V32.18a2,2,0,0,1,2-2h13.86a2,2,0,0,1,2,2V46A2,2,0,0,1,156.14,48ZM142.28,32.18V46h13.86V32.18Z"/><path class="cls-8" d="M99,70.84c-.44,0-.8-15.05-.8-15.05A.8.8,0,0,1,99,55h14.25a.8.8,0,0,1,.8.8Z"/><polygon class="cls-8" points="70.98 70.84 55.12 70.84 70.98 54.98 70.98 70.84"/><path class="cls-8" d="M156.34,71.84h-.41L140.28,56.2v-.41a1.81,1.81,0,0,1,1.8-1.8h14.25a1.81,1.81,0,0,1,1.8,1.8V70A1.81,1.81,0,0,1,156.34,71.84ZM142.89,56l13.25,13.25V56Z"/><path class="cls-8" d="M113.2,95.63H99.34a2,2,0,0,1-2-2V79.78a2,2,0,0,1,2-2H113.2a2,2,0,0,1,2,2V93.63A2,2,0,0,1,113.2,95.63ZM99.34,79.78V93.63H113.2V79.78Z"/><polygon class="cls-8" points="55.26 94.63 55.26 78.78 71.12 78.78 55.26 94.63"/><path class="cls-8" d="M91.66,95.63H77.8a2,2,0,0,1-2-2V79.78a2,2,0,0,1,2-2H91.66a2,2,0,0,1,2,2V93.63A2,2,0,0,1,91.66,95.63ZM77.8,79.78V93.63H91.66V79.78Z"/><path class="cls-8" d="M156.48,95.63H142.23a1.81,1.81,0,0,1-1.8-1.8v-.41l15.64-15.64h.41a1.81,1.81,0,0,1,1.8,1.8V93.83A1.81,1.81,0,0,1,156.48,95.63Zm-13.44-2h13.25V80.39Z"/><path class="cls-8" d="M177.82,95.63H164a2,2,0,0,1-2-2V79.78a2,2,0,0,1,2-2h13.86a2,2,0,0,1,2,2V93.63A2,2,0,0,1,177.82,95.63ZM164,79.78V93.63h13.86V79.78Z"/><path class="cls-8" d="M48.77,119.43h-.41L32.72,103.79v-.41a1.81,1.81,0,0,1,1.8-1.8H48.77a1.81,1.81,0,0,1,1.8,1.8v14.25A1.81,1.81,0,0,1,48.77,119.43ZM35.33,103.57l13.25,13.25V103.57Z"/><path class="cls-8" d="M91.66,119.43H77.8a2,2,0,0,1-2-2V103.57a2,2,0,0,1,2-2H91.66a2,2,0,0,1,2,2v13.86A2,2,0,0,1,91.66,119.43ZM77.8,103.57v13.86H91.66V103.57Z"/><path class="cls-8" d="M156.28,119.43H142.42a2,2,0,0,1-2-2V103.57a2,2,0,0,1,2-2h13.86a2,2,0,0,1,2,2v13.86A2,2,0,0,1,156.28,119.43Zm-13.86-15.86v13.86h13.86V103.57Z"/><path class="cls-8" d="M164.18,119.43h-.41a1.81,1.81,0,0,1-1.8-1.8V103.37a1.81,1.81,0,0,1,1.8-1.8H178a1.81,1.81,0,0,1,1.8,1.8v.41ZM164,103.57v13.25l13.25-13.25Z"/><path class="cls-8" d="M264.81,95.71H251a2,2,0,0,1-2-2V79.86a2,2,0,0,1,2-2h13.86a2,2,0,0,1,2,2V93.71A2,2,0,0,1,264.81,95.71ZM251,79.86h0V93.71h13.86V79.86Z"/><polygon class="cls-8" points="228.41 78.86 244.27 78.86 244.27 94.71 228.41 78.86"/><path class="cls-8" d="M329.43,95.71H315.57a2,2,0,0,1-2-2V79.86a2,2,0,0,1,2-2h13.86a2,2,0,0,1,2,2V93.71A2,2,0,0,1,329.43,95.71ZM315.57,79.86h0V93.71h13.86V79.86Z"/><rect class="cls-8" x="293.03" y="78.86" width="15.86" height="15.86" transform="translate(601.93 173.57) rotate(180)"/><path class="cls-8" d="M272.71,95.71h-.41a1.81,1.81,0,0,1-1.8-1.8V79.66a1.81,1.81,0,0,1,1.8-1.8h14.25a1.81,1.81,0,0,1,1.8,1.8v.41Zm-.22-15.86V93.1l13.25-13.25Z"/><path class="cls-8" d="M286.55,119.51H272.3a1.81,1.81,0,0,1-1.8-1.8V103.45a1.81,1.81,0,0,1,1.8-1.8h.41l15.64,15.64v.41A1.81,1.81,0,0,1,286.55,119.51Zm-14.05-2h13.25l-13.25-13.25Z"/><path class="cls-8" d="M265,55.06c.44,0,.8,15.05.8,15.05a.8.8,0,0,1-.8.8H250.76a.8.8,0,0,1-.8-.8Z"/><polygon class="cls-8" points="293.03 55.06 308.89 55.06 293.03 70.92 293.03 55.06"/><path class="cls-8" d="M200.19,71.92H186.33a2,2,0,0,1-2-2V56.06a2,2,0,0,1,2-2h13.86a2,2,0,0,1,2,2V69.92A2,2,0,0,1,200.19,71.92ZM186.33,56.06h0V69.92h13.86V56.06Z"/><path class="cls-8" d="M264.67,48.12H250.81a2,2,0,0,1-2-2V32.27a2,2,0,0,1,2-2h13.86a2,2,0,0,1,2,2V46.12A2,2,0,0,1,264.67,48.12ZM250.81,32.27h0V46.12h13.86V32.27Z"/><rect class="cls-8" x="228.27" y="31.27" width="15.86" height="15.86" transform="translate(472.4 78.39) rotate(180)"/><path class="cls-8" d="M329.29,48.12H315.43a2,2,0,0,1-2-2V32.27a2,2,0,0,1,2-2h13.86a2,2,0,0,1,2,2V46.12A2,2,0,0,1,329.29,48.12ZM315.43,32.27h0V46.12h13.86V32.27Z"/><polygon class="cls-8" points="308.75 31.27 308.75 47.12 292.89 47.12 308.75 31.27"/><path class="cls-8" d="M200,48.12H186.19a2,2,0,0,1-2-2V32.27a2,2,0,0,1,2-2H200a2,2,0,0,1,2,2V46.12A2,2,0,0,1,200,48.12ZM186.19,32.27h0V46.12H200V32.27Z"/><path class="cls-8" d="M329.49,21.25H315.24a1.81,1.81,0,0,1-1.8-1.8V5.19a1.81,1.81,0,0,1,1.8-1.8h.41L331.29,19v.41A1.81,1.81,0,0,1,329.49,21.25Zm-14.05-2h13.25L315.43,6Z"/><rect class="cls-8" x="292.89" y="3.39" width="15.86" height="15.86" transform="translate(601.64 22.64) rotate(180)"/><path class="cls-8" d="M286.21,21.25H272.35a2,2,0,0,1-2-2V5.39a2,2,0,0,1,2-2h13.86a2,2,0,0,1,2,2V19.25A2,2,0,0,1,286.21,21.25ZM272.35,5.39h0V19.25h13.86V5.39Z"/><rect class="cls-3" x="-255.78" y="-136.14" width="94" height="15.52"/><g class="cls-55"><rect class="cls-3" x="-1412.78" y="-669.14" width="1440" height="1024"/></g><rect class="cls-3" x="141.05" y="170.86" width="60.84" height="98.25"/><g class="cls-70"><rect class="cls-3" x="-911.2" y="-485.36" width="1581.89" height="1108.74"/></g><g class="cls-71"><g class="cls-72"><rect class="cls-73" x="121.88" y="19.13" width="104" height="85"/></g></g><rect class="cls-4" x="126.88" y="24.13" width="94" height="15.52"/><g class="cls-74"><rect class="cls-4" x="-1030.12" y="-508.87" width="1440" height="1024"/><g class="cls-75"><rect class="cls-4" x="121.88" y="19.13" width="104" height="25.52"/></g></g><g class="cls-76"><g class="cls-72"><rect class="cls-77" x="125.8" y="23.01" width="17.83" height="17.76"/></g></g><g class="cls-78"><g class="cls-72"><rect class="cls-79" x="137.55" y="23.01" width="17.83" height="17.76"/></g></g><g class="cls-80"><g class="cls-72"><rect class="cls-81" x="149.3" y="23.01" width="17.83" height="17.76"/></g></g><circle class="cls-5" cx="180.5" cy="83.31" r="8.66"/><g class="cls-82"><rect class="cls-5" x="139.14" y="33.3" width="70.21" height="70.21"/><g class="cls-83"><rect class="cls-5" x="167.03" y="69.85" width="26.93" height="26.93"/></g></g><polygon class="cls-84" points="159.82 53.5 169.92 71.77 149.72 71.77 159.82 53.5"/><g class="cls-85"><rect class="cls-5" x="139.14" y="33.3" width="70.21" height="70.21"/><g class="cls-83"><rect class="cls-5" x="144.91" y="48.69" width="29.82" height="27.89"/></g></g><rect class="cls-5" x="176.65" y="49.65" width="16.35" height="16.35"/><g class="cls-86"><rect class="cls-5" x="139.14" y="33.3" width="70.21" height="70.21"/><g class="cls-83"><rect class="cls-5" x="171.84" y="44.84" width="25.97" height="25.97"/></g></g><rect class="cls-4" x="536.47" y="-146.14" width="51.28" height="82.81"/><g class="cls-87"><rect class="cls-4" x="-350.4" y="-699.22" width="1333.27" height="934.48"/></g></svg>